<svg width="46" height="30" viewBox="0 0 46 30" fill="none" xmlns="http://www.w3.org/2000/svg">
<path d="M2.888 28.248C2.03467 28.248 1.39467 28.0133 0.968 27.544C0.541333 27.0747 0.328 26.5947 0.328 26.104C0.328 25.528 0.434667 25.0907 0.648 24.792C0.861334 24.4933 1.27733 24.2693 1.896 24.12C2.70667 23.9493 3.54933 23.736 4.424 23.48C5.32 23.224 6.17333 22.9573 6.984 22.68C7.816 22.3813 8.54133 22.0827 9.16 21.784C9.77867 21.464 10.2267 21.1653 10.504 20.888C10.1627 20.696 9.61867 20.472 8.872 20.216C8.12533 19.9387 7.29333 19.6187 6.376 19.256C5.48 18.872 4.616 18.424 3.784 17.912C2.952 17.4 2.26933 16.8027 1.736 16.12C1.20267 15.4373 0.936 14.6587 0.936 13.784C0.936 12.568 1.24533 11.4267 1.864 10.36C2.48267 9.29333 3.304 8.30133 4.328 7.384C5.352 6.46667 6.46133 5.624 7.656 4.856C8.872 4.088 10.0773 3.39467 11.272 2.776C12.488 2.136 13.576 1.57066 14.536 1.08C14.8987 0.866665 15.24 0.727999 15.56 0.664C15.9013 0.578666 16.2107 0.535999 16.488 0.535999C17.448 0.535999 18.1093 0.770665 18.472 1.24C18.8347 1.70933 19.016 2.18933 19.016 2.68C19.016 3.02133 18.856 3.42667 18.536 3.896C18.216 4.344 17.704 4.76 17 5.144C16.3173 5.528 15.4107 5.80533 14.28 5.976C14.088 5.99733 13.9173 6.01867 13.768 6.04C12.9147 6.46667 11.9973 6.97867 11.016 7.576C10.0347 8.17333 9.10667 8.80267 8.232 9.464C7.37867 10.104 6.67467 10.744 6.12 11.384C5.56533 12.024 5.288 12.6 5.288 13.112C5.288 13.688 5.52267 14.2107 5.992 14.68C6.46133 15.128 7.05867 15.544 7.784 15.928C8.53067 16.2907 9.30933 16.6427 10.12 16.984C10.952 17.3253 11.7307 17.6773 12.456 18.04C13.2027 18.3813 13.8107 18.7653 14.28 19.192C14.7493 19.6187 14.984 20.0987 14.984 20.632C14.984 21.3573 14.7387 22.0507 14.248 22.712C13.7573 23.3733 13.1173 23.992 12.328 24.568C11.5387 25.1227 10.6747 25.624 9.736 26.072C8.79733 26.52 7.86933 26.904 6.952 27.224C6.056 27.5653 5.24533 27.8213 4.52 27.992C3.79467 28.1627 3.25067 28.248 2.888 28.248Z" fill="#2D2D44"/>
<path d="M37.5495 29.112C37.1015 29.112 36.6855 29.0053 36.3015 28.792C35.9175 28.5787 35.6082 28.2053 35.3735 27.672C35.1602 27.1387 35.0962 26.392 35.1815 25.432C34.4348 22.9147 33.7522 20.408 33.1335 17.912C32.5362 15.416 31.9708 12.8453 31.4375 10.2C30.6695 11.9493 29.9762 13.7413 29.3575 15.576C28.7388 17.3893 28.1842 19.1067 27.6935 20.728C27.2028 22.328 26.7548 23.672 26.3495 24.76C26.0295 25.72 25.7095 26.4347 25.3895 26.904C25.0695 27.352 24.7495 27.64 24.4295 27.768C24.1308 27.9173 23.8322 27.992 23.5335 27.992C22.8082 27.992 22.2535 27.8213 21.8695 27.48C21.4855 27.1387 21.2935 26.52 21.2935 25.624C21.2935 25.1547 21.4215 24.44 21.6775 23.48C21.9335 22.4987 22.2748 21.3787 22.7015 20.12C23.1495 18.84 23.6615 17.5067 24.2375 16.12C24.8135 14.712 25.4215 13.3467 26.0615 12.024C26.7015 10.7013 27.3415 9.50667 27.9815 8.44C28.6215 7.352 29.2402 6.488 29.8375 5.848C30.4348 5.208 30.9682 4.888 31.4375 4.888C31.8428 4.888 32.2162 4.93067 32.5575 5.016C32.8988 5.08 33.2295 5.272 33.5495 5.592C33.8695 5.89067 34.2002 6.392 34.5415 7.096C34.8188 7.62933 35.0962 8.39733 35.3735 9.4C35.6508 10.3813 35.9175 11.512 36.1735 12.792C36.4295 14.0507 36.6855 15.3733 36.9415 16.76C37.2188 18.1467 37.4962 19.5013 37.7735 20.824C38.5842 17.1333 39.2348 13.8907 39.7255 11.096C40.2375 8.28 40.6108 6.072 40.8455 4.472C41.0802 2.872 41.2082 2.02933 41.2295 1.944C41.3788 1.32533 41.5388 0.898666 41.7095 0.664C41.8802 0.407999 42.0722 0.258666 42.2855 0.216C42.4988 0.151999 42.7442 0.119999 43.0215 0.119999C43.0428 0.119999 43.0535 0.119999 43.0535 0.119999C43.6082 0.119999 44.1522 0.343999 44.6855 0.791998C45.2402 1.24 45.5175 1.848 45.5175 2.616C45.5175 2.872 45.4642 3.448 45.3575 4.344C45.2508 5.21867 45.0908 6.328 44.8775 7.672C44.6855 8.99467 44.4295 10.4667 44.1095 12.088C43.7895 13.688 43.4162 15.3627 42.9895 17.112C42.5842 18.84 42.1255 20.5573 41.6135 22.264C41.1015 23.9707 40.5362 25.5707 39.9175 27.064C39.5762 27.9173 39.1708 28.472 38.7015 28.728C38.2535 28.984 37.8695 29.112 37.5495 29.112Z" fill="#FCB43C"/>
</svg>
