<?xml version="1.0" encoding="utf-8"?>
<!-- Generator: Adobe Illustrator 24.0.2, SVG Export Plug-In . SVG Version: 6.00 Build 0)  -->
<svg version="1.1" id="Layer_1" xmlns="http://www.w3.org/2000/svg" xmlns:xlink="http://www.w3.org/1999/xlink" x="0px" y="0px"
	 viewBox="0 0 1190.6 841.9" style="enable-background:new 0 0 1190.6 841.9;" xml:space="preserve">
<style type="text/css">
	.st0{fill:none;stroke:#FDB73E;stroke-miterlimit:2;}
	.st1{fill:none;stroke:#FDB73E;stroke-width:0.51;stroke-miterlimit:2;}
	.st2{fill:none;stroke:#FDB73E;stroke-width:1.42;stroke-miterlimit:2;}
	.st3{fill:none;stroke:#FDB73E;stroke-width:0.71;stroke-miterlimit:2;}
	.st4{fill:none;stroke:#FDB73E;stroke-width:0.37;stroke-miterlimit:2;}
	.st5{fill:none;stroke:#FDB73E;stroke-width:0.99;stroke-miterlimit:2;}
	.st6{fill:none;stroke:#000000;stroke-width:0.99;stroke-miterlimit:2;}
	.st7{fill:none;stroke:#000000;stroke-width:0.71;stroke-miterlimit:2;}
	.st8{fill:#FDB73E;}
	.st9{font-family:'ArialNarrow';}
	.st10{font-size:13.86px;}
	.st11{font-family:'Swiss721BT-Roman';}
	.st12{font-size:19.71px;}
	.st13{font-size:7.1px;}
	.st14{font-size:15.77px;}
	.st15{font-size:4.73px;}
	.st16{fill-rule:evenodd;clip-rule:evenodd;fill:#FDB73E;}
	.st17{letter-spacing:1;}
	.st18{font-size:13.8218px;}
	.st19{font-size:13.9167px;}
	.st20{font-size:13.8607px;}
	.st21{font-size:13.7891px;}
	.st22{font-size:13.8357px;}
</style>
<path class="st0" d="M0,841.9"/>
<image style="overflow:visible;" width="380" height="139" xlink:href="D6DA8A9BF4245415.jpg"  transform="matrix(0.2984 0 0 0.259 651.97 777.54)">
</image>
<line class="st1" x1="624.2" y1="277.5" x2="571.6" y2="277.5"/>
<line class="st1" x1="774.5" y1="277.5" x2="819.9" y2="277.5"/>
<line class="st1" x1="747.6" y1="565.9" x2="747.6" y2="596.8"/>
<line class="st1" x1="774.5" y1="525.5" x2="818.9" y2="525.5"/>
<line class="st1" x1="624.2" y1="525.5" x2="576.9" y2="525.5"/>
<line class="st1" x1="651.2" y1="565.9" x2="651.2" y2="599.7"/>
<line class="st1" x1="472.8" y1="279.4" x2="514.1" y2="279.4"/>
<line class="st1" x1="475.6" y1="282.2" x2="475.6" y2="240.9"/>
<line class="st1" x1="383.4" y1="282.2" x2="383.4" y2="242.7"/>
<line class="st1" x1="386.3" y1="279.4" x2="346.8" y2="279.4"/>
<line class="st1" x1="475.6" y1="453" x2="330.6" y2="453"/>
<line class="st1" x1="429.5" y1="277.2" x2="330.6" y2="277.2"/>
<line class="st1" x1="383.4" y1="448.2" x2="383.4" y2="489.4"/>
<line class="st1" x1="475.6" y1="397.8" x2="475.6" y2="489.4"/>
<line class="st1" x1="899.2" y1="572.4" x2="899.2" y2="637.3"/>
<line class="st1" x1="1075" y1="537" x2="1075" y2="637.3"/>
<line class="st2" x1="617.1" y1="523.4" x2="617.1" y2="525.5"/>
<line class="st2" x1="617.1" y1="523.4" x2="624.2" y2="523.4"/>
<line class="st2" x1="617.1" y1="525.5" x2="624.2" y2="525.5"/>
<line class="st3" x1="624.2" y1="525.5" x2="624.2" y2="523.4"/>
<line class="st2" x1="624.2" y1="525.5" x2="648.3" y2="525.5"/>
<line class="st2" x1="624.2" y1="523.4" x2="648.3" y2="523.4"/>
<line class="st2" x1="617.1" y1="275.3" x2="617.1" y2="277.5"/>
<line class="st3" x1="624.2" y1="277.5" x2="624.2" y2="275.3"/>
<line class="st2" x1="624.2" y1="277.5" x2="648.3" y2="277.5"/>
<line class="st2" x1="624.2" y1="275.3" x2="648.3" y2="275.3"/>
<line class="st2" x1="617.1" y1="275.3" x2="624.2" y2="275.3"/>
<line class="st2" x1="617.1" y1="277.5" x2="624.2" y2="277.5"/>
<polyline class="st2" points="651.2,528.3 651.1,527.6 650.8,527 650.4,526.4 649.9,525.9 649.2,525.6 648.5,525.5 648.3,525.5 "/>
<line class="st2" x1="653.3" y1="528.3" x2="653.3" y2="528.3"/>
<polyline class="st2" points="651.2,524.2 650.5,523.9 649.9,523.6 649.2,523.4 648.5,523.4 648.3,523.4 "/>
<polyline class="st2" points="651.2,280.3 651.1,279.6 650.8,278.9 650.4,278.4 649.9,277.9 649.2,277.6 648.5,277.5 648.3,277.5 
	"/>
<line class="st2" x1="653.3" y1="280.3" x2="653.3" y2="280.3"/>
<polyline class="st2" points="651.2,276.2 650.5,275.9 649.9,275.6 649.2,275.4 648.5,275.3 648.3,275.3 "/>
<line class="st2" x1="653.3" y1="126.5" x2="653.3" y2="144.2"/>
<line class="st2" x1="651.2" y1="126.5" x2="653.3" y2="126.5"/>
<line class="st2" x1="651.2" y1="126.5" x2="651.2" y2="144.2"/>
<line class="st3" x1="653.3" y1="144.2" x2="651.2" y2="144.2"/>
<line class="st2" x1="653.3" y1="231.7" x2="653.3" y2="249.4"/>
<line class="st3" x1="653.3" y1="231.7" x2="651.2" y2="231.7"/>
<line class="st2" x1="651.2" y1="231.7" x2="651.2" y2="249.4"/>
<line class="st3" x1="653.3" y1="249.4" x2="651.2" y2="249.4"/>
<line class="st2" x1="653.3" y1="530.5" x2="653.3" y2="565.9"/>
<line class="st3" x1="653.3" y1="530.5" x2="651.2" y2="530.5"/>
<line class="st2" x1="651.2" y1="530.5" x2="651.2" y2="565.9"/>
<line class="st2" x1="653.3" y1="565.9" x2="651.2" y2="565.9"/>
<line class="st2" x1="653.3" y1="144.2" x2="653.3" y2="231.7"/>
<line class="st2" x1="651.2" y1="144.2" x2="651.2" y2="231.7"/>
<line class="st2" x1="653.3" y1="530.5" x2="653.3" y2="249.4"/>
<line class="st2" x1="651.2" y1="530.5" x2="651.2" y2="249.4"/>
<line class="st2" x1="656.1" y1="565.9" x2="653.3" y2="565.9"/>
<line class="st2" x1="656.1" y1="126.5" x2="653.3" y2="126.5"/>
<line class="st3" x1="656.1" y1="126.5" x2="656.1" y2="565.9"/>
<line class="st2" x1="774.5" y1="523.4" x2="781.6" y2="523.4"/>
<line class="st3" x1="774.5" y1="523.4" x2="774.5" y2="525.5"/>
<line class="st2" x1="774.5" y1="525.5" x2="781.6" y2="525.5"/>
<line class="st2" x1="781.6" y1="523.4" x2="781.6" y2="525.5"/>
<line class="st2" x1="750.4" y1="523.4" x2="774.5" y2="523.4"/>
<line class="st2" x1="750.4" y1="525.5" x2="774.5" y2="525.5"/>
<polyline class="st2" points="673.1,514.9 673.3,515.5 673.8,516.1 674.4,516.3 675.1,516.2 675.7,515.8 676,515.2 675.9,514.5 
	675.6,513.9 675,513.5 674.3,513.5 673.7,513.8 673.3,514.3 673.1,514.9 "/>
<polyline class="st2" points="725.6,266.8 725.4,266.2 725,265.7 724.3,265.4 723.6,265.5 723.1,265.9 722.8,266.5 722.8,267.2 
	723.2,267.8 723.7,268.2 724.4,268.2 725.1,267.9 725.5,267.4 725.6,266.8 "/>
<polyline class="st2" points="725.6,514.9 725.4,514.2 725,513.7 724.3,513.5 723.6,513.6 723.1,514 722.8,514.6 722.8,515.3 
	723.2,515.9 723.7,516.2 724.4,516.3 725.1,516 725.5,515.4 725.6,514.9 "/>
<polyline class="st2" points="673.1,266.8 673.3,267.5 673.8,268 674.4,268.2 675.1,268.2 675.7,267.7 676,267.1 675.9,266.4 
	675.6,265.8 675,265.5 674.3,265.4 673.7,265.7 673.3,266.3 673.1,266.8 "/>
<line class="st2" x1="699.4" y1="565.9" x2="656.1" y2="565.9"/>
<line class="st2" x1="656.1" y1="126.5" x2="699.4" y2="126.5"/>
<line class="st2" x1="699.4" y1="565.9" x2="742.6" y2="565.9"/>
<line class="st2" x1="742.6" y1="126.5" x2="699.4" y2="126.5"/>
<line class="st3" x1="742.6" y1="126.5" x2="742.6" y2="565.9"/>
<polyline class="st2" points="750.4,525.5 749.7,525.6 749,525.8 748.5,526.2 748,526.8 747.7,527.4 747.6,528.1 747.6,528.3 "/>
<polyline class="st2" points="750.4,523.4 749.7,523.4 749,523.6 748.3,523.8 747.7,524.2 747.6,524.2 "/>
<line class="st2" x1="745.4" y1="565.9" x2="742.6" y2="565.9"/>
<line class="st2" x1="745.4" y1="126.5" x2="742.6" y2="126.5"/>
<line class="st2" x1="745.4" y1="530.5" x2="745.4" y2="249.4"/>
<line class="st3" x1="745.4" y1="530.5" x2="747.6" y2="530.5"/>
<line class="st2" x1="747.6" y1="530.5" x2="747.6" y2="249.4"/>
<line class="st3" x1="745.4" y1="249.4" x2="747.6" y2="249.4"/>
<line class="st2" x1="745.4" y1="565.9" x2="745.4" y2="530.5"/>
<line class="st2" x1="745.4" y1="565.9" x2="747.6" y2="565.9"/>
<line class="st2" x1="747.6" y1="565.9" x2="747.6" y2="530.5"/>
<line class="st2" x1="745.4" y1="144.2" x2="745.4" y2="126.5"/>
<line class="st3" x1="745.4" y1="144.2" x2="747.6" y2="144.2"/>
<line class="st2" x1="747.6" y1="144.2" x2="747.6" y2="126.5"/>
<line class="st2" x1="745.4" y1="126.5" x2="747.6" y2="126.5"/>
<line class="st2" x1="745.4" y1="144.2" x2="745.4" y2="231.7"/>
<line class="st3" x1="745.4" y1="231.7" x2="747.6" y2="231.7"/>
<line class="st2" x1="747.6" y1="144.2" x2="747.6" y2="231.7"/>
<line class="st2" x1="745.4" y1="249.4" x2="745.4" y2="231.7"/>
<line class="st2" x1="747.6" y1="249.4" x2="747.6" y2="231.7"/>
<line class="st2" x1="781.6" y1="275.3" x2="781.6" y2="277.5"/>
<line class="st2" x1="774.5" y1="275.3" x2="781.6" y2="275.3"/>
<line class="st2" x1="750.4" y1="275.3" x2="774.5" y2="275.3"/>
<line class="st2" x1="774.5" y1="277.5" x2="781.6" y2="277.5"/>
<line class="st2" x1="750.4" y1="277.5" x2="774.5" y2="277.5"/>
<line class="st3" x1="774.5" y1="275.3" x2="774.5" y2="277.5"/>
<polyline class="st2" points="750.4,275.3 749.7,275.4 749,275.5 748.3,275.8 747.7,276.1 747.6,276.2 "/>
<polyline class="st2" points="750.4,277.5 749.7,277.5 749,277.8 748.5,278.2 748,278.8 747.7,279.4 747.6,280.1 747.6,280.3 "/>
<line class="st2" x1="347.3" y1="332.9" x2="347.3" y2="389.6"/>
<polyline class="st2" points="354.4,325.8 353.7,325.8 353,325.9 352.3,326.1 351.6,326.4 351,326.7 350.4,327 349.8,327.5 
	349.3,327.9 348.8,328.5 348.4,329 348.1,329.7 347.8,330.3 347.5,331 347.4,331.7 347.3,332.4 347.3,332.9 "/>
<polyline class="st2" points="363.2,362.6 363.9,362.5 364.4,362 364.6,361.4 364.5,360.7 364.1,360.1 363.5,359.8 362.8,359.9 
	362.2,360.2 361.9,360.8 361.8,361.5 362.1,362.1 362.7,362.5 363.2,362.6 "/>
<line class="st2" x1="378.5" y1="325.8" x2="354.4" y2="325.8"/>
<line class="st2" x1="354.4" y1="396.7" x2="378.5" y2="396.7"/>
<line class="st3" x1="378.5" y1="325.8" x2="378.5" y2="396.7"/>
<polyline class="st2" points="347.3,389.6 347.3,390.3 347.4,391 347.6,391.7 347.8,392.3 348.1,393 348.5,393.6 349,394.1 
	349.4,394.7 350,395.1 350.5,395.5 351.1,395.9 351.8,396.2 352.5,396.4 353.2,396.6 353.9,396.6 354.4,396.7 "/>
<line class="st2" x1="378.5" y1="396.7" x2="381.3" y2="396.7"/>
<line class="st2" x1="378.5" y1="325.8" x2="381.3" y2="325.8"/>
<line class="st2" x1="383.4" y1="367.1" x2="383.4" y2="397.8"/>
<line class="st3" x1="381.3" y1="367.1" x2="383.4" y2="367.1"/>
<line class="st2" x1="381.3" y1="367.1" x2="381.3" y2="397.8"/>
<line class="st3" x1="383.4" y1="397.8" x2="381.3" y2="397.8"/>
<line class="st2" x1="383.4" y1="448.2" x2="383.4" y2="453"/>
<line class="st3" x1="383.4" y1="448.2" x2="381.3" y2="448.2"/>
<line class="st2" x1="381.3" y1="448.2" x2="381.3" y2="453"/>
<line class="st2" x1="383.4" y1="453" x2="381.3" y2="453"/>
<line class="st2" x1="383.4" y1="397.8" x2="383.4" y2="448.2"/>
<line class="st2" x1="381.3" y1="397.8" x2="381.3" y2="448.2"/>
<line class="st2" x1="383.4" y1="282.2" x2="383.4" y2="367.1"/>
<line class="st2" x1="381.3" y1="282.2" x2="381.3" y2="367.1"/>
<polyline class="st2" points="386.3,279.4 385.6,279.5 384.9,279.7 384.4,280.1 383.9,280.7 383.6,281.3 383.5,282 383.4,282.2 "/>
<polyline class="st2" points="386.3,277.2 385.6,277.3 384.9,277.4 384.2,277.7 383.6,278 383,278.5 382.5,279 382.1,279.5 
	381.8,280.1 381.5,280.8 381.4,281.5 381.3,282.2 381.3,282.2 "/>
<line class="st2" x1="386.3" y1="277.2" x2="429.5" y2="277.2"/>
<line class="st2" x1="386.3" y1="279.4" x2="429.5" y2="279.4"/>
<line class="st2" x1="472.8" y1="279.4" x2="429.5" y2="279.4"/>
<line class="st2" x1="472.8" y1="277.2" x2="429.5" y2="277.2"/>
<polyline class="st2" points="475.6,282.2 475.5,281.5 475.2,280.9 474.8,280.3 474.3,279.8 473.7,279.5 473,279.4 472.8,279.4 "/>
<polyline class="st2" points="477.7,282.2 477.7,281.5 477.5,280.8 477.3,280.1 476.9,279.5 476.5,279 476,278.5 475.5,278 
	474.8,277.7 474.2,277.4 473.5,277.3 472.8,277.2 472.8,277.2 "/>
<line class="st2" x1="475.6" y1="453" x2="477.7" y2="453"/>
<line class="st2" x1="475.6" y1="397.8" x2="475.6" y2="367.1"/>
<line class="st3" x1="475.6" y1="397.8" x2="477.7" y2="397.8"/>
<line class="st2" x1="477.7" y1="397.8" x2="477.7" y2="367.1"/>
<line class="st3" x1="475.6" y1="367.1" x2="477.7" y2="367.1"/>
<line class="st2" x1="475.6" y1="397.8" x2="475.6" y2="448.2"/>
<line class="st3" x1="475.6" y1="448.2" x2="477.7" y2="448.2"/>
<line class="st2" x1="477.7" y1="397.8" x2="477.7" y2="448.2"/>
<line class="st2" x1="475.6" y1="453" x2="475.6" y2="448.2"/>
<line class="st2" x1="477.7" y1="453" x2="477.7" y2="448.2"/>
<line class="st2" x1="477.7" y1="282.2" x2="477.7" y2="367.1"/>
<line class="st2" x1="475.6" y1="282.2" x2="475.6" y2="367.1"/>
<polyline class="st2" points="495.8,362.6 496.5,362.5 497,362 497.2,361.4 497.1,360.7 496.7,360.1 496.1,359.8 495.4,359.9 
	494.8,360.2 494.5,360.8 494.4,361.5 494.7,362.1 495.2,362.5 495.8,362.6 "/>
<line class="st2" x1="504.7" y1="325.8" x2="480.5" y2="325.8"/>
<polyline class="st2" points="511.8,332.9 511.7,332.2 511.6,331.5 511.4,330.8 511.2,330.1 510.9,329.5 510.5,328.9 510.1,328.3 
	509.6,327.8 509.1,327.3 508.5,326.9 507.9,326.6 507.2,326.3 506.6,326 505.9,325.9 505.2,325.8 504.7,325.8 "/>
<line class="st2" x1="511.8" y1="332.9" x2="511.8" y2="389.6"/>
<line class="st2" x1="480.5" y1="325.8" x2="477.7" y2="325.8"/>
<polyline class="st2" points="504.7,396.7 505.4,396.6 506.1,396.5 506.8,396.3 507.4,396.1 508.1,395.8 508.7,395.4 509.2,395 
	509.7,394.5 510.2,394 510.6,393.4 511,392.8 511.3,392.2 511.5,391.5 511.6,390.8 511.7,390.1 511.8,389.6 "/>
<line class="st2" x1="480.5" y1="396.7" x2="504.7" y2="396.7"/>
<line class="st3" x1="480.5" y1="396.7" x2="480.5" y2="325.8"/>
<line class="st2" x1="480.5" y1="396.7" x2="477.7" y2="396.7"/>
<line class="st2" x1="947.8" y1="529.9" x2="954.8" y2="529.9"/>
<line class="st2" x1="947.8" y1="529.9" x2="947.8" y2="532"/>
<line class="st2" x1="947.8" y1="532" x2="954.8" y2="532"/>
<line class="st3" x1="954.8" y1="529.9" x2="954.8" y2="532"/>
<line class="st2" x1="954.8" y1="529.9" x2="1011.5" y2="529.9"/>
<line class="st2" x1="954.8" y1="532" x2="1011.5" y2="532"/>
<line class="st3" x1="1011.5" y1="529.9" x2="1011.5" y2="532"/>
<line class="st2" x1="1011.5" y1="529.9" x2="1018.6" y2="529.9"/>
<line class="st2" x1="1011.5" y1="532" x2="1018.6" y2="532"/>
<line class="st2" x1="1018.6" y1="532" x2="1018.6" y2="529.9"/>
<line class="st2" x1="954.8" y1="281.9" x2="1011.5" y2="281.9"/>
<line class="st3" x1="954.8" y1="281.9" x2="954.8" y2="284"/>
<line class="st2" x1="954.8" y1="284" x2="1011.5" y2="284"/>
<line class="st3" x1="1011.5" y1="281.9" x2="1011.5" y2="284"/>
<line class="st2" x1="947.8" y1="281.9" x2="954.8" y2="281.9"/>
<line class="st2" x1="947.8" y1="281.9" x2="947.8" y2="284"/>
<line class="st2" x1="947.8" y1="284" x2="954.8" y2="284"/>
<line class="st2" x1="1018.6" y1="284" x2="1018.6" y2="281.9"/>
<line class="st2" x1="1011.5" y1="281.9" x2="1018.6" y2="281.9"/>
<line class="st2" x1="1011.5" y1="284" x2="1018.6" y2="284"/>
<line class="st2" x1="947.8" y1="534.9" x2="947.8" y2="532"/>
<line class="st2" x1="1018.6" y1="534.9" x2="1018.6" y2="532"/>
<line class="st2" x1="1018.6" y1="286.8" x2="1018.6" y2="284"/>
<line class="st2" x1="947.8" y1="286.8" x2="947.8" y2="284"/>
<line class="st3" x1="947.8" y1="534.9" x2="1018.6" y2="534.9"/>
<line class="st2" x1="947.8" y1="534.9" x2="947.8" y2="534.9"/>
<line class="st2" x1="947" y1="534.9" x2="947.8" y2="534.9"/>
<line class="st2" x1="947" y1="529.9" x2="947" y2="534.9"/>
<line class="st2" x1="912" y1="529.9" x2="947" y2="529.9"/>
<line class="st2" x1="912" y1="508.7" x2="912" y2="529.9"/>
<polyline class="st2" points="926.2,494.5 925.4,494.5 924.7,494.6 924,494.7 923.3,494.8 922.6,494.9 922,495.1 921.3,495.4 
	920.6,495.6 920,495.9 919.3,496.2 918.7,496.6 918.2,497 917.6,497.4 917,497.8 916.5,498.3 916,498.8 915.5,499.3 915,499.9 
	914.6,500.4 914.2,501 913.9,501.6 913.5,502.2 913.2,502.9 912.9,503.5 912.7,504.2 912.5,504.9 912.3,505.6 912.2,506.2 
	912.1,507 912,507.7 912,508.4 912,508.7 "/>
<line class="st2" x1="926.2" y1="494.5" x2="1040.2" y2="494.5"/>
<polyline class="st2" points="1054.4,508.7 1054.4,508 1054.3,507.2 1054.3,506.5 1054.1,505.9 1054,505.2 1053.8,504.5 
	1053.6,503.8 1053.3,503.1 1053,502.5 1052.7,501.9 1052.3,501.2 1051.9,500.7 1051.5,500.1 1051.1,499.5 1050.6,499 1050.1,498.5 
	1049.6,498 1049.1,497.6 1048.5,497.1 1047.9,496.7 1047.3,496.4 1046.7,496 1046,495.7 1045.4,495.5 1044.7,495.2 1044,495 
	1043.3,494.8 1042.7,494.7 1042,494.6 1041.2,494.5 1040.5,494.5 1040.2,494.5 "/>
<line class="st2" x1="1054.4" y1="529.9" x2="1054.4" y2="508.7"/>
<line class="st2" x1="1054.4" y1="529.9" x2="1019.3" y2="529.9"/>
<line class="st2" x1="1019.3" y1="534.9" x2="1019.3" y2="529.9"/>
<line class="st2" x1="1018.6" y1="534.9" x2="1019.3" y2="534.9"/>
<line class="st2" x1="1018.6" y1="534.9" x2="1018.6" y2="534.9"/>
<line class="st2" x1="926.2" y1="246.5" x2="1040.2" y2="246.5"/>
<polyline class="st2" points="1054.4,260.6 1054.4,259.9 1054.3,259.2 1054.3,258.5 1054.1,257.8 1054,257.1 1053.8,256.4 
	1053.6,255.8 1053.3,255.1 1053,254.5 1052.7,253.8 1052.3,253.2 1051.9,252.6 1051.5,252 1051.1,251.5 1050.6,251 1050.1,250.5 
	1049.6,250 1049.1,249.5 1048.5,249.1 1047.9,248.7 1047.3,248.3 1046.7,248 1046,247.7 1045.4,247.4 1044.7,247.2 1044,247 
	1043.3,246.8 1042.7,246.7 1042,246.6 1041.2,246.5 1040.5,246.5 1040.2,246.5 "/>
<line class="st2" x1="1054.4" y1="281.9" x2="1054.4" y2="260.6"/>
<line class="st2" x1="1054.4" y1="281.9" x2="1019.3" y2="281.9"/>
<line class="st2" x1="1019.3" y1="286.9" x2="1019.3" y2="281.9"/>
<line class="st2" x1="1018.6" y1="286.9" x2="1019.3" y2="286.9"/>
<line class="st2" x1="947" y1="286.9" x2="947.8" y2="286.9"/>
<line class="st2" x1="947" y1="281.9" x2="947" y2="286.9"/>
<line class="st2" x1="912" y1="281.9" x2="947" y2="281.9"/>
<line class="st2" x1="912" y1="260.6" x2="912" y2="281.9"/>
<polyline class="st2" points="926.2,246.5 925.4,246.5 924.7,246.5 924,246.6 923.3,246.7 922.6,246.9 922,247.1 921.3,247.3 
	920.6,247.6 920,247.9 919.3,248.2 918.7,248.5 918.2,248.9 917.6,249.3 917,249.8 916.5,250.3 916,250.8 915.5,251.3 915,251.8 
	914.6,252.4 914.2,253 913.9,253.6 913.5,254.2 913.2,254.8 912.9,255.5 912.7,256.2 912.5,256.8 912.3,257.5 912.2,258.2 
	912.1,258.9 912,259.6 912,260.3 912,260.6 "/>
<polyline class="st2" points="1019.7,150.8 1019.4,150.2 1019,149.6 1018.6,149 1018.2,148.4 1017.8,147.8 1017.4,147.2 1017,146.7 
	1016.5,146.1 1016.1,145.6 1015.6,145 1015.1,144.5 1014.6,144 1014.2,143.5 1013.6,143 1013.1,142.5 1012.6,142 1012.1,141.6 
	1011.5,141.1 1011,140.7 1010.4,140.2 1009.8,139.8 1009.3,139.4 1008.7,139 1008.1,138.6 1007.5,138.2 1006.9,137.9 1006.3,137.5 
	1005.6,137.2 1005,136.9 1004.4,136.5 1003.7,136.2 1003.1,136 1002.4,135.7 1001.8,135.4 1001.1,135.2 1000.4,135 999.8,134.7 
	999.1,134.5 998.4,134.3 997.7,134.2 997,134 996.3,133.8 995.6,133.7 994.9,133.6 994.2,133.5 993.5,133.4 992.8,133.3 
	992.1,133.2 991.4,133.2 990.7,133.1 990,133.1 989.3,133.1 989,133.1 "/>
<polyline class="st2" points="1075,256 1075,255.2 1074.9,254.5 1074.9,253.8 1074.8,253.1 1074.8,252.4 1074.7,251.7 1074.6,251 
	1074.5,250.3 1074.4,249.6 1074.3,248.9 1074.1,248.2 1073.9,247.5 1073.8,246.8 1073.6,246.2 1073.4,245.5 1073.2,244.8 
	1072.9,244.1 1072.7,243.5 1072.4,242.8 1072.2,242.2 1071.9,241.5 1071.6,240.9 1071.3,240.2 1071,239.6 1070.6,239 1070.3,238.3 
	1070.2,238.2 "/>
<polyline class="st2" points="1039.5,572.4 1040.2,572.4 1040.9,572.4 1041.7,572.4 1042.4,572.3 1043.1,572.3 1043.8,572.2 
	1044.5,572.1 1045.2,572 1045.9,571.9 1046.6,571.7 1047.3,571.6 1048,571.4 1048.6,571.2 1049.3,571.1 1050,570.9 1050.7,570.6 
	1051.3,570.4 1052,570.2 1052.7,569.9 1053.3,569.6 1054,569.4 1054.6,569.1 1055.3,568.8 1055.9,568.4 1056.5,568.1 1057.1,567.8 
	1057.8,567.4 1058.4,567 1058.9,566.7 1059.5,566.2 1060.1,565.8 1060.7,565.4 1061.3,565 1061.8,564.6 1062.4,564.1 1062.9,563.7 
	1063.4,563.2 1063.9,562.7 1064.4,562.2 1064.9,561.7 1065.4,561.2 1065.9,560.7 1066.4,560.1 1066.8,559.6 1067.3,559 
	1067.7,558.5 1068.2,557.9 1068.6,557.3 1069,556.8 1069.3,556.2 1069.7,555.6 1070.1,555 1070.4,554.3 1070.8,553.7 1071.1,553.1 
	1071.4,552.5 1071.7,551.8 1072,551.2 1072.3,550.5 1072.6,549.8 1072.8,549.2 1073.1,548.5 1073.3,547.8 1073.5,547.2 
	1073.7,546.5 1073.9,545.8 1074,545.1 1074.2,544.4 1074.3,543.7 1074.4,543 1074.6,542.3 1074.7,541.6 1074.8,540.9 1074.8,540.2 
	1074.9,539.5 1074.9,538.8 1074.9,538.1 1075,537.4 1075,537 "/>
<line class="st2" x1="1019.7" y1="150.8" x2="1070.2" y2="238.2"/>
<line class="st2" x1="1018.6" y1="286.9" x2="1018.6" y2="286.8"/>
<line class="st2" x1="947.8" y1="286.8" x2="947.8" y2="286.9"/>
<line class="st2" x1="1075" y1="537" x2="1075" y2="256"/>
<line class="st3" x1="947.8" y1="286.8" x2="1018.6" y2="286.8"/>
<line class="st2" x1="1039.5" y1="572.4" x2="904.2" y2="572.4"/>
<line class="st2" x1="904.2" y1="133.1" x2="989" y2="133.1"/>
<line class="st3" x1="904.2" y1="133.1" x2="904.2" y2="572.4"/>
<line class="st2" x1="904.2" y1="572.4" x2="899.2" y2="572.4"/>
<line class="st2" x1="904.2" y1="133.1" x2="899.2" y2="133.1"/>
<line class="st2" x1="899.2" y1="133.1" x2="899.2" y2="572.4"/>
<polyline class="st2" points="147.2,601.7 146.6,601.5 146,601.4 145.3,601.3 144.7,601.2 144,601.2 143.3,601.2 142.6,601.2 
	141.9,601.2 141.2,601.3 140.5,601.4 139.9,601.6 139.2,601.7 138.7,601.9 138.1,602.2 137.9,602.2 "/>
<line class="st2" x1="137.9" y1="602.2" x2="99.1" y2="621.2"/>
<polyline class="st2" points="99.1,621.2 98.6,621.5 98.2,621.7 97.9,622 97.6,622.3 97.4,622.6 97.2,622.9 97.1,623.2 97.1,623.4 
	"/>
<polyline class="st2" points="97.1,623.4 97.2,623.8 97.3,624.1 97.5,624.4 97.7,624.6 98,624.9 98.4,625.2 98.8,625.4 99.3,625.6 
	99.4,625.7 "/>
<polyline class="st2" points="97.2,625.3 97.2,625.7 97.3,626 97.5,626.3 97.8,626.6 98.1,626.8 98.4,627.1 98.9,627.3 99.4,627.6 
	99.4,627.6 "/>
<line class="st3" x1="99.4" y1="627.6" x2="99.4" y2="625.7"/>
<line class="st2" x1="99.4" y1="627.6" x2="116.8" y2="634.6"/>
<line class="st2" x1="99.4" y1="625.7" x2="116.9" y2="632.7"/>
<line class="st3" x1="147.6" y1="617.7" x2="116.9" y2="632.7"/>
<polyline class="st2" points="131.5,616.4 131.4,616.1 130.9,615.9 130.2,615.8 129.6,615.8 129,616 128.7,616.3 128.7,616.4 "/>
<polyline class="st2" points="129.1,616.9 129.7,617 130.4,617 131,616.9 131.4,616.6 131.5,616.4 "/>
<polyline class="st2" points="128.7,616.4 128.9,616.7 129.1,616.9 "/>
<line class="st2" x1="133.3" y1="380" x2="94.4" y2="399"/>
<polyline class="st2" points="143.3,379.7 142.8,379.6 142.2,379.4 141.6,379.2 140.9,379.1 140.2,379 139.5,379 138.8,379 
	138.1,379 137.4,379 136.7,379.1 136.1,379.2 135.4,379.3 134.8,379.5 134.2,379.7 133.6,379.9 133.3,380 "/>
<polyline class="st2" points="126.8,394.2 126.7,393.9 126.2,393.7 125.6,393.6 124.9,393.6 124.3,393.8 124,394.1 124,394.2 "/>
<polyline class="st2" points="124.5,394.7 125.1,394.8 125.8,394.8 126.4,394.7 126.8,394.4 126.8,394.2 "/>
<polyline class="st2" points="124,394.2 124.2,394.5 124.5,394.7 "/>
<line class="st2" x1="157.6" y1="385.5" x2="143.3" y2="379.7"/>
<line class="st3" x1="94.7" y1="405.4" x2="94.7" y2="403.5"/>
<line class="st2" x1="94.7" y1="405.4" x2="112.2" y2="412.4"/>
<line class="st2" x1="94.7" y1="403.5" x2="112.2" y2="410.5"/>
<line class="st3" x1="156.4" y1="389" x2="112.2" y2="410.5"/>
<polyline class="st2" points="94.4,399 93.9,399.3 93.5,399.5 93.2,399.8 92.9,400.1 92.7,400.4 92.5,400.7 92.5,401 92.5,401.2 "/>
<polyline class="st2" points="92.5,401.2 92.5,401.5 92.6,401.9 92.8,402.2 93,402.4 93.3,402.7 93.7,403 94.2,403.2 94.7,403.4 
	94.7,403.5 "/>
<polyline class="st2" points="92.5,403.1 92.5,403.5 92.7,403.8 92.8,404.1 93.1,404.4 93.4,404.6 93.8,404.9 94.2,405.1 
	94.7,405.4 94.7,405.4 "/>
<polyline class="st2" points="120.6,638.6 120.5,638 120.4,637.3 120.2,636.6 120.1,636.2 "/>
<polyline class="st2" points="118.5,633.8 118,633.4 117.5,633 117,632.7 116.9,632.7 "/>
<polyline class="st2" points="115.9,416.4 115.9,415.8 115.7,415.1 115.6,414.4 115.4,414 "/>
<polyline class="st2" points="113.8,411.6 113.3,411.2 112.8,410.8 112.3,410.5 112.2,410.5 "/>
<line class="st3" x1="147.7" y1="625.4" x2="120.6" y2="638.6"/>
<line class="st3" x1="153.2" y1="398.2" x2="115.9" y2="416.4"/>
<line class="st2" x1="147" y1="589.2" x2="105" y2="609.7"/>
<polyline class="st2" points="105,609.7 104.5,609.9 104,610.2 103.6,610.5 103.1,610.9 102.6,611.2 102.1,611.6 101.7,612.1 
	101.2,612.5 100.8,613 100.4,613.5 100,614 99.6,614.6 99.2,615.1 98.8,615.7 98.4,616.3 98.1,616.9 97.8,617.5 97.5,618.2 
	97.2,618.8 96.9,619.5 96.7,620.1 96.5,620.8 96.3,621.5 96.1,622.2 96,622.8 95.8,623.5 95.7,624.2 95.6,624.9 95.6,625.5 
	95.6,626.2 95.5,626.8 95.6,627.1 "/>
<line class="st2" x1="95.9" y1="646.1" x2="95.6" y2="627.1"/>
<line class="st2" x1="95.9" y1="646.1" x2="120" y2="634.4"/>
<line class="st2" x1="118.5" y1="633.8" x2="120" y2="634.4"/>
<line class="st2" x1="95.9" y1="644.8" x2="118.5" y2="633.8"/>
<line class="st2" x1="120.1" y1="638.9" x2="120" y2="634.4"/>
<line class="st2" x1="120.6" y1="638.6" x2="120.1" y2="638.9"/>
<line class="st2" x1="120.1" y1="638.4" x2="120.6" y2="638.6"/>
<line class="st2" x1="120.6" y1="638.6" x2="120.6" y2="638.6"/>
<line class="st2" x1="168.4" y1="354.3" x2="100.3" y2="387.5"/>
<polyline class="st2" points="100.3,387.5 99.8,387.7 99.4,388 98.9,388.3 98.4,388.7 97.9,389 97.5,389.4 97,389.9 96.6,390.3 
	96.1,390.8 95.7,391.3 95.3,391.8 94.9,392.4 94.5,392.9 94.1,393.5 93.8,394.1 93.4,394.7 93.1,395.3 92.8,396 92.5,396.6 
	92.3,397.3 92,397.9 91.8,398.6 91.6,399.3 91.4,400 91.3,400.6 91.2,401.3 91.1,402 91,402.7 90.9,403.3 90.9,404 90.9,404.6 
	90.9,404.9 "/>
<line class="st2" x1="91.3" y1="423.9" x2="90.9" y2="404.9"/>
<line class="st2" x1="91.3" y1="423.9" x2="115.3" y2="412.2"/>
<line class="st2" x1="113.8" y1="411.6" x2="115.3" y2="412.2"/>
<line class="st2" x1="91.2" y1="422.6" x2="113.8" y2="411.6"/>
<line class="st2" x1="115.4" y1="416.7" x2="115.3" y2="412.2"/>
<line class="st2" x1="115.9" y1="416.4" x2="115.4" y2="416.7"/>
<line class="st2" x1="115.4" y1="416.2" x2="115.9" y2="416.4"/>
<polyline class="st2" points="133.3,268.8 132.8,269 132.3,269.2 131.9,269.5 131.4,269.8 130.9,270.1 130.4,270.4 129.9,270.7 
	129.4,271 129,271.4 128.5,271.7 128,272.1 127.6,272.5 127.1,272.9 126.6,273.3 126.2,273.7 125.7,274.1 125.2,274.5 124.8,275 
	124.3,275.4 123.9,275.9 123.5,276.3 123,276.8 122.6,277.3 122.2,277.8 121.7,278.3 121.3,278.8 120.9,279.4 120.5,279.9 
	120.1,280.4 119.7,281 119.3,281.5 118.9,282.1 118.6,282.7 118.2,283.3 117.8,283.9 117.4,284.4 117.1,285 116.8,285.7 
	116.4,286.3 116.1,286.9 115.8,287.5 115.4,288.1 115.1,288.8 114.8,289.4 114.5,290 114.2,290.7 114,291.3 113.7,292 113.4,292.7 
	113.2,293.3 112.9,294 112.7,294.6 112.6,294.9 "/>
<line class="st3" x1="131.8" y1="268.1" x2="133.3" y2="268.8"/>
<polyline class="st2" points="131.8,268.1 131.3,268.4 130.8,268.6 130.3,268.9 129.8,269.2 129.3,269.5 128.9,269.8 128.4,270.1 
	127.9,270.4 127.4,270.8 126.9,271.1 126.5,271.5 126,271.9 125.5,272.2 125.1,272.6 124.6,273 124.2,273.5 123.7,273.9 
	123.2,274.3 122.8,274.8 122.3,275.2 121.9,275.7 121.5,276.2 121,276.7 120.6,277.2 120.2,277.7 119.8,278.2 119.4,278.7 
	119,279.3 118.6,279.8 118.2,280.4 117.8,280.9 117.4,281.5 117,282.1 116.6,282.6 116.3,283.2 115.9,283.8 115.6,284.4 115.2,285 
	114.9,285.6 114.5,286.3 114.2,286.9 113.9,287.5 113.6,288.1 113.3,288.8 113,289.4 112.7,290.1 112.4,290.7 112.1,291.4 
	111.9,292 111.6,292.7 111.4,293.4 111.1,294 111.1,294.3 "/>
<line class="st3" x1="112.6" y1="294.9" x2="111.1" y2="294.3"/>
<polyline class="st2" points="79.6,390.1 79.4,390.8 79.2,391.5 78.9,392.1 78.8,392.8 78.6,393.5 78.4,394.2 78.2,394.8 78,395.5 
	77.9,396.2 77.7,396.9 77.6,397.6 77.5,398.2 77.3,398.9 77.2,399.6 77.1,400.2 77.1,400.9 77,401.6 76.9,402.2 76.8,402.9 
	76.8,403.6 76.8,404.2 76.7,404.9 76.7,405.5 76.7,406.2 76.7,406.8 76.7,407.5 76.7,407.6 "/>
<line class="st3" x1="79.6" y1="390.1" x2="78.1" y2="389.5"/>
<polyline class="st2" points="78.1,389.5 77.8,390.2 77.6,390.8 77.4,391.5 77.2,392.2 77,392.9 76.8,393.5 76.7,394.2 76.5,394.9 
	76.3,395.6 76.2,396.2 76.1,396.9 75.9,397.6 75.8,398.3 75.7,399 75.6,399.6 75.5,400.3 75.4,401 75.3,401.6 75.3,402.3 75.2,403 
	75.2,403.6 75.2,404.3 75.2,404.9 75.1,405.6 75.1,406.2 75.1,406.8 75.1,407 "/>
<line class="st3" x1="76.7" y1="407.6" x2="75.1" y2="407"/>
<polyline class="st2" points="93.1,680.4 93.5,680.5 93.9,680.7 94.3,680.8 94.8,680.9 95.2,681 95.6,681.1 96.1,681.2 96.5,681.3 
	96.9,681.3 97.4,681.4 97.8,681.4 98.3,681.4 98.8,681.4 99.2,681.4 99.7,681.3 100.2,681.3 100.6,681.2 101.1,681.2 101.6,681.1 
	102.1,681 102.5,680.9 103,680.8 103.5,680.6 104,680.5 104.5,680.3 105,680.1 105.4,679.9 105.9,679.7 106.4,679.5 106.9,679.3 
	107,679.2 "/>
<polyline class="st2" points="82,659.4 82,660 82,660.6 82.1,661.2 82.1,661.9 82.2,662.5 82.2,663.1 82.3,663.7 82.4,664.3 
	82.5,664.9 82.6,665.4 82.7,666 82.8,666.6 83,667.1 83.1,667.7 83.3,668.2 83.4,668.8 83.6,669.3 83.8,669.8 84,670.3 84.2,670.8 
	84.4,671.3 84.6,671.8 84.8,672.2 85,672.7 85.3,673.1 85.5,673.6 85.8,674 86.1,674.4 86.3,674.8 86.6,675.2 86.9,675.6 87.2,676 
	87.5,676.3 87.8,676.7 88.1,677 88.5,677.4 88.8,677.7 89.1,678 89.5,678.3 89.8,678.5 90.2,678.8 90.6,679.1 90.9,679.3 
	91.3,679.5 91.7,679.7 92.1,680 92.5,680.1 92.9,680.3 93.1,680.4 "/>
<line class="st3" x1="82" y1="659.4" x2="80.4" y2="658.7"/>
<polyline class="st2" points="80.4,658.7 80.4,659.4 80.5,660 80.5,660.6 80.6,661.2 80.6,661.9 80.7,662.5 80.8,663.1 80.8,663.7 
	80.9,664.2 81.1,664.8 81.2,665.4 81.3,666 81.4,666.5 81.6,667.1 81.7,667.6 81.9,668.1 82.1,668.7 82.2,669.2 82.4,669.7 
	82.6,670.2 82.8,670.7 83,671.1 83.3,671.6 83.5,672.1 83.7,672.5 84,673 84.2,673.4 84.5,673.8 84.8,674.2 85.1,674.6 85.3,675 
	85.7,675.4 85.9,675.7 86.3,676.1 86.6,676.4 86.9,676.7 87.2,677.1 87.6,677.4 87.9,677.6 88.3,677.9 88.7,678.2 89,678.4 
	89.4,678.7 89.8,678.9 90.2,679.1 90.6,679.3 90.9,679.5 91.3,679.7 91.5,679.8 "/>
<line class="st2" x1="112.6" y1="294.9" x2="79.6" y2="390.1"/>
<line class="st2" x1="111.1" y1="294.3" x2="78.1" y2="389.5"/>
<line class="st2" x1="115.9" y1="416.4" x2="115.9" y2="416.4"/>
<line class="st2" x1="82" y1="659.4" x2="76.7" y2="407.6"/>
<line class="st2" x1="80.4" y1="658.7" x2="75.1" y2="407"/>
<line class="st2" x1="107" y1="679.2" x2="148.4" y2="659"/>
<line class="st2" x1="164.4" y1="651.2" x2="199.8" y2="634"/>
<line class="st2" x1="191.5" y1="240.3" x2="133.3" y2="268.8"/>
<line class="st2" x1="190" y1="239.7" x2="131.8" y2="268.1"/>
<line class="st3" x1="191.5" y1="240.3" x2="192.8" y2="301"/>
<line class="st3" x1="194.9" y1="402.3" x2="195.6" y2="434.8"/>
<line class="st3" x1="199.6" y1="624.5" x2="199.8" y2="634"/>
<polyline class="st2" points="203.8,633.8 203.3,633.7 202.6,633.6 201.9,633.5 201.2,633.6 200.6,633.7 200,633.9 199.8,634 "/>
<polyline class="st2" points="195.6,240.2 195,240 194.3,239.9 193.6,239.9 192.9,240 192.3,240.1 191.7,240.3 191.5,240.3 "/>
<polyline class="st2" points="197,239.5 196.5,239.3 195.9,239.2 195.2,239.1 194.5,239 193.8,239 193.1,239 192.4,239.1 
	191.7,239.2 191.1,239.3 190.5,239.5 190,239.7 190,239.7 "/>
<line class="st3" x1="195.6" y1="240.2" x2="196.8" y2="297.8"/>
<line class="st3" x1="198.9" y1="400.4" x2="199.6" y2="432.9"/>
<line class="st3" x1="203.6" y1="622.6" x2="203.8" y2="633.8"/>
<polyline class="st2" points="257.6,650.3 258,650.1 258.4,649.8 258.8,649.5 259.1,649.2 259.3,648.9 259.4,648.6 259.5,648.3 
	259.5,648.1 "/>
<polyline class="st2" points="259.5,648.1 259.5,647.8 259.4,647.5 259.2,647.2 258.9,646.9 258.6,646.6 258.2,646.4 257.8,646.1 
	257.3,645.9 257.3,645.9 "/>
<line class="st3" x1="257.6" y1="652.2" x2="257.6" y2="650.3"/>
<polyline class="st2" points="257.6,652.2 258.1,652 258.5,651.7 258.8,651.4 259.1,651.1 259.3,650.8 259.5,650.5 259.5,650.2 
	259.5,650 "/>
<polyline class="st2" points="227.9,655.1 227.8,654.8 227.3,654.6 226.7,654.5 226,654.6 225.4,654.8 225.1,655.1 225.1,655.2 "/>
<polyline class="st2" points="225.6,655.6 226.2,655.8 226.9,655.8 227.5,655.6 227.9,655.4 227.9,655.1 "/>
<polyline class="st2" points="208.7,669.6 209.2,669.8 209.8,670 210.4,670.1 211.1,670.2 211.7,670.3 212.4,670.4 213.1,670.4 
	213.8,670.4 214.5,670.3 215.2,670.2 215.9,670.2 216.6,670 217.2,669.9 217.8,669.7 218.3,669.5 218.7,669.3 "/>
<line class="st3" x1="208.7" y1="669.6" x2="208.7" y2="671.5"/>
<polyline class="st2" points="208.7,671.5 209.2,671.7 209.8,671.9 210.4,672 211.1,672.1 211.8,672.2 212.5,672.2 213.2,672.3 
	213.9,672.3 214.6,672.2 215.3,672.2 215.9,672.1 216.6,671.9 217.2,671.8 217.8,671.6 218.4,671.4 218.7,671.2 "/>
<line class="st3" x1="218.7" y1="669.3" x2="218.7" y2="671.2"/>
<polyline class="st2" points="225.1,655.2 225.3,655.5 225.6,655.6 "/>
<line class="st2" x1="257.6" y1="650.3" x2="218.7" y2="669.3"/>
<line class="st2" x1="257.6" y1="652.2" x2="218.7" y2="671.2"/>
<line class="st2" x1="257.3" y1="645.9" x2="239.8" y2="638.8"/>
<line class="st2" x1="191.1" y1="662.6" x2="208.7" y2="669.6"/>
<line class="st2" x1="191.2" y1="664.5" x2="208.7" y2="671.5"/>
<polyline class="st2" points="247.1,384.6 246.8,384.9 246.6,385.5 246.8,386.1 247.2,386.7 247.6,387.1 248.1,387.2 248.3,387.1 
	"/>
<polyline class="st2" points="248.7,386.2 248.6,385.6 248.2,385 247.8,384.6 247.3,384.5 247.1,384.6 "/>
<polyline class="st2" points="248.3,387.1 248.6,386.8 248.7,386.2 "/>
<polyline class="st2" points="248.1,384.9 248.3,385.5 248.7,386.1 "/>
<polyline class="st2" points="251.7,606.8 251.4,607.1 251.3,607.7 251.5,608.3 251.8,608.9 252.3,609.3 252.8,609.4 253,609.3 "/>
<polyline class="st2" points="253.4,608.4 253.3,607.8 252.9,607.2 252.4,606.8 251.9,606.7 251.7,606.8 "/>
<polyline class="st2" points="253,609.3 253.3,609 253.4,608.4 "/>
<polyline class="st2" points="252.8,607.1 253,607.7 253.4,608.3 "/>
<line class="st2" x1="228" y1="643.6" x2="203.8" y2="633.8"/>
<line class="st2" x1="197" y1="239.5" x2="228.5" y2="252.2"/>
<line class="st2" x1="195.6" y1="240.2" x2="227" y2="252.9"/>
<line class="st2" x1="258.5" y1="265.5" x2="227" y2="252.9"/>
<line class="st2" x1="259.9" y1="264.8" x2="228.5" y2="252.2"/>
<line class="st3" x1="191.1" y1="662.6" x2="239.8" y2="638.8"/>
<line class="st3" x1="258.5" y1="265.5" x2="258.5" y2="267.3"/>
<polyline class="st2" points="239.8,638.8 239.2,638.7 238.7,638.6 238.3,638.6 237.8,638.8 237.7,638.8 "/>
<polyline class="st2" points="190,664.4 189.6,664.7 189.4,665.1 189.2,665.7 189.2,666.2 "/>
<polyline class="st2" points="191.2,664.5 190.7,664.3 190.2,664.4 190,664.4 "/>
<polyline class="st2" points="189.1,662.5 188.7,662.8 188.6,662.8 "/>
<polyline class="st2" points="191.1,662.6 190.6,662.4 190.1,662.3 189.6,662.4 189.2,662.5 189.1,662.5 "/>
<polyline class="st2" points="268.4,661.5 268.8,661.3 269.2,661 269.5,660.7 269.7,660.4 269.7,660.1 269.8,660 "/>
<polyline class="st2" points="258.6,267.3 259,267 259.2,266.7 259.3,266.4 259.3,266.4 "/>
<polyline class="st2" points="259.3,266.4 259.2,266.1 259,265.8 258.6,265.6 258.5,265.5 "/>
<polyline class="st2" points="260.1,267.9 260.6,267.7 260.9,267.4 261.2,267.1 261.4,266.8 261.5,266.5 261.5,266.4 "/>
<polyline class="st2" points="261.5,266.4 261.4,266 261.2,265.7 261,265.5 260.6,265.2 260.2,264.9 259.9,264.8 "/>
<line class="st2" x1="189.2" y1="666.2" x2="188.7" y2="666"/>
<line class="st2" x1="189.2" y1="666.2" x2="189.2" y2="666.2"/>
<line class="st2" x1="189.2" y1="666.2" x2="188.7" y2="666.4"/>
<line class="st2" x1="188.6" y1="662" x2="187" y2="661.3"/>
<line class="st2" x1="188.7" y1="666.4" x2="188.6" y2="662"/>
<line class="st2" x1="164.5" y1="672.3" x2="187" y2="661.3"/>
<line class="st2" x1="164.5" y1="673.7" x2="188.6" y2="662"/>
<line class="st2" x1="164.5" y1="673.7" x2="164.1" y2="654.7"/>
<polyline class="st2" points="173.6,637.2 173.1,637.5 172.6,637.8 172.1,638.1 171.6,638.4 171.2,638.8 170.7,639.2 170.3,639.6 
	169.8,640.1 169.4,640.5 168.9,641.1 168.5,641.6 168.1,642.1 167.8,642.7 167.4,643.3 167,643.9 166.7,644.5 166.4,645.1 
	166.1,645.7 165.8,646.4 165.5,647 165.3,647.7 165.1,648.4 164.9,649.1 164.7,649.7 164.5,650.4 164.4,651.1 164.3,651.8 
	164.2,652.4 164.2,653.1 164.1,653.7 164.1,654.4 164.1,654.7 "/>
<line class="st2" x1="251.9" y1="599" x2="173.6" y2="637.2"/>
<polyline class="st2" points="260.3,606.4 260.3,605.8 260.2,605.1 260.1,604.5 260,604 259.9,603.4 259.8,602.8 259.6,602.3 
	259.4,601.8 259.2,601.3 259,600.9 258.7,600.4 258.4,600 258.1,599.7 257.8,599.3 257.5,599 257.1,598.7 256.8,598.5 256.6,598.3 
	"/>
<line class="st3" x1="260.3" y1="606.4" x2="261.8" y2="607"/>
<polyline class="st2" points="261.8,607 261.8,606.4 261.8,605.8 261.7,605.2 261.6,604.6 261.5,604 261.3,603.5 261.1,602.9 
	261,602.4 260.8,602 260.5,601.5 260.3,601.1 260,600.7 259.7,600.3 259.4,599.9 259,599.6 258.7,599.3 258.3,599.1 258,598.9 
	257.5,598.7 257.4,598.6 "/>
<polyline class="st2" points="257.4,598.6 257,598.4 256.6,598.3 256.1,598.2 255.7,598.2 255.2,598.2 254.8,598.2 254.3,598.3 
	253.8,598.4 253.3,598.5 252.8,598.6 252.4,598.8 251.9,599 251.9,599 "/>
<line class="st2" x1="260.3" y1="606.4" x2="260.7" y2="625.4"/>
<line class="st2" x1="262.2" y1="626" x2="260.7" y2="625.4"/>
<line class="st2" x1="261.8" y1="607" x2="262.2" y2="626"/>
<line class="st2" x1="260.7" y1="625.4" x2="236.6" y2="637.2"/>
<line class="st2" x1="238.2" y1="637.8" x2="236.6" y2="637.2"/>
<line class="st2" x1="262.2" y1="626" x2="238.2" y2="637.8"/>
<line class="st2" x1="236.6" y1="637.2" x2="236.7" y2="639.3"/>
<line class="st2" x1="238.2" y1="637.8" x2="238.2" y2="638.7"/>
<line class="st2" x1="149" y1="686.3" x2="143.7" y2="434.5"/>
<line class="st3" x1="149" y1="686.3" x2="150.6" y2="686.9"/>
<line class="st2" x1="150.6" y1="686.9" x2="145.3" y2="435.1"/>
<line class="st3" x1="143.7" y1="434.5" x2="145.3" y2="435.1"/>
<polyline class="st2" points="149,686.3 149,686.9 149.1,687.6 149.1,688.2 149.1,688.8 149.2,689.4 149.3,690 149.3,690.6 
	149.4,691.2 149.5,691.8 149.6,692.4 149.7,693 149.9,693.5 150,694.1 150.1,694.6 150.3,695.2 150.4,695.7 150.6,696.2 
	150.8,696.7 151,697.2 151.2,697.7 151.4,698.2 151.6,698.7 151.8,699.2 152.1,699.6 152.3,700.1 152.6,700.5 152.8,700.9 
	153.1,701.4 153.4,701.8 153.6,702.2 153.9,702.5 154.2,702.9 154.5,703.3 154.8,703.6 155.1,704 155.5,704.3 155.8,704.6 
	156.2,704.9 156.5,705.2 156.9,705.5 157.2,705.8 157.6,706 158,706.2 158.3,706.5 158.7,706.7 159.1,706.9 159.5,707.1 
	159.9,707.2 160.1,707.3 "/>
<polyline class="st2" points="150.6,686.9 150.6,687.6 150.6,688.2 150.6,688.8 150.7,689.4 150.7,690 150.8,690.6 150.9,691.2 
	151,691.8 151.1,692.4 151.2,693 151.3,693.6 151.4,694.1 151.5,694.7 151.7,695.2 151.8,695.8 152,696.3 152.2,696.8 152.4,697.4 
	152.5,697.9 152.7,698.4 152.9,698.8 153.1,699.3 153.4,699.8 153.6,700.2 153.9,700.7 154.1,701.1 154.4,701.6 154.6,702 
	154.9,702.4 155.2,702.8 155.5,703.2 155.8,703.5 156.1,703.9 156.4,704.2 156.7,704.6 157,704.9 157.4,705.2 157.7,705.5 
	158.1,705.8 158.4,706.1 158.8,706.4 159.1,706.6 159.5,706.9 159.9,707.1 160.3,707.3 160.7,707.5 161.1,707.7 161.5,707.9 
	161.6,708 "/>
<polyline class="st2" points="161.6,708 162.1,708.1 162.5,708.2 162.9,708.4 163.3,708.5 163.8,708.6 164.2,708.7 164.6,708.8 
	165.1,708.8 165.5,708.9 166,708.9 166.4,709 166.9,709 167.3,709 167.8,708.9 168.3,708.9 168.7,708.9 169.2,708.8 169.7,708.7 
	170.2,708.7 170.6,708.6 171.1,708.4 171.6,708.3 172.1,708.2 172.6,708 173.1,707.9 173.5,707.7 174,707.5 174.5,707.3 175,707.1 
	175.5,706.8 175.5,706.8 "/>
<polyline class="st2" points="255.6,384.2 255.6,383.6 255.5,382.9 255.5,382.3 255.4,381.8 255.2,381.2 255.1,380.6 254.9,380.1 
	254.7,379.6 254.5,379.1 254.3,378.7 254,378.2 253.8,377.8 253.5,377.5 253.2,377.1 252.8,376.8 252.5,376.5 252.1,376.2 
	251.9,376.1 "/>
<line class="st3" x1="255.6" y1="384.2" x2="257.2" y2="384.8"/>
<polyline class="st2" points="257.2,384.8 257.1,384.2 257.1,383.6 257,383 256.9,382.4 256.8,381.8 256.6,381.3 256.5,380.7 
	256.3,380.2 256.1,379.8 255.8,379.3 255.6,378.9 255.3,378.5 255,378.1 254.7,377.7 254.4,377.4 254,377.1 253.7,376.9 
	253.3,376.7 252.9,376.5 252.7,376.4 "/>
<polyline class="st2" points="252.7,376.4 252.3,376.2 251.9,376.1 251.4,376.1 251,376 250.5,376 250.1,376 249.6,376.1 
	249.1,376.2 248.6,376.3 248.2,376.4 247.7,376.6 247.2,376.8 247.2,376.8 "/>
<line class="st2" x1="255.6" y1="384.2" x2="256" y2="403.2"/>
<line class="st2" x1="257.6" y1="403.8" x2="256" y2="403.2"/>
<line class="st2" x1="257.2" y1="384.8" x2="257.6" y2="403.8"/>
<line class="st2" x1="256" y1="403.2" x2="231.9" y2="415"/>
<line class="st2" x1="233.5" y1="415.6" x2="231.9" y2="415"/>
<line class="st2" x1="257.6" y1="403.8" x2="233.5" y2="415.6"/>
<line class="st2" x1="231.9" y1="415" x2="232" y2="417.1"/>
<line class="st2" x1="233.5" y1="415.6" x2="233.5" y2="416.4"/>
<line class="st2" x1="183.9" y1="439.8" x2="182.4" y2="439.1"/>
<line class="st2" x1="184" y1="444.2" x2="183.9" y2="439.8"/>
<line class="st2" x1="159.8" y1="450.1" x2="182.4" y2="439.1"/>
<line class="st2" x1="159.9" y1="451.5" x2="183.9" y2="439.8"/>
<line class="st2" x1="159.9" y1="451.5" x2="159.4" y2="432.5"/>
<polyline class="st2" points="168.9,415 168.4,415.3 167.9,415.6 167.4,415.9 167,416.2 166.5,416.6 166,417 165.6,417.4 
	165.1,417.9 164.7,418.3 164.3,418.8 163.9,419.4 163.5,419.9 163.1,420.5 162.7,421.1 162.4,421.7 162,422.3 161.7,422.9 
	161.4,423.5 161.1,424.2 160.8,424.8 160.6,425.5 160.4,426.2 160.2,426.9 160,427.5 159.9,428.2 159.7,428.9 159.6,429.6 
	159.5,430.2 159.5,430.9 159.4,431.5 159.4,432.2 159.4,432.5 "/>
<line class="st2" x1="247.2" y1="376.8" x2="168.9" y2="415"/>
<polyline class="st2" points="200.3,295.7 199.9,295.9 199.4,296.2 198.9,296.5 198.4,296.7 197.9,297 197.4,297.3 196.9,297.7 
	196.5,298 196,298.3 195.5,298.7 195.1,299 194.6,299.4 194.1,299.8 193.6,300.2 193.2,300.6 192.7,301 192.3,301.5 191.8,301.9 
	191.4,302.4 190.9,302.8 190.5,303.3 190.1,303.8 189.6,304.2 189.2,304.8 188.8,305.3 188.4,305.8 187.9,306.3 187.5,306.8 
	187.1,307.4 186.7,307.9 186.3,308.5 185.9,309 185.6,309.6 185.2,310.2 184.8,310.8 184.5,311.4 184.1,312 183.8,312.6 
	183.4,313.2 183.1,313.8 182.8,314.4 182.5,315.1 182.1,315.7 181.9,316.3 181.6,317 181.3,317.6 181,318.3 180.7,318.9 
	180.4,319.6 180.2,320.3 179.9,320.9 179.7,321.6 179.6,321.8 "/>
<line class="st3" x1="179.6" y1="321.8" x2="181.2" y2="322.5"/>
<polyline class="st2" points="201.9,296.3 201.4,296.5 200.9,296.8 200.4,297.1 199.9,297.4 199.5,297.7 199,298 198.5,298.3 
	198,298.6 197.5,299 197.1,299.3 196.6,299.7 196.1,300 195.7,300.4 195.2,300.8 194.7,301.2 194.3,301.7 193.8,302.1 193.4,302.5 
	192.9,303 192.5,303.4 192,303.9 191.6,304.4 191.2,304.9 190.7,305.4 190.3,305.9 189.9,306.4 189.5,306.9 189.1,307.5 188.7,308 
	188.3,308.5 187.9,309.1 187.5,309.7 187.1,310.2 186.8,310.8 186.4,311.4 186,312 185.7,312.6 185.3,313.2 185,313.8 184.6,314.4 
	184.3,315.1 184,315.7 183.7,316.3 183.4,317 183.1,317.6 182.8,318.2 182.5,318.9 182.3,319.6 182,320.2 181.7,320.9 181.5,321.5 
	181.2,322.2 181.2,322.5 "/>
<line class="st3" x1="200.3" y1="295.7" x2="201.9" y2="296.3"/>
<line class="st2" x1="179.6" y1="321.8" x2="146.6" y2="417.1"/>
<line class="st3" x1="146.6" y1="417.1" x2="148.2" y2="417.7"/>
<line class="st2" x1="181.2" y1="322.5" x2="148.2" y2="417.7"/>
<polyline class="st2" points="146.6,417.1 146.4,417.7 146.2,418.4 146,419.1 145.8,419.8 145.6,420.4 145.4,421.1 145.2,421.8 
	145.1,422.5 144.9,423.1 144.8,423.8 144.6,424.5 144.5,425.2 144.4,425.8 144.3,426.5 144.2,427.2 144.1,427.9 144,428.5 
	143.9,429.2 143.9,429.9 143.8,430.5 143.8,431.2 143.7,431.8 143.7,432.5 143.7,433.1 143.7,433.8 143.7,434.4 143.7,434.5 "/>
<polyline class="st2" points="148.2,417.7 147.9,418.4 147.7,419 147.5,419.7 147.3,420.4 147.1,421.1 146.9,421.7 146.8,422.4 
	146.6,423.1 146.4,423.8 146.3,424.4 146.2,425.1 146,425.8 145.9,426.5 145.8,427.1 145.7,427.8 145.6,428.5 145.5,429.2 
	145.5,429.8 145.4,430.5 145.4,431.1 145.3,431.8 145.3,432.5 145.3,433.1 145.2,433.8 145.2,434.4 145.3,435 145.3,435.1 "/>
<line class="st3" x1="189.2" y1="666.2" x2="192" y2="664.8"/>
<line class="st2" x1="260.1" y1="267.9" x2="201.9" y2="296.3"/>
<line class="st2" x1="258.6" y1="267.3" x2="200.3" y2="295.7"/>
<line class="st2" x1="175.5" y1="706.8" x2="268.4" y2="661.5"/>
<line class="st3" x1="260.1" y1="267.9" x2="268.4" y2="661.5"/>
<polyline class="st2" points="223.3,432.9 223.1,432.6 222.6,432.4 222,432.3 221.3,432.4 220.8,432.6 220.5,432.9 220.4,433 "/>
<polyline class="st2" points="220.9,433.4 221.5,433.6 222.2,433.6 222.8,433.4 223.2,433.2 223.3,432.9 "/>
<polyline class="st2" points="220.4,433 220.6,433.3 220.9,433.4 "/>
<line class="st2" x1="252.6" y1="423.7" x2="235.1" y2="416.6"/>
<polyline class="st2" points="252.9,428.1 253.4,427.9 253.8,427.6 254.1,427.3 254.4,427 254.6,426.7 254.7,426.4 254.8,426.1 
	254.8,425.9 "/>
<polyline class="st2" points="254.8,425.9 254.8,425.6 254.7,425.3 254.5,425 254.2,424.7 253.9,424.4 253.6,424.2 253.1,423.9 
	252.6,423.7 252.6,423.7 "/>
<line class="st3" x1="252.9" y1="430" x2="252.9" y2="428.1"/>
<polyline class="st2" points="252.9,430 253.4,429.8 253.8,429.5 254.1,429.2 254.4,428.9 254.6,428.6 254.8,428.3 254.9,428 
	254.9,427.8 "/>
<line class="st2" x1="252.9" y1="428.1" x2="214" y2="447.1"/>
<line class="st3" x1="214" y1="447.1" x2="214.1" y2="449"/>
<line class="st2" x1="252.9" y1="430" x2="214.1" y2="449"/>
<line class="st2" x1="184.5" y1="444" x2="184" y2="444.2"/>
<line class="st2" x1="184.5" y1="444" x2="184" y2="443.8"/>
<polyline class="st2" points="235.1,416.6 234.6,416.5 234.1,416.4 233.6,416.4 233.1,416.6 233,416.6 "/>
<line class="st3" x1="184.5" y1="444" x2="187.3" y2="442.6"/>
<line class="st2" x1="184.5" y1="444" x2="184.5" y2="444"/>
<polyline class="st2" points="204,447.4 204.5,447.6 205.1,447.8 205.7,447.9 206.4,448 207.1,448.1 207.8,448.2 208.4,448.2 
	209.2,448.2 209.9,448.1 210.6,448.1 211.2,448 211.9,447.8 212.5,447.7 213.1,447.5 213.6,447.3 214,447.1 "/>
<line class="st2" x1="186.5" y1="440.4" x2="204" y2="447.4"/>
<line class="st3" x1="186.5" y1="440.4" x2="235.1" y2="416.6"/>
<polyline class="st2" points="204,449.3 204.6,449.5 205.1,449.7 205.8,449.8 206.4,449.9 207.1,450 207.8,450.1 208.5,450.1 
	209.2,450.1 209.9,450 210.6,450 211.3,449.9 211.9,449.7 212.6,449.6 213.1,449.4 213.7,449.2 214.1,449 "/>
<line class="st2" x1="186.5" y1="442.2" x2="204" y2="449.3"/>
<line class="st3" x1="204" y1="447.4" x2="204" y2="449.3"/>
<polyline class="st2" points="184.4,440.3 184,440.6 183.9,440.6 "/>
<polyline class="st2" points="186.5,440.4 185.9,440.2 185.4,440.1 185,440.1 184.5,440.3 184.4,440.3 "/>
<polyline class="st2" points="185.3,442.2 184.9,442.5 184.7,442.9 184.5,443.5 184.5,444 "/>
<polyline class="st2" points="186.5,442.2 186,442.1 185.5,442.2 185.3,442.2 "/>
<line class="st2" x1="97.1" y1="623.4" x2="97.2" y2="625.3"/>
<line class="st2" x1="92.5" y1="401.2" x2="92.5" y2="403.1"/>
<line class="st2" x1="93.1" y1="680.4" x2="91.5" y2="679.8"/>
<line class="st2" x1="259.5" y1="648.1" x2="259.5" y2="650"/>
<line class="st2" x1="189.1" y1="662.5" x2="237.7" y2="638.8"/>
<line class="st2" x1="160.1" y1="707.3" x2="161.6" y2="708"/>
<line class="st2" x1="269.8" y1="660" x2="261.5" y2="266.4"/>
<line class="st2" x1="254.8" y1="425.9" x2="254.9" y2="427.8"/>
<line class="st2" x1="184.4" y1="440.3" x2="233" y2="416.6"/>
<line class="st4" x1="0" y1="841.9" x2="1190.6" y2="841.9"/>
<line class="st4" x1="1190.6" y1="841.9" x2="1190.6" y2="0"/>
<line class="st4" x1="1190.6" y1="0" x2="0" y2="0"/>
<line class="st4" x1="0" y1="0" x2="0" y2="841.9"/>
<line class="st4" x1="595.3" y1="28.4" x2="595.3" y2="14.2"/>
<line class="st4" x1="595.3" y1="28.4" x2="595.3" y2="14.2"/>
<line class="st4" x1="744.1" y1="28.4" x2="744.1" y2="14.2"/>
<line class="st4" x1="446.5" y1="28.4" x2="446.5" y2="14.2"/>
<line class="st4" x1="892.9" y1="28.4" x2="892.9" y2="14.2"/>
<line class="st4" x1="297.6" y1="28.4" x2="297.6" y2="14.2"/>
<line class="st4" x1="1041.7" y1="28.4" x2="1041.7" y2="14.2"/>
<line class="st4" x1="148.8" y1="28.4" x2="148.8" y2="14.2"/>
<line class="st4" x1="14.2" y1="421" x2="28.4" y2="421"/>
<line class="st4" x1="14.2" y1="421" x2="28.4" y2="421"/>
<line class="st4" x1="14.2" y1="280.6" x2="28.4" y2="280.6"/>
<line class="st4" x1="14.2" y1="561.3" x2="28.4" y2="561.3"/>
<line class="st4" x1="14.2" y1="140.3" x2="28.4" y2="140.3"/>
<line class="st4" x1="14.2" y1="701.6" x2="28.4" y2="701.6"/>
<line class="st4" x1="595.3" y1="841.9" x2="595.3" y2="813.5"/>
<line class="st4" x1="595.3" y1="28.4" x2="595.3" y2="0"/>
<line class="st5" x1="28.4" y1="813.5" x2="1162.2" y2="813.5"/>
<line class="st5" x1="1162.2" y1="813.5" x2="1162.2" y2="28.4"/>
<line class="st5" x1="1162.2" y1="28.4" x2="28.4" y2="28.4"/>
<line class="st5" x1="28.4" y1="28.4" x2="28.4" y2="813.5"/>
<line class="st5" x1="652" y1="813.5" x2="1162.2" y2="813.5"/>
<line class="st5" x1="652" y1="693.4" x2="1162.2" y2="693.4"/>
<line class="st5" x1="652" y1="813.5" x2="652" y2="693.4"/>
<line class="st5" x1="1162.2" y1="813.5" x2="1162.2" y2="693.4"/>
<line class="st5" x1="652" y1="777.5" x2="1162.2" y2="777.5"/>
<line class="st5" x1="1026.1" y1="813.5" x2="1026.1" y2="741.5"/>
<line class="st5" x1="765.3" y1="813.5" x2="765.3" y2="741.5"/>
<line class="st5" x1="652" y1="741.5" x2="1116.8" y2="741.5"/>
<line class="st5" x1="1116.8" y1="777.5" x2="1116.8" y2="693.4"/>
<line class="st5" x1="1116.8" y1="729.5" x2="1162.2" y2="729.5"/>
<line class="st5" x1="890.1" y1="777.5" x2="890.1" y2="693.4"/>
<line class="st5" x1="765.3" y1="765.6" x2="890.1" y2="765.6"/>
<line class="st5" x1="765.3" y1="753.6" x2="890.1" y2="753.6"/>
<line class="st5" x1="890.1" y1="753.6" x2="1162.2" y2="753.6"/>
<line class="st5" x1="1071.5" y1="777.5" x2="1071.5" y2="753.6"/>
<line class="st6" x1="771" y1="741.5" x2="771" y2="693.4"/>
<line class="st5" x1="771" y1="741.5" x2="771" y2="693.4"/>
<polyline class="st5" points="1154.4,741.5 1154.4,740.8 1154.2,740.2 1153.9,739.5 1153.5,738.9 1153,738.4 1152.5,738 
	1151.8,737.6 1151.2,737.4 1150.5,737.3 1149.8,737.3 1149.1,737.4 1148.4,737.7 1147.8,738 1147.2,738.5 1146.8,739 1146.4,739.6 
	1146.1,740.2 1146,740.9 1145.9,741.6 1146,742.3 1146.2,743 1146.5,743.6 1146.9,744.2 1147.4,744.7 1147.9,745.2 1148.6,745.5 
	1149.2,745.7 1149.9,745.8 1150.6,745.8 1151.3,745.6 1152,745.4 1152.6,745 1153.2,744.6 1153.6,744.1 1154,743.4 1154.2,742.8 
	1154.4,742.1 1154.4,741.5 "/>
<polyline class="st5" points="1158.7,741.5 1158.7,740.8 1158.6,740.1 1158.4,739.4 1158.2,738.8 1157.9,738.1 1157.6,737.5 
	1157.3,736.9 1156.9,736.3 1156.4,735.8 1155.9,735.2 1155.3,734.8 1154.8,734.4 1154.2,734 1153.5,733.7 1152.9,733.5 
	1152.2,733.3 1151.5,733.1 1150.8,733.1 1150.1,733 1149.4,733.1 1148.7,733.2 1148,733.3 1147.3,733.5 1146.6,733.8 1146,734.1 
	1145.4,734.5 1144.8,734.9 1144.3,735.4 1143.8,735.9 1143.4,736.4 1143,737 1142.6,737.6 1142.3,738.3 1142.1,739 1141.9,739.6 
	1141.8,740.3 1141.7,741 1141.7,741.7 1141.7,742.5 1141.8,743.2 1142,743.8 1142.2,744.5 1142.5,745.2 1142.8,745.8 1143.2,746.4 
	1143.6,747 1144.1,747.5 1144.6,748 1145.2,748.4 1145.7,748.8 1146.4,749.2 1147,749.4 1147.7,749.7 1148.4,749.9 1149.1,750 
	1149.8,750 1150.5,750 1151.2,750 1151.9,749.9 1152.6,749.7 1153.2,749.5 1153.9,749.2 1154.5,748.9 1155.1,748.5 1155.7,748 
	1156.2,747.6 1156.7,747 1157.1,746.5 1157.5,745.9 1157.8,745.3 1158.1,744.6 1158.3,744 1158.5,743.3 1158.6,742.6 1158.7,741.9 
	1158.7,741.5 "/>
<line class="st5" x1="1121.1" y1="745.8" x2="1121.1" y2="737.3"/>
<line class="st5" x1="1138.1" y1="750.1" x2="1138.1" y2="733"/>
<line class="st5" x1="1121.1" y1="745.8" x2="1138.1" y2="750.1"/>
<line class="st5" x1="1121.1" y1="737.3" x2="1138.1" y2="733"/>
<line class="st4" x1="938.3" y1="777.5" x2="938.3" y2="693.4"/>
<line class="st4" x1="670.4" y1="741.5" x2="670.4" y2="693.4"/>
<line class="st4" x1="684.6" y1="741.5" x2="684.6" y2="693.4"/>
<line class="st4" x1="789.5" y1="741.5" x2="789.5" y2="693.4"/>
<line class="st4" x1="803.6" y1="741.5" x2="803.6" y2="693.4"/>
<line class="st4" x1="803.6" y1="777.5" x2="803.6" y2="741.6"/>
<line class="st4" x1="1000.6" y1="741.5" x2="1000.6" y2="693.4"/>
<line class="st4" x1="670.4" y1="729.5" x2="771" y2="729.5"/>
<line class="st4" x1="670.4" y1="717.5" x2="771" y2="717.5"/>
<line class="st4" x1="670.4" y1="705.4" x2="771" y2="705.4"/>
<line class="st4" x1="789.5" y1="729.5" x2="890.1" y2="729.5"/>
<line class="st4" x1="789.5" y1="717.5" x2="890.1" y2="717.5"/>
<line class="st4" x1="789.5" y1="705.4" x2="890.1" y2="705.4"/>
<line class="st4" x1="890.1" y1="729.5" x2="1116.8" y2="729.5"/>
<line class="st4" x1="890.1" y1="717.5" x2="1116.8" y2="717.5"/>
<line class="st4" x1="890.1" y1="705.4" x2="1116.8" y2="705.4"/>
<line class="st4" x1="652" y1="765.6" x2="1026.1" y2="765.6"/>
<line class="st4" x1="652" y1="753.6" x2="765.3" y2="753.6"/>
<line class="st4" x1="741.3" y1="744.1" x2="751.2" y2="744.1"/>
<line class="st4" x1="751.2" y1="744.1" x2="751.2" y2="751.2"/>
<line class="st4" x1="751.2" y1="751.2" x2="741.3" y2="751.2"/>
<line class="st4" x1="741.3" y1="751.2" x2="741.3" y2="744.1"/>
<line class="st4" x1="741.3" y1="756.1" x2="751.2" y2="756.1"/>
<line class="st4" x1="751.2" y1="756.1" x2="751.2" y2="763.2"/>
<line class="st4" x1="751.2" y1="763.2" x2="741.3" y2="763.2"/>
<line class="st4" x1="741.3" y1="763.2" x2="741.3" y2="756.1"/>
<line class="st4" x1="741.3" y1="768.2" x2="751.2" y2="768.2"/>
<line class="st4" x1="751.2" y1="768.2" x2="751.2" y2="775.3"/>
<line class="st4" x1="751.2" y1="775.3" x2="741.3" y2="775.3"/>
<line class="st4" x1="741.3" y1="775.3" x2="741.3" y2="768.2"/>
<path class="st5" d="M1136,741.5h-14.9 M1144.5,741.5h14.9 M1138.8,741.5h2.8"/>
<path class="st5" d="M1150.2,745.8v4.9 M1150.2,737.3v-5 M1150.2,743v-2.8"/>
<line class="st3" x1="676.4" y1="514.9" x2="672.7" y2="514.9"/>
<line class="st3" x1="674.6" y1="513" x2="674.6" y2="516.7"/>
<line class="st3" x1="726" y1="266.8" x2="722.3" y2="266.8"/>
<line class="st3" x1="724.2" y1="265" x2="724.2" y2="268.7"/>
<line class="st3" x1="726" y1="514.9" x2="722.3" y2="514.9"/>
<line class="st3" x1="724.2" y1="513" x2="724.2" y2="516.7"/>
<line class="st3" x1="676.4" y1="266.8" x2="672.7" y2="266.8"/>
<line class="st3" x1="674.6" y1="265" x2="674.6" y2="268.7"/>
<line class="st3" x1="624.2" y1="275.1" x2="624.2" y2="277.7"/>
<line class="st3" x1="745.2" y1="249.4" x2="747.8" y2="249.4"/>
<line class="st3" x1="745.2" y1="530.5" x2="747.8" y2="530.5"/>
<path class="st3" d="M656.1,605.6v4.2 M656.1,599.9v2.8 M656.1,577.2v19.8 M656.1,571.6v2.8 M656.1,548.9v19.8 M656.1,543.2v2.8
	 M656.1,520.5v19.8 M656.1,514.9v2.8 M656.1,492.2V512 M656.1,486.5v2.8 M656.1,463.9v19.8 M656.1,458.2v2.8 M656.1,435.5v19.8
	 M656.1,429.8v2.8 M656.1,407.2V427 M656.1,401.5v2.8 M656.1,378.8v19.8 M656.1,373.1v2.8 M656.1,350.5v19.8 M656.1,86.8v-4.2
	 M656.1,92.5v-2.8 M656.1,115.2V95.3 M656.1,120.9V118 M656.1,143.5v-19.8 M656.1,149.2v-2.8 M656.1,171.9V152 M656.1,177.5v-2.8
	 M656.1,200.2v-19.8 M656.1,205.9v-2.8 M656.1,228.6v-19.8 M656.1,234.2v-2.8 M656.1,256.9v-19.9 M656.1,262.6v-2.8 M656.1,285.3
	v-19.8 M656.1,290.9v-2.8 M656.1,313.6v-19.8 M656.1,319.3v-2.8 M656.1,342v-19.9 M656.1,347.6v-2.8"/>
<line class="st3" x1="774.5" y1="275.1" x2="774.5" y2="277.7"/>
<path class="st3" d="M742.6,605.6v4.2 M742.6,599.9v2.8 M742.6,577.2v19.8 M742.6,571.6v2.8 M742.6,548.9v19.8 M742.6,543.2v2.8
	 M742.6,520.5v19.8 M742.6,514.9v2.8 M742.6,492.2V512 M742.6,486.5v2.8 M742.6,463.9v19.8 M742.6,458.2v2.8 M742.6,435.5v19.8
	 M742.6,429.8v2.8 M742.6,407.2V427 M742.6,401.5v2.8 M742.6,378.8v19.8 M742.6,373.1v2.8 M742.6,350.5v19.8 M742.6,86.8v-4.2
	 M742.6,92.5v-2.8 M742.6,115.2V95.3 M742.6,120.9V118 M742.6,143.5v-19.8 M742.6,149.2v-2.8 M742.6,171.9V152 M742.6,177.5v-2.8
	 M742.6,200.2v-19.8 M742.6,205.9v-2.8 M742.6,228.6v-19.8 M742.6,234.2v-2.8 M742.6,256.9v-19.9 M742.6,262.6v-2.8 M742.6,285.3
	v-19.8 M742.6,290.9v-2.8 M742.6,313.6v-19.8 M742.6,319.3v-2.8 M742.6,342v-19.9 M742.6,347.6v-2.8"/>
<line class="st3" x1="624.2" y1="523.2" x2="624.2" y2="525.7"/>
<line class="st3" x1="653.5" y1="249.4" x2="651" y2="249.4"/>
<line class="st3" x1="653.5" y1="530.5" x2="651" y2="530.5"/>
<line class="st3" x1="774.5" y1="523.2" x2="774.5" y2="525.7"/>
<line class="st3" x1="365.1" y1="361.2" x2="361.4" y2="361.2"/>
<line class="st3" x1="363.2" y1="359.4" x2="363.2" y2="363.1"/>
<line class="st3" x1="497.6" y1="361.2" x2="494" y2="361.2"/>
<line class="st3" x1="495.8" y1="359.4" x2="495.8" y2="363.1"/>
<path class="st3" d="M378.5,328.6v-9.9 M378.5,334.3v-2.8 M378.5,357v-19.9 M378.5,393.8v9.9 M378.5,388.2v2.8 M378.5,365.5v19.8
	 M378.5,359.8v2.8"/>
<line class="st3" x1="475.4" y1="367.1" x2="477.9" y2="367.1"/>
<path class="st3" d="M480.5,393.8v9.9 M480.5,388.2v2.8 M480.5,365.5v19.8 M480.5,328.6v-9.9 M480.5,334.3v-2.8 M480.5,357v-19.9
	 M480.5,362.6v-2.8"/>
<line class="st3" x1="383.6" y1="367.1" x2="381.1" y2="367.1"/>
<line class="st3" x1="954.8" y1="281.7" x2="954.8" y2="284.2"/>
<line class="st3" x1="1011.5" y1="281.7" x2="1011.5" y2="284.2"/>
<path class="st3" d="M950.6,534.9h-9.9 M956.3,534.9h-2.8 M978.9,534.9h-19.8 M1015.8,534.9h9.9 M1010.1,534.9h2.8 M987.5,534.9
	h19.8 M981.8,534.9h2.8"/>
<path class="st3" d="M950.6,286.8h-9.9 M956.3,286.8h-2.8 M978.9,286.8h-19.8 M1015.8,286.8h9.9 M1010.1,286.8h2.8 M987.5,286.8
	h19.8 M981.8,286.8h2.8"/>
<path class="st3" d="M904.2,612.1v4.2 M904.2,606.5v2.8 M904.2,583.8v19.8 M904.2,578.1v2.8 M904.2,555.4v19.8 M904.2,549.8v2.8
	 M904.2,527.1v19.8 M904.2,521.4v2.8 M904.2,498.7v19.8 M904.2,493.1v2.8 M904.2,470.4v19.9 M904.2,464.7v2.8 M904.2,442.1v19.8
	 M904.2,436.4v2.8 M904.2,413.7v19.8 M904.2,408v2.8 M904.2,385.4v19.9 M904.2,379.7v2.8 M904.2,357v19.8 M904.2,93.4v-4.3
	 M904.2,99v-2.8 M904.2,121.7v-19.8 M904.2,127.4v-2.8 M904.2,150.1v-19.8 M904.2,155.8v-2.8 M904.2,178.4v-19.8 M904.2,184.1v-2.8
	 M904.2,206.8v-19.8 M904.2,212.4v-2.8 M904.2,235.1v-19.8 M904.2,240.8V238 M904.2,263.5v-19.8 M904.2,269.1v-2.8 M904.2,291.8V272
	 M904.2,297.5v-2.8 M904.2,320.2v-19.9 M904.2,325.8V323 M904.2,348.5v-19.8 M904.2,354.2v-2.8"/>
<line class="st3" x1="954.8" y1="529.7" x2="954.8" y2="532.2"/>
<line class="st3" x1="1011.5" y1="529.7" x2="1011.5" y2="532.2"/>
<path class="st7" d="M71.2,19.1"/>
<text transform="matrix(1 0 0 1 71.25 19.1)" class="st8 st9 st10">1</text>
<path class="st7" d="M220.1,19.1"/>
<text transform="matrix(1 0 0 1 220.0698 19.1)" class="st8 st9 st10">2</text>
<path class="st7" d="M368.9,19.1"/>
<text transform="matrix(1 0 0 1 368.8901 19.1)" class="st8 st9 st10">3</text>
<path class="st7" d="M517.7,19.1"/>
<text transform="matrix(1 0 0 1 517.71 19.1)" class="st8 st9 st10">4</text>
<path class="st7" d="M666.5,19.1"/>
<text transform="matrix(1 0 0 1 666.5195 19.1)" class="st8 st9 st10">5</text>
<path class="st7" d="M815.3,19.1"/>
<text transform="matrix(1 0 0 1 815.3398 19.1)" class="st8 st9 st10">6</text>
<path class="st7" d="M964.2,19.1"/>
<text transform="matrix(1 0 0 1 964.1602 19.1)" class="st8 st9 st10">7</text>
<path class="st7" d="M1113,19.1"/>
<text transform="matrix(1 0 0 1 1112.9805 19.1)" class="st8 st9 st10">8</text>
<path class="st7" d="M10.4,75.1"/>
<text transform="matrix(1 0 0 1 10.3799 75.0902)" class="st8 st9 st10">A</text>
<path class="st7" d="M10.4,215.4"/>
<text transform="matrix(1 0 0 1 10.3799 215.3998)" class="st8 st9 st10">B</text>
<path class="st7" d="M10.1,355.7"/>
<text transform="matrix(1 0 0 1 10.0698 355.7201)" class="st8 st9 st10">C</text>
<path class="st7" d="M10.1,496"/>
<text transform="matrix(1 0 0 1 10.0698 496.0297)" class="st8 st9 st10">D</text>
<path class="st7" d="M10.4,636.4"/>
<text transform="matrix(1 0 0 1 10.3799 636.35)" class="st8 st9 st10">E</text>
<path class="st7" d="M10.7,776.7"/>
<text transform="matrix(1 0 0 1 10.7002 776.6595)" class="st8 st9 st10">F</text>
<path class="st7" d="M869.3,803.7"/>
<text transform="matrix(1 0 0 1 815.29 801.6996)" class="st8 st11 st12">Butterfly Shelf Folded</text>
<path class="st7" d="M830.1,762.1"/>
<text transform="matrix(1 0 0 1 830.0703 762.1205)" class="st8 st11 st13">Aluminium</text>
<path class="st7" d="M953.7,702"/>
<text transform="matrix(1 0 0 1 953.6797 701.9603)" class="st8 st11 st13">2/23/2020</text>
<path class="st7" d="M1046.8,702"/>
<text transform="matrix(1 0 0 1 1046.8105 701.9603)" class="st8 st11 st13">KIMBLE</text>
<path class="st7" d="M1129.2,717.2"/>
<text transform="matrix(1 0 0 1 1129.2402 717.1595)" class="st8 st11 st14">1:4</text>
<path class="st7" d="M1037.1,775.4"/>
<text transform="matrix(1 0 0 1 1037.1299 775.35)" class="st8 st11 st12">A3</text>
<path class="st7" d="M1088.8,775.4"/>
<text transform="matrix(1 0 0 1 1088.7598 775.35)" class="st8 st11 st12">1</text>
<path class="st7" d="M1135.5,775.4"/>
<text transform="matrix(1 0 0 1 1135.5303 775.35)" class="st8 st11 st12">1</text>
<path class="st7" d="M768.2,784.9"/>
<text transform="matrix(1 0 0 1 768.1904 784.9301)" class="st8 st11 st15">Dnomination</text>
<path class="st7" d="M1034.7,784.9"/>
<text transform="matrix(1 0 0 1 1034.6504 784.9301)" class="st8 st11 st15">N de dessin</text>
<path class="st7" d="M768.2,773.3"/>
<text transform="matrix(1 0 0 1 768.1904 773.2699)" class="st8 st11 st15">Masse</text>
<path class="st7" d="M768.2,761.3"/>
<text transform="matrix(1 0 0 1 768.1904 761.2601)" class="st8 st11 st15">Matiere</text>
<path class="st7" d="M892.9,773.3"/>
<text transform="matrix(1 0 0 1 892.9102 773.2699)" class="st8 st11 st15">Remplace</text>
<path class="st7" d="M892.9,761.3"/>
<text transform="matrix(1 0 0 1 892.9102 761.2797)" class="st8 st11 st15">Origine</text>
<path class="st7" d="M892.9,749.3"/>
<text transform="matrix(1 0 0 1 892.9102 749.2904)" class="st8 st11 st15">N de commande</text>
<path class="st7" d="M892.9,737.2"/>
<text transform="matrix(1 0 0 1 892.9102 737.2396)" class="st8 st11 st15">Bon pour exc.</text>
<path class="st7" d="M892.9,725.2"/>
<text transform="matrix(1 0 0 1 892.9102 725.1898)" class="st8 st11 st15">Conf aux norm</text>
<path class="st7" d="M892.9,713.2"/>
<text transform="matrix(1 0 0 1 892.9102 713.1498)" class="st8 st11 st15">Contrl</text>
<path class="st7" d="M892.9,701.1"/>
<text transform="matrix(1 0 0 1 892.9102 701.1)" class="st8 st11 st15">Dessin</text>
<path class="st7" d="M1132.5,700.7"/>
<text transform="matrix(1 0 0 1 1132.4805 700.7396)" class="st8 st11 st15">Echelle</text>
<path class="st7" d="M1041.3,758.6"/>
<text transform="matrix(1 0 0 1 1041.2998 758.5697)" class="st8 st11 st15">Format</text>
<path class="st7" d="M1083.1,758.6"/>
<text transform="matrix(1 0 0 1 1083.0898 758.5697)" class="st8 st11 st15">Nb feuilles</text>
<path class="st7" d="M1130.9,758.6"/>
<text transform="matrix(1 0 0 1 1130.9102 758.5697)" class="st8 st11 st15">Feuille N</text>
<path class="st7" d="M654.8,719.2"/>
<text transform="matrix(1 0 0 1 654.7998 719.1703)" class="st8 st11 st15">Mod.</text>
<path class="st7" d="M773.9,719.2"/>
<text transform="matrix(1 0 0 1 773.8604 719.1703)" class="st8 st11 st15">Mod.</text>
<path class="st7" d="M654.8,749.3"/>
<text transform="matrix(1 0 0 1 654.7998 749.2699)" class="st8 st11 st15">Sans nomenclature spare</text>
<path class="st7" d="M654.8,761.3"/>
<text transform="matrix(1 0 0 1 654.7998 761.2601)" class="st8 st11 st15">Nomenclature sp de mme N</text>
<path class="st7" d="M654.8,773.2"/>
<text transform="matrix(1 0 0 1 654.7998 773.2504)" class="st8 st11 st15">Nomenclature sp de N diff</text>
<polygon class="st16" points="733,107.8 742.6,105.3 733,102.7 "/>
<path class="st3" d="M733,107.8"/>
<polygon class="st16" points="665.7,102.7 656.1,105.3 665.7,107.8 "/>
<path class="st3" d="M665.7,102.7"/>
<path class="st3" d="M687.9,101"/>
<text transform="matrix(1 0 0 1 687.9004 101.0199)"><tspan x="0" y="0" class="st8 st9 st10 st17">12</tspan><tspan x="16.6" y="0" class="st8 st9 st10">2</tspan></text>
<line class="st1" x1="665.7" y1="105.3" x2="733" y2="105.3"/>
<polyline class="st3" points="733,107.8 742.6,105.3 733,102.7 733,107.8 "/>
<polyline class="st3" points="665.7,102.7 656.1,105.3 665.7,107.8 665.7,102.7 "/>
<polygon class="st16" points="756.9,283.4 748.4,278.2 753.2,286.9 "/>
<path class="st3" d="M756.9,283.4"/>
<path class="st3" d="M778.7,303.6"/>
<text transform="matrix(0.6919 0.722 -0.722 0.6919 778.6503 303.6402)" class="st8 st9 st18">4</text>
<path class="st3" d="M771,295.7"/>
<text transform="matrix(0.6919 0.722 -0.722 0.6919 771.0094 295.67)" class="st8 st9 st18">R</text>
<line class="st1" x1="755.1" y1="285.2" x2="780" y2="311.1"/>
<polyline class="st3" points="756.9,283.4 748.4,278.2 753.2,286.9 756.9,283.4 "/>
<polygon class="st16" points="645.4,286.9 650.3,278.3 641.7,283.2 "/>
<path class="st3" d="M645.4,286.9"/>
<path class="st3" d="M625.8,296.8"/>
<text transform="matrix(0.7071 -0.7071 0.7071 0.7071 625.7803 296.8402)" class="st8 st9 st19">4</text>
<path class="st3" d="M618,304.7"/>
<text transform="matrix(0.7071 -0.7071 0.7071 0.7071 617.9801 304.6497)" class="st8 st9 st19">R</text>
<line class="st1" x1="643.6" y1="285.1" x2="621" y2="307.7"/>
<polyline class="st3" points="645.4,286.9 650.3,278.3 641.7,283.2 645.4,286.9 "/>
<polygon class="st16" points="645.9,535.1 650.2,526.2 642,531.8 "/>
<path class="st3" d="M645.9,535.1"/>
<path class="st3" d="M633.7,539"/>
<text transform="matrix(0.65 -0.76 0.76 0.65 633.6598 539.0295)" class="st8 st9 st20">4</text>
<path class="st3" d="M626.5,547.5"/>
<text transform="matrix(0.65 -0.76 0.76 0.65 626.5095 547.45)" class="st8 st9 st20">R</text>
<line class="st1" x1="644" y1="533.5" x2="629.8" y2="550.2"/>
<polyline class="st3" points="645.9,535.1 650.2,526.2 642,531.8 645.9,535.1 "/>
<polygon class="st16" points="756.7,531.9 748.6,526.1 752.7,535.2 "/>
<path class="st3" d="M756.7,531.9"/>
<path class="st3" d="M770.9,546.7"/>
<text transform="matrix(0.6332 0.774 -0.774 0.6332 770.9404 546.7302)" class="st8 st9 st21">4</text>
<path class="st3" d="M764,538.2"/>
<text transform="matrix(0.6332 0.774 -0.774 0.6332 763.9504 538.1801)" class="st8 st9 st21">R</text>
<line class="st1" x1="754.7" y1="533.6" x2="771.7" y2="554.3"/>
<polyline class="st3" points="756.7,531.9 748.6,526.1 752.7,535.2 756.7,531.9 "/>
<polygon class="st16" points="579.9,287 577.3,277.5 574.7,287 "/>
<path class="st3" d="M579.9,287"/>
<polygon class="st16" points="641.6,353.9 651.2,351.3 641.6,348.8 "/>
<path class="st3" d="M641.6,353.9"/>
<path class="st3" d="M594.2,318.9"/>
<text transform="matrix(0.7071 0.7071 -0.7071 0.7071 594.2001 318.9302)"><tspan x="0" y="0" class="st8 st9 st19 st17">9</tspan><tspan x="8.3" y="0" class="st8 st9 st19">0</tspan></text>
<polyline class="st3" points="613,323.7 613.4,324.1 614.4,324.1 614.8,323.7 614.8,322.7 614.4,322.3 613.4,322.3 613,322.7 
	613,323.7 "/>
<polyline class="st1" points="577.9,287 578,287.7 578.1,288.4 578.2,289.1 578.3,289.8 578.5,290.5 578.6,291.2 578.7,291.9 
	578.9,292.6 579,293.3 579.2,294 579.3,294.7 579.5,295.4 579.7,296.1 579.9,296.8 580.1,297.4 580.2,298.1 580.5,298.8 
	580.7,299.5 580.9,300.2 581.1,300.8 581.3,301.5 581.6,302.2 581.8,302.8 582,303.5 582.3,304.2 582.6,304.8 582.8,305.5 
	583.1,306.1 583.4,306.8 583.7,307.4 584,308.1 584.2,308.7 584.5,309.4 584.9,310 585.2,310.6 585.5,311.3 585.8,311.9 
	586.2,312.5 586.5,313.1 586.8,313.8 587.2,314.4 587.5,315 587.9,315.6 588.3,316.2 588.7,316.8 589,317.4 589.4,318 589.8,318.6 
	590.2,319.2 590.6,319.8 591,320.3 591.4,320.9 591.9,321.5 592.3,322 592.7,322.6 593.2,323.2 593.6,323.7 594,324.3 594.5,324.8 
	595,325.4 595.4,325.9 595.9,326.4 596.3,327 596.8,327.5 597.3,328 597.8,328.5 598.3,329 598.8,329.5 599.3,330 599.8,330.5 
	600.3,331 600.8,331.5 601.3,332 601.9,332.5 602.4,332.9 602.9,333.4 603.5,333.9 604,334.3 604.6,334.8 605.1,335.2 605.7,335.6 
	606.2,336.1 606.8,336.5 607.4,336.9 607.9,337.4 608.5,337.8 609.1,338.2 609.7,338.6 610.3,339 610.9,339.4 611.5,339.7 
	612,340.1 612.7,340.5 613.3,340.9 613.9,341.2 614.5,341.6 615.1,341.9 615.7,342.3 616.3,342.6 617,342.9 617.6,343.2 
	618.2,343.6 618.9,343.9 619.5,344.2 620.2,344.5 620.8,344.8 621.5,345.1 622.1,345.4 622.8,345.6 623.4,345.9 624.1,346.2 
	624.7,346.4 625.4,346.7 626,346.9 626.7,347.2 627.4,347.4 628.1,347.6 628.7,347.8 629.4,348 630.1,348.2 630.8,348.4 
	631.5,348.6 632.1,348.8 632.8,349 633.5,349.2 634.2,349.3 634.9,349.5 635.6,349.7 636.3,349.8 637,349.9 637.7,350.1 
	638.4,350.2 639.1,350.3 639.8,350.4 640.5,350.5 641.2,350.6 641.6,350.7 "/>
<polyline class="st3" points="579.9,287 577.3,277.5 574.7,287 579.9,287 "/>
<polyline class="st3" points="641.6,353.9 651.2,351.3 641.6,348.8 641.6,353.9 "/>
<polygon class="st16" points="757.2,341.6 747.6,344.2 757.2,346.7 "/>
<path class="st3" d="M757.2,341.6"/>
<polygon class="st16" points="816.8,287 814.3,277.5 811.7,287 "/>
<path class="st3" d="M816.8,287"/>
<path class="st3" d="M784,329.4"/>
<text transform="matrix(0.7071 -0.7071 0.7071 0.7071 783.9801 329.3592)"><tspan x="0" y="0" class="st8 st9 st19 st17">9</tspan><tspan x="8.3" y="0" class="st8 st9 st19">0</tspan></text>
<polyline class="st3" points="788.7,310.6 789.2,310.1 789.2,309.2 788.7,308.7 787.8,308.7 787.3,309.2 787.3,310.1 787.8,310.6 
	788.7,310.6 "/>
<polyline class="st1" points="757.2,343.5 757.8,343.4 758.5,343.2 759.2,343.1 759.9,343 760.6,342.9 761.3,342.7 762,342.6 
	762.7,342.4 763.4,342.2 764.1,342.1 764.8,341.9 765.5,341.7 766.2,341.5 766.8,341.3 767.5,341.1 768.2,340.9 768.8,340.7 
	769.5,340.4 770.2,340.2 770.8,340 771.5,339.7 772.2,339.5 772.8,339.2 773.5,338.9 774.1,338.6 774.8,338.4 775.4,338.1 
	776.1,337.8 776.7,337.5 777.3,337.1 778,336.8 778.6,336.5 779.2,336.2 779.9,335.8 780.5,335.5 781.1,335.1 781.7,334.8 
	782.3,334.4 782.9,334 783.5,333.6 784.1,333.3 784.7,332.9 785.3,332.5 785.9,332.1 786.4,331.7 787,331.2 787.6,330.8 
	788.2,330.4 788.7,330 789.3,329.5 789.8,329.1 790.4,328.6 790.9,328.2 791.4,327.7 792,327.2 792.5,326.8 793,326.3 793.5,325.8 
	794,325.3 794.5,324.8 795,324.3 795.5,323.8 796,323.3 796.5,322.8 797,322.2 797.5,321.7 797.9,321.2 798.4,320.6 798.9,320.1 
	799.3,319.5 799.8,319 800.2,318.4 800.6,317.9 801,317.3 801.5,316.7 801.9,316.2 802.3,315.6 802.7,315 803.1,314.4 803.5,313.8 
	803.9,313.2 804.2,312.6 804.6,312 805,311.4 805.3,310.8 805.7,310.2 806,309.6 806.4,309 806.7,308.3 807,307.7 807.3,307.1 
	807.7,306.4 808,305.8 808.2,305.1 808.5,304.5 808.8,303.8 809.1,303.2 809.4,302.5 809.6,301.9 809.9,301.2 810.1,300.5 
	810.4,299.9 810.6,299.2 810.8,298.5 811.1,297.9 811.3,297.2 811.5,296.5 811.7,295.8 811.9,295.2 812.1,294.5 812.2,293.8 
	812.4,293.1 812.6,292.4 812.7,291.7 812.9,291 813,290.3 813.2,289.6 813.3,288.9 813.4,288.2 813.5,287.5 813.6,287 "/>
<polyline class="st3" points="757.2,341.6 747.6,344.2 757.2,346.7 757.2,341.6 "/>
<polyline class="st3" points="816.8,287 814.3,277.5 811.7,287 816.8,287 "/>
<polygon class="st16" points="757.2,588.6 747.6,591.1 757.2,593.7 "/>
<path class="st3" d="M757.2,588.6"/>
<polygon class="st16" points="815.8,535.1 813.2,525.5 810.7,535.1 "/>
<path class="st3" d="M815.8,535.1"/>
<path class="st3" d="M783.2,576.7"/>
<text transform="matrix(0.7071 -0.7071 0.7071 0.7071 783.24 576.6494)"><tspan x="0" y="0" class="st8 st9 st19 st17">9</tspan><tspan x="8.3" y="0" class="st8 st9 st19">0</tspan></text>
<polyline class="st3" points="788,557.9 788.4,557.4 788.4,556.5 788,556 787,556 786.6,556.5 786.6,557.4 787,557.9 788,557.9 "/>
<polyline class="st1" points="757.2,590.4 757.8,590.3 758.5,590.2 759.2,590.1 759.9,590 760.6,589.8 761.3,589.7 762,589.5 
	762.7,589.4 763.4,589.2 764.1,589 764.8,588.9 765.5,588.7 766.1,588.5 766.8,588.3 767.5,588 768.2,587.8 768.8,587.6 
	769.5,587.4 770.2,587.1 770.8,586.9 771.5,586.6 772.2,586.4 772.8,586.1 773.5,585.8 774.1,585.5 774.8,585.2 775.4,585 
	776,584.6 776.7,584.3 777.3,584 778,583.7 778.6,583.4 779.2,583 779.8,582.7 780.4,582.3 781,582 781.7,581.6 782.2,581.2 
	782.8,580.8 783.5,580.5 784,580.1 784.6,579.7 785.2,579.3 785.8,578.9 786.4,578.5 786.9,578 787.5,577.6 788.1,577.2 
	788.6,576.7 789.2,576.3 789.7,575.8 790.2,575.4 790.8,574.9 791.3,574.4 791.8,574 792.4,573.5 792.9,573 793.4,572.5 793.9,572 
	794.4,571.5 794.9,571 795.4,570.5 795.9,570 796.3,569.4 796.8,568.9 797.3,568.4 797.7,567.8 798.2,567.3 798.6,566.8 
	799.1,566.2 799.5,565.6 800,565.1 800.4,564.5 800.8,563.9 801.2,563.4 801.6,562.8 802,562.2 802.4,561.6 802.8,561 803.2,560.4 
	803.5,559.8 803.9,559.2 804.3,558.6 804.6,558 805,557.4 805.3,556.7 805.6,556.1 806,555.5 806.3,554.8 806.6,554.2 806.9,553.6 
	807.2,552.9 807.5,552.3 807.8,551.6 808.1,551 808.3,550.3 808.6,549.7 808.9,549 809.1,548.3 809.3,547.7 809.6,547 809.8,546.3 
	810,545.7 810.2,545 810.5,544.3 810.7,543.6 810.8,543 811,542.3 811.2,541.6 811.4,540.9 811.5,540.2 811.7,539.5 811.8,538.8 
	812,538.1 812.1,537.4 812.2,536.7 812.4,536 812.5,535.3 812.5,535.1 "/>
<polyline class="st3" points="757.2,588.6 747.6,591.1 757.2,593.7 757.2,588.6 "/>
<polyline class="st3" points="815.8,535.1 813.2,525.5 810.7,535.1 815.8,535.1 "/>
<polygon class="st16" points="585.2,535.1 582.6,525.5 580,535.1 "/>
<path class="st3" d="M585.2,535.1"/>
<polygon class="st16" points="641.6,596.6 651.2,594 641.6,591.5 "/>
<path class="st3" d="M641.6,596.6"/>
<path class="st3" d="M598,563.2"/>
<text transform="matrix(0.7071 0.7071 -0.7071 0.7071 597.9495 563.2103)"><tspan x="0" y="0" class="st8 st9 st19 st17">9</tspan><tspan x="8.3" y="0" class="st8 st9 st19">0</tspan></text>
<polyline class="st3" points="616.7,567.9 617.2,568.4 618.1,568.4 618.6,567.9 618.6,567 618.1,566.5 617.2,566.5 616.7,567 
	616.7,567.9 "/>
<polyline class="st1" points="583.3,535.1 583.4,535.8 583.5,536.5 583.6,537.2 583.7,537.9 583.9,538.6 584,539.3 584.2,540 
	584.3,540.6 584.5,541.3 584.6,542 584.8,542.7 585,543.4 585.2,544.1 585.4,544.8 585.6,545.4 585.8,546.1 586,546.8 586.2,547.5 
	586.5,548.1 586.7,548.8 586.9,549.5 587.2,550.1 587.5,550.8 587.7,551.4 588,552.1 588.3,552.8 588.5,553.4 588.8,554 
	589.1,554.7 589.4,555.3 589.8,556 590.1,556.6 590.4,557.2 590.7,557.8 591.1,558.5 591.4,559.1 591.8,559.7 592.1,560.3 
	592.5,560.9 592.8,561.5 593.2,562.1 593.6,562.7 594,563.3 594.4,563.9 594.8,564.5 595.2,565.1 595.6,565.7 596,566.2 
	596.5,566.8 596.9,567.4 597.3,567.9 597.8,568.5 598.2,569 598.7,569.6 599.1,570.1 599.6,570.6 600,571.2 600.5,571.7 601,572.2 
	601.5,572.7 602,573.2 602.5,573.8 603,574.3 603.5,574.8 604,575.2 604.5,575.7 605,576.2 605.6,576.7 606.1,577.2 606.6,577.6 
	607.2,578.1 607.7,578.5 608.3,579 608.8,579.4 609.4,579.8 610,580.3 610.5,580.7 611.1,581.1 611.7,581.5 612.2,581.9 
	612.8,582.3 613.4,582.7 614,583.1 614.6,583.5 615.2,583.9 615.8,584.2 616.4,584.6 617,585 617.7,585.3 618.3,585.6 618.9,586 
	619.5,586.3 620.2,586.6 620.8,587 621.4,587.3 622.1,587.6 622.7,587.9 623.4,588.2 624,588.4 624.7,588.7 625.3,589 626,589.2 
	626.6,589.5 627.3,589.8 628,590 628.6,590.2 629.3,590.5 630,590.7 630.7,590.9 631.3,591.1 632,591.3 632.7,591.5 633.4,591.7 
	634.1,591.9 634.8,592.1 635.4,592.2 636.1,592.4 636.8,592.5 637.5,592.7 638.2,592.8 638.9,592.9 639.6,593.1 640.3,593.2 
	641,593.3 641.6,593.4 "/>
<polyline class="st3" points="585.2,535.1 582.6,525.5 580,535.1 585.2,535.1 "/>
<polyline class="st3" points="641.6,596.6 651.2,594 641.6,591.5 641.6,596.6 "/>
<path class="st3" d="M667.5,66.9"/>
<text transform="matrix(1 0 0 1 667.4902 66.91)" class="st8 st9 st10">Vue de Face</text>
<polygon class="st16" points="471,287.2 476.5,278.9 467.6,283.4 "/>
<path class="st3" d="M471,287.2"/>
<path class="st3" d="M451.7,295.4"/>
<text transform="matrix(0.7413 -0.6712 0.6712 0.7413 451.6898 295.44)" class="st8 st9 st22">7</text>
<path class="st3" d="M443.5,302.8"/>
<text transform="matrix(0.7413 -0.6712 0.6712 0.7413 443.4799 302.83)" class="st8 st9 st22">R</text>
<line class="st1" x1="469.3" y1="285.3" x2="446.3" y2="306"/>
<polyline class="st3" points="471,287.2 476.5,278.9 467.6,283.4 471,287.2 "/>
<polygon class="st16" points="391.3,283.9 383,278.5 387.5,287.4 "/>
<path class="st3" d="M391.3,283.9"/>
<path class="st3" d="M410.7,303"/>
<text transform="matrix(0.6712 0.7413 -0.7413 0.6712 410.7298 302.9599)" class="st8 st9 st22">7</text>
<path class="st3" d="M403.3,294.8"/>
<text transform="matrix(0.6712 0.7413 -0.7413 0.6712 403.3394 294.7599)" class="st8 st9 st22">R</text>
<line class="st1" x1="389.4" y1="285.6" x2="411.8" y2="310.5"/>
<polyline class="st3" points="391.3,283.9 383,278.5 387.5,287.4 391.3,283.9 "/>
<polygon class="st16" points="505.8,269.8 508.4,279.4 511,269.8 "/>
<path class="st3" d="M505.8,269.8"/>
<polygon class="st16" points="485.2,244 475.6,246.6 485.2,249.1 "/>
<path class="st3" d="M485.2,244"/>
<path class="st3" d="M494,245.4"/>
<text transform="matrix(0.7071 0.7071 -0.7071 0.7071 494.0498 245.4201)"><tspan x="0" y="0" class="st8 st9 st19 st17">9</tspan><tspan x="8.3" y="0" class="st8 st9 st19">0</tspan></text>
<polyline class="st3" points="512.8,250.2 513.3,250.6 514.2,250.6 514.7,250.2 514.7,249.2 514.2,248.8 513.3,248.8 512.8,249.2 
	512.8,250.2 "/>
<polyline class="st1" points="507,269.8 506.7,269.1 506.5,268.4 506.3,267.8 506,267.1 505.7,266.5 505.5,265.8 505.2,265.2 
	504.8,264.5 504.5,263.9 504.2,263.3 503.8,262.7 503.5,262.1 503.1,261.5 502.7,260.9 502.3,260.3 501.9,259.7 501.4,259.2 
	501,258.6 500.5,258.1 500.1,257.5 499.6,257 499.1,256.5 498.6,256 498.1,255.5 497.6,255 497,254.5 496.5,254.1 495.9,253.6 
	495.4,253.2 494.8,252.8 494.2,252.4 493.6,252 493,251.6 492.4,251.2 491.8,250.9 491.2,250.5 490.6,250.2 490,249.9 489.3,249.6 
	488.7,249.3 488,249 487.4,248.8 486.7,248.5 486,248.3 485.4,248 485.2,248 "/>
<polyline class="st3" points="505.8,269.8 508.4,279.4 511,269.8 505.8,269.8 "/>
<polyline class="st3" points="485.2,244 475.6,246.6 485.2,249.1 485.2,244 "/>
<polygon class="st16" points="373.9,250.9 383.4,248.4 373.9,245.8 "/>
<path class="st3" d="M373.9,250.9"/>
<polygon class="st16" points="349.9,269.8 352.5,279.4 355,269.8 "/>
<path class="st3" d="M349.9,269.8"/>
<path class="st3" d="M350.8,262.2"/>
<text transform="matrix(0.7071 -0.7071 0.7071 0.7071 350.7797 262.1898)"><tspan x="0" y="0" class="st8 st9 st19 st17">9</tspan><tspan x="8.3" y="0" class="st8 st9 st19">0</tspan></text>
<polyline class="st3" points="355.5,243.4 356,243 356,242 355.5,241.6 354.6,241.6 354.1,242 354.1,243 354.6,243.4 355.5,243.4 
	"/>
<polyline class="st1" points="373.9,249.9 373.2,250.1 372.5,250.4 371.9,250.6 371.2,250.9 370.6,251.2 369.9,251.5 369.3,251.8 
	368.7,252.1 368,252.5 367.4,252.8 366.8,253.2 366.2,253.6 365.6,254 365.1,254.4 364.5,254.8 364,255.3 363.4,255.7 362.9,256.2 
	362.3,256.7 361.8,257.2 361.3,257.7 360.8,258.2 360.4,258.7 359.9,259.2 359.4,259.8 359,260.3 358.6,260.9 358.1,261.5 
	357.8,262 357.4,262.6 357,263.2 356.6,263.8 356.3,264.5 355.9,265.1 355.6,265.7 355.3,266.4 355,267 354.8,267.7 354.5,268.3 
	354.2,269 354,269.7 354,269.8 "/>
<polyline class="st3" points="373.9,250.9 383.4,248.4 373.9,245.8 373.9,250.9 "/>
<polyline class="st3" points="349.9,269.8 352.5,279.4 355,269.8 349.9,269.8 "/>
<polygon class="st16" points="338.8,286.8 336.2,277.2 333.7,286.8 "/>
<path class="st3" d="M338.8,286.8"/>
<polygon class="st16" points="333.7,443.4 336.2,453 338.8,443.4 "/>
<path class="st3" d="M333.7,443.4"/>
<path class="st3" d="M332,376.6"/>
<text transform="matrix(-6.123234e-17 -1 1 -6.123234e-17 331.9899 376.5795)"><tspan x="0" y="0" class="st8 st9 st10 st17">24</tspan><tspan x="16.6" y="0" class="st8 st9 st10">8</tspan></text>
<line class="st1" x1="336.2" y1="443.4" x2="336.2" y2="286.8"/>
<polyline class="st3" points="338.8,286.8 336.2,277.2 333.7,286.8 338.8,286.8 "/>
<polyline class="st3" points="333.7,443.4 336.2,453 338.8,443.4 333.7,443.4 "/>
<polygon class="st16" points="466,486.2 475.6,483.7 466,481.1 "/>
<path class="st3" d="M466,486.2"/>
<polygon class="st16" points="393,481.1 383.4,483.7 393,486.2 "/>
<path class="st3" d="M393,481.1"/>
<path class="st3" d="M418,479.4"/>
<text transform="matrix(1 0 0 1 418.0498 479.4301)"><tspan x="0" y="0" class="st8 st9 st10 st17">13</tspan><tspan x="16.6" y="0" class="st8 st9 st10">0</tspan></text>
<line class="st1" x1="393" y1="483.7" x2="466" y2="483.7"/>
<polyline class="st3" points="466,486.2 475.6,483.7 466,481.1 466,486.2 "/>
<polyline class="st3" points="393,481.1 383.4,483.7 393,486.2 393,481.1 "/>
<path class="st3" d="M390.5,223.3"/>
<text transform="matrix(1 0 0 1 390.5498 223.3099)" class="st8 st9 st10">Vue de Dessus</text>
<polygon class="st16" points="908.8,629 899.2,631.6 908.8,634.2 "/>
<path class="st3" d="M908.8,629"/>
<polygon class="st16" points="1065.4,634.2 1075,631.6 1065.4,629 "/>
<path class="st3" d="M1065.4,634.2"/>
<path class="st3" d="M975.6,627.3"/>
<text transform="matrix(1 0 0 1 975.6201 627.3402)"><tspan x="0" y="0" class="st8 st9 st10 st17">24</tspan><tspan x="16.6" y="0" class="st8 st9 st10">8</tspan></text>
<line class="st1" x1="908.8" y1="631.6" x2="1065.4" y2="631.6"/>
<polyline class="st3" points="908.8,629 899.2,631.6 908.8,634.2 908.8,629 "/>
<polyline class="st3" points="1065.4,634.2 1075,631.6 1065.4,629 1065.4,634.2 "/>
<path class="st3" d="M940.3,80.5"/>
<text transform="matrix(1 0 0 1 940.3203 80.5502)" class="st8 st9 st10">Vue de Gauche</text>
</svg>
