<?xml version="1.0" encoding="utf-8"?>
<!-- Generator: Adobe Illustrator 24.0.2, SVG Export Plug-In . SVG Version: 6.00 Build 0)  -->
<svg version="1.1" id="Layer_1" xmlns="http://www.w3.org/2000/svg" xmlns:xlink="http://www.w3.org/1999/xlink" x="0px" y="0px"
	 viewBox="0 0 697 741" style="enable-background:new 0 0 697 741;" xml:space="preserve">
<style type="text/css">
	.st0{fill:#FDB73E;}
	.st1{font-family:'ArialRoundedMTBold';}
	.st2{font-size:23px;}
	.st3{fill:none;stroke:#FDB73E;stroke-width:4;stroke-linecap:round;stroke-linejoin:round;stroke-miterlimit:10;}
</style>
<path class="st0" d="M652.3,354.8H44.2c-6.6,0-12,5.4-12,12v7.1c0,6.6,5.4,12,12,12h608.1c6.6,0,12-5.4,12-12v-7.1
	C664.2,360.1,658.9,354.8,652.3,354.8z M353.2,377.8h-6v-14h6V377.8z M635.2,377.8h-9v-14h9V377.8z M650.2,377.8h-9v-14h9V377.8z"/>
<path class="st0" d="M625.9,28.2H71.6c-21.5,0-38.9,17.4-38.9,38.9v273.1c0,3.3,2.7,6,6,6h619.9c3.3,0,6-2.7,6-6V67.1
	C664.8,45.7,647.3,28.2,625.9,28.2z M524.2,322.8h-348v-263h348V322.8z M582.8,189.1c-2.5,0-4.5-2-4.5-4.5s2-4.5,4.5-4.5
	s4.5,2,4.5,4.5S585.2,189.1,582.8,189.1z M594.2,184.6c0-2.5,2-4.5,4.5-4.5s4.5,2,4.5,4.5s-2,4.5-4.5,4.5S594.2,187.1,594.2,184.6z
	 M614.8,189.1c-2.5,0-4.5-2-4.5-4.5s2-4.5,4.5-4.5s4.5,2,4.5,4.5S617.2,189.1,614.8,189.1z M582.8,205.6c-2.5,0-4.5-2-4.5-4.5
	s2-4.5,4.5-4.5s4.5,2,4.5,4.5S585.3,205.6,582.8,205.6z M594.3,201.1c0-2.5,2-4.5,4.5-4.5s4.5,2,4.5,4.5s-2,4.5-4.5,4.5
	S594.3,203.6,594.3,201.1z M614.8,205.6c-2.5,0-4.5-2-4.5-4.5s2-4.5,4.5-4.5s4.5,2,4.5,4.5S617.3,205.6,614.8,205.6z M85.5,187.8
	c-2.5,0-4.5-2-4.5-4.5s2-4.5,4.5-4.5s4.5,2,4.5,4.5S87.9,187.8,85.5,187.8z M97,183.3c0-2.5,2-4.5,4.5-4.5s4.5,2,4.5,4.5
	s-2,4.5-4.5,4.5S97,185.8,97,183.3z M117.5,187.8c-2.5,0-4.5-2-4.5-4.5s2-4.5,4.5-4.5s4.5,2,4.5,4.5S119.9,187.8,117.5,187.8z
	 M85.5,204.3c-2.5,0-4.5-2-4.5-4.5s2-4.5,4.5-4.5s4.5,2,4.5,4.5S88,204.3,85.5,204.3z M97,199.8c0-2.5,2-4.5,4.5-4.5s4.5,2,4.5,4.5
	s-2,4.5-4.5,4.5S97,202.3,97,199.8z M117.5,204.3c-2.5,0-4.5-2-4.5-4.5s2-4.5,4.5-4.5s4.5,2,4.5,4.5S120,204.3,117.5,204.3z"/>
<text transform="matrix(1 0 0 1 591.6367 475.4814)" class="st0 st1 st2">X</text>
<text transform="matrix(1 0 0 1 561.7902 504.6364)" class="st0 st1 st2">Y</text>
<text transform="matrix(1 0 0 1 590.7902 533.6365)" class="st0 st1 st2">B</text>
<text transform="matrix(1 0 0 1 620.7902 504.6364)" class="st0 st1 st2">A</text>
<line class="st3" x1="72.2" y1="503.8" x2="87.2" y2="503.8"/>
<line class="st3" x1="102.2" y1="532.8" x2="102.2" y2="517.8"/>
<line class="st3" x1="101.8" y1="489.8" x2="101.8" y2="474.8"/>
<line class="st3" x1="116.2" y1="503.8" x2="131.2" y2="503.8"/>
<g>
	<path class="st0" d="M664.2,419v-18.2c0-3.3-2.7-6-6-6H604V419H664.2z M628.1,399.9c0.3-0.3,0.7-0.4,1.3-0.4h4.5
		c0.6,0,1.1,0,1.6,0.1s0.8,0.2,1.2,0.3c0.4,0.2,0.8,0.4,1.1,0.8s0.6,0.7,0.7,1.2c0.2,0.4,0.3,0.9,0.3,1.4c0,1-0.3,1.8-0.9,2.4
		c-0.6,0.6-1.4,1-2.6,1.3c0.5,0.3,1,0.6,1.4,1.2s0.8,1,1.2,1.6c0.3,0.6,0.6,1.1,0.8,1.5c0.2,0.5,0.3,0.8,0.3,1
		c0,0.2-0.1,0.4-0.2,0.5c-0.1,0.2-0.3,0.3-0.5,0.4c-0.2,0.1-0.4,0.2-0.7,0.2c-0.3,0-0.6-0.1-0.8-0.2c-0.2-0.1-0.4-0.3-0.5-0.6
		c-0.2-0.2-0.4-0.6-0.6-1l-1.1-1.8c-0.4-0.7-0.8-1.2-1.1-1.5c-0.3-0.4-0.6-0.6-1-0.7s-0.7-0.2-1.2-0.2h-1v4.4c0,0.6-0.1,1-0.4,1.3
		c-0.3,0.3-0.6,0.4-1,0.4c-0.4,0-0.8-0.1-1-0.4c-0.2-0.3-0.4-0.7-0.4-1.3v-10.5C627.7,400.6,627.9,400.2,628.1,399.9z"/>
	<path class="st0" d="M93,394.8H38.3c-3.3,0-6,2.7-6,6V419H93V394.8z M69.4,412.8c-0.2,0.2-0.6,0.3-1,0.3h-6.7c-0.6,0-1-0.1-1.3-0.4
		c-0.3-0.3-0.4-0.7-0.4-1.3V401c0-0.6,0.1-1,0.4-1.3c0.2-0.3,0.6-0.4,1-0.4c0.4,0,0.7,0.1,1,0.4c0.3,0.3,0.4,0.7,0.4,1.3v9.9h5.6
		c0.4,0,0.8,0.1,1,0.3c0.2,0.2,0.4,0.5,0.4,0.8C69.8,412.4,69.6,412.6,69.4,412.8z"/>
	<path class="st0" d="M604,422h-1.5c-0.8,0-1.5-0.7-1.5-1.5v-25.7H96v25.7c0,0.8-0.7,1.5-1.5,1.5H93H33.5c-0.5,0-1-0.3-1.3-0.7
		v252.5c0,21.5,17.4,38.9,38.9,38.9h554.2c21.5,0,38.9-17.4,38.9-38.9V421.8c-0.2,0.1-0.5,0.2-0.8,0.2H604z M598.2,450.8
		c8.8,0,16,7.2,16,16s-7.2,16-16,16s-16-7.2-16-16S589.4,450.8,598.2,450.8z M137.2,517.8h-22v22h-27v-22h-22v-27h22v-22h27v22h22
		V517.8z M524.2,680.8h-348v-263h348V680.8z M559.2,669.8c-4.4,0-8-3.6-8-8s3.6-8,8-8s8,3.6,8,8S563.7,669.8,559.2,669.8z
		 M559.2,635.8c-4.4,0-8-3.6-8-8s3.6-8,8-8s8,3.6,8,8S563.7,635.8,559.2,635.8z M552.2,496.8c0-8.8,7.2-16,16-16s16,7.2,16,16
		s-7.2,16-16,16S552.2,505.6,552.2,496.8z M577.4,664.2c-0.2,0.3-0.5,0.6-1,0.8s-0.9,0.3-1.5,0.3c-0.7,0-1.3-0.1-1.7-0.4
		c-0.3-0.2-0.6-0.4-0.8-0.8c-0.2-0.3-0.3-0.6-0.3-0.9c0-0.2,0.1-0.3,0.2-0.5c0.1-0.1,0.3-0.2,0.5-0.2c0.2,0,0.3,0,0.4,0.1
		c0.1,0.1,0.2,0.2,0.3,0.4c0.1,0.2,0.2,0.4,0.3,0.6c0.1,0.2,0.3,0.3,0.4,0.4c0.2,0.1,0.4,0.1,0.8,0.1c0.4,0,0.8-0.1,1-0.3
		c0.3-0.2,0.4-0.5,0.4-0.8c0-0.2-0.1-0.4-0.2-0.6c-0.1-0.1-0.3-0.3-0.6-0.3c-0.2-0.1-0.5-0.2-0.9-0.2c-0.5-0.1-0.9-0.3-1.3-0.4
		c-0.3-0.2-0.6-0.4-0.8-0.7c-0.2-0.3-0.3-0.6-0.3-1c0-0.4,0.1-0.7,0.3-1s0.5-0.5,0.9-0.7c0.4-0.2,0.9-0.2,1.4-0.2
		c0.4,0,0.8,0.1,1.1,0.2c0.3,0.1,0.6,0.3,0.8,0.4c0.2,0.2,0.4,0.4,0.5,0.6s0.1,0.4,0.1,0.6c0,0.2-0.1,0.3-0.2,0.5
		c-0.1,0.1-0.3,0.2-0.5,0.2c-0.2,0-0.3,0-0.4-0.1c-0.1-0.1-0.2-0.2-0.3-0.4c-0.1-0.3-0.3-0.5-0.5-0.6c-0.2-0.2-0.5-0.2-0.9-0.2
		c-0.4,0-0.7,0.1-0.9,0.2c-0.2,0.2-0.3,0.4-0.3,0.6c0,0.1,0,0.3,0.1,0.4s0.2,0.2,0.3,0.3s0.3,0.1,0.4,0.2s0.4,0.1,0.7,0.2
		c0.4,0.1,0.8,0.2,1.1,0.3c0.3,0.1,0.6,0.3,0.8,0.4c0.2,0.2,0.4,0.4,0.5,0.6c0.1,0.2,0.2,0.6,0.2,0.9
		C577.8,663.5,577.7,663.9,577.4,664.2z M577.5,630.2c-0.2,0.3-0.5,0.6-1,0.8s-0.9,0.3-1.5,0.3c-0.7,0-1.3-0.1-1.7-0.4
		c-0.3-0.2-0.6-0.4-0.8-0.8c-0.2-0.3-0.3-0.6-0.3-0.9c0-0.2,0.1-0.3,0.2-0.5c0.1-0.1,0.3-0.2,0.5-0.2c0.2,0,0.3,0,0.4,0.1
		c0.1,0.1,0.2,0.2,0.3,0.4c0.1,0.2,0.2,0.4,0.3,0.6c0.1,0.2,0.3,0.3,0.4,0.4c0.2,0.1,0.4,0.1,0.8,0.1c0.4,0,0.8-0.1,1-0.3
		c0.3-0.2,0.4-0.5,0.4-0.8c0-0.2-0.1-0.4-0.2-0.6c-0.1-0.1-0.3-0.3-0.6-0.3c-0.2-0.1-0.5-0.2-0.9-0.2c-0.5-0.1-0.9-0.3-1.3-0.4
		c-0.3-0.2-0.6-0.4-0.8-0.7c-0.2-0.3-0.3-0.6-0.3-1c0-0.4,0.1-0.7,0.3-1s0.5-0.5,0.9-0.7c0.4-0.2,0.9-0.2,1.4-0.2
		c0.4,0,0.8,0.1,1.1,0.2c0.3,0.1,0.6,0.3,0.8,0.4c0.2,0.2,0.4,0.4,0.5,0.6s0.1,0.4,0.1,0.6c0,0.2-0.1,0.3-0.2,0.5
		c-0.1,0.1-0.3,0.2-0.5,0.2c-0.2,0-0.3,0-0.4-0.1c-0.1-0.1-0.2-0.2-0.3-0.4c-0.1-0.3-0.3-0.5-0.5-0.6c-0.2-0.2-0.5-0.2-0.9-0.2
		c-0.4,0-0.7,0.1-0.9,0.2c-0.2,0.2-0.3,0.4-0.3,0.6c0,0.1,0,0.3,0.1,0.4s0.2,0.2,0.3,0.3s0.3,0.1,0.4,0.2s0.4,0.1,0.7,0.2
		c0.4,0.1,0.8,0.2,1.1,0.3c0.3,0.1,0.6,0.3,0.8,0.4c0.2,0.2,0.4,0.4,0.5,0.6c0.1,0.2,0.2,0.6,0.2,0.9
		C577.8,629.5,577.7,629.9,577.5,630.2z M578.3,624.6c0-0.2,0.1-0.3,0.2-0.4c0.1-0.1,0.3-0.2,0.5-0.2h4.6c0.3,0,0.4,0.1,0.6,0.2
		c0.1,0.1,0.2,0.3,0.2,0.4s-0.1,0.3-0.2,0.4c-0.1,0.1-0.3,0.2-0.6,0.2h-1.6v5.2c0,0.3-0.1,0.5-0.2,0.7c-0.1,0.1-0.3,0.2-0.5,0.2
		c-0.2,0-0.4-0.1-0.5-0.2c-0.1-0.1-0.2-0.4-0.2-0.7v-5.2h-1.6c-0.2,0-0.4-0.1-0.6-0.2C578.4,624.9,578.3,624.8,578.3,624.6z
		 M584.4,665c-0.1,0.1-0.3,0.2-0.5,0.2h-3.9c-0.3,0-0.5-0.1-0.7-0.2c-0.1-0.1-0.2-0.4-0.2-0.7v-5.4c0-0.2,0-0.4,0.1-0.5
		c0.1-0.1,0.2-0.2,0.3-0.3c0.1-0.1,0.3-0.1,0.5-0.1h3.8c0.2,0,0.4,0.1,0.5,0.2c0.1,0.1,0.2,0.2,0.2,0.4c0,0.2-0.1,0.3-0.2,0.4
		c-0.1,0.1-0.3,0.2-0.5,0.2h-3.3v1.8h3c0.2,0,0.4,0,0.5,0.1c0.1,0.1,0.2,0.2,0.2,0.4s-0.1,0.3-0.2,0.4c-0.1,0.1-0.3,0.2-0.5,0.2h-3
		v2h3.4c0.2,0,0.4,0.1,0.5,0.2c0.1,0.1,0.2,0.2,0.2,0.4C584.5,664.8,584.5,664.9,584.4,665z M590.6,665c-0.1,0.1-0.3,0.2-0.5,0.2
		h-3.5c-0.3,0-0.5-0.1-0.7-0.2c-0.1-0.1-0.2-0.4-0.2-0.7v-5.5c0-0.3,0.1-0.5,0.2-0.7c0.1-0.1,0.3-0.2,0.5-0.2c0.2,0,0.4,0.1,0.5,0.2
		c0.1,0.1,0.2,0.4,0.2,0.7v5.2h2.9c0.2,0,0.4,0.1,0.5,0.2c0.1,0.1,0.2,0.3,0.2,0.4C590.8,664.8,590.7,664.9,590.6,665z M590.6,631.1
		c-0.1,0.1-0.3,0.2-0.5,0.2c-0.1,0-0.2,0-0.3-0.1c-0.1,0-0.1-0.1-0.2-0.2c-0.1-0.1-0.1-0.2-0.2-0.3c-0.1-0.1-0.1-0.3-0.2-0.4
		l-0.3-0.9H586l-0.3,0.9c-0.1,0.4-0.2,0.6-0.3,0.7c-0.1,0.1-0.2,0.2-0.5,0.2c-0.2,0-0.3-0.1-0.5-0.2s-0.2-0.3-0.2-0.5
		c0-0.1,0-0.2,0-0.3s0.1-0.2,0.2-0.4l1.8-4.6c0.1-0.1,0.1-0.3,0.2-0.5c0.1-0.2,0.2-0.3,0.2-0.5c0.1-0.1,0.2-0.2,0.3-0.3
		c0.1-0.1,0.3-0.1,0.5-0.1c0.2,0,0.4,0,0.5,0.1c0.1,0.1,0.2,0.2,0.3,0.3c0.1,0.1,0.2,0.2,0.2,0.4c0.1,0.1,0.1,0.3,0.2,0.6l1.9,4.6
		c0.1,0.4,0.2,0.6,0.2,0.8C590.8,630.8,590.7,631,590.6,631.1z M597.1,665c-0.1,0.1-0.3,0.2-0.5,0.2h-3.9c-0.3,0-0.5-0.1-0.7-0.2
		c-0.1-0.1-0.2-0.4-0.2-0.7v-5.4c0-0.2,0-0.4,0.1-0.5c0.1-0.1,0.2-0.2,0.3-0.3c0.1-0.1,0.3-0.1,0.5-0.1h3.8c0.2,0,0.4,0.1,0.5,0.2
		c0.1,0.1,0.2,0.2,0.2,0.4c0,0.2-0.1,0.3-0.2,0.4c-0.1,0.1-0.3,0.2-0.5,0.2h-3.3v1.8h3c0.2,0,0.4,0,0.5,0.1c0.1,0.1,0.2,0.2,0.2,0.4
		s-0.1,0.3-0.2,0.4c-0.1,0.1-0.3,0.2-0.5,0.2h-3v2h3.4c0.2,0,0.4,0.1,0.5,0.2c0.1,0.1,0.2,0.2,0.2,0.4
		C597.2,664.8,597.2,664.9,597.1,665z M597.7,631c-0.1,0.1-0.1,0.2-0.2,0.2c-0.1,0.1-0.2,0.1-0.4,0.1c-0.2,0-0.3,0-0.4-0.1
		c-0.1-0.1-0.2-0.2-0.3-0.3c-0.1-0.1-0.2-0.3-0.3-0.5l-0.6-1c-0.2-0.4-0.4-0.6-0.6-0.8c-0.2-0.2-0.3-0.3-0.5-0.4s-0.4-0.1-0.6-0.1
		h-0.5v2.3c0,0.3-0.1,0.5-0.2,0.7s-0.3,0.2-0.5,0.2c-0.2,0-0.4-0.1-0.5-0.2s-0.2-0.4-0.2-0.7v-5.5c0-0.3,0.1-0.5,0.2-0.7
		s0.4-0.2,0.7-0.2h2.4c0.3,0,0.6,0,0.8,0c0.2,0,0.4,0.1,0.6,0.2c0.2,0.1,0.4,0.2,0.6,0.4s0.3,0.4,0.4,0.6c0.1,0.2,0.1,0.5,0.1,0.7
		c0,0.5-0.2,1-0.5,1.3c-0.3,0.3-0.8,0.5-1.4,0.7c0.3,0.1,0.5,0.3,0.7,0.6s0.4,0.6,0.6,0.9c0.2,0.3,0.3,0.6,0.4,0.8
		c0.1,0.2,0.2,0.4,0.2,0.5C597.8,630.8,597.8,630.9,597.7,631z M597.8,624.6c0-0.2,0.1-0.3,0.2-0.4c0.1-0.1,0.3-0.2,0.5-0.2h4.6
		c0.3,0,0.4,0.1,0.6,0.2c0.1,0.1,0.2,0.3,0.2,0.4s-0.1,0.3-0.2,0.4c-0.1,0.1-0.3,0.2-0.6,0.2h-1.6v5.2c0,0.3-0.1,0.5-0.2,0.7
		c-0.1,0.1-0.3,0.2-0.5,0.2c-0.2,0-0.4-0.1-0.5-0.2c-0.1-0.1-0.2-0.4-0.2-0.7v-5.2h-1.6c-0.2,0-0.4-0.1-0.6-0.2
		C597.9,624.9,597.8,624.8,597.8,624.6z M604.3,663.7c-0.1,0.3-0.3,0.5-0.5,0.8c-0.2,0.3-0.5,0.5-0.9,0.6s-0.8,0.2-1.3,0.2
		c-0.4,0-0.7,0-1-0.1s-0.6-0.2-0.8-0.3c-0.3-0.2-0.5-0.4-0.7-0.6c-0.2-0.2-0.3-0.5-0.5-0.8c-0.1-0.3-0.2-0.6-0.3-0.9
		c-0.1-0.3-0.1-0.7-0.1-1c0-0.6,0.1-1.1,0.3-1.5c0.2-0.5,0.4-0.8,0.7-1.2c0.3-0.3,0.7-0.6,1.1-0.7s0.9-0.3,1.3-0.3
		c0.6,0,1.1,0.1,1.5,0.3s0.8,0.5,1,0.9c0.2,0.3,0.4,0.7,0.4,1c0,0.2-0.1,0.3-0.2,0.4s-0.3,0.2-0.4,0.2c-0.2,0-0.3,0-0.4-0.1
		c-0.1-0.1-0.2-0.2-0.3-0.5c-0.2-0.4-0.4-0.6-0.7-0.8c-0.3-0.2-0.6-0.3-0.9-0.3c-0.6,0-1.1,0.2-1.4,0.7c-0.4,0.5-0.5,1.1-0.5,1.9
		c0,0.6,0.1,1,0.2,1.4c0.2,0.4,0.4,0.6,0.7,0.8s0.6,0.3,1,0.3c0.4,0,0.8-0.1,1.1-0.3c0.3-0.2,0.5-0.5,0.7-0.9
		c0.1-0.2,0.1-0.3,0.2-0.5c0.1-0.1,0.2-0.2,0.4-0.2c0.2,0,0.3,0.1,0.4,0.2s0.2,0.3,0.2,0.4C604.5,663.1,604.4,663.4,604.3,663.7z
		 M611,659.1c-0.1,0.1-0.3,0.2-0.6,0.2h-1.6v5.2c0,0.3-0.1,0.5-0.2,0.7c-0.1,0.1-0.3,0.2-0.5,0.2c-0.2,0-0.4-0.1-0.5-0.2
		c-0.1-0.1-0.2-0.4-0.2-0.7v-5.2h-1.6c-0.2,0-0.4-0.1-0.6-0.2c-0.1-0.1-0.2-0.3-0.2-0.4c0-0.2,0.1-0.3,0.2-0.4
		c0.1-0.1,0.3-0.2,0.5-0.2h4.6c0.3,0,0.4,0.1,0.6,0.2c0.1,0.1,0.2,0.3,0.2,0.4S611.1,658.9,611,659.1z M598.2,541.8
		c-8.8,0-16-7.2-16-16s7.2-16,16-16s16,7.2,16,16S607.1,541.8,598.2,541.8z M628.2,512.2c-8.8,0-16-7.2-16-16s7.2-16,16-16
		s16,7.2,16,16S637.1,512.2,628.2,512.2z"/>
	<path class="st0" d="M634.6,405.2c0.5-0.1,0.8-0.3,1-0.6c0.2-0.3,0.4-0.7,0.4-1.1c0-0.4-0.1-0.7-0.3-1c-0.2-0.3-0.5-0.5-0.8-0.6
		c-0.3-0.1-1-0.2-1.9-0.2h-2.5v3.7h2.5C633.6,405.4,634.2,405.3,634.6,405.2z"/>
	<polygon class="st0" points="586.4,628.4 588.5,628.4 587.4,625.4 	"/>
	<path class="st0" d="M596.2,626.1c0-0.2-0.1-0.4-0.2-0.5c-0.1-0.2-0.2-0.3-0.4-0.3c-0.2-0.1-0.5-0.1-1-0.1h-1.3v2h1.3
		c0.3,0,0.6,0,0.9-0.1c0.2-0.1,0.4-0.2,0.5-0.3C596.1,626.5,596.2,626.3,596.2,626.1z"/>
</g>
</svg>
