<?xml version="1.0" encoding="utf-8"?>
<!-- Generator: Adobe Illustrator 24.0.2, SVG Export Plug-In . SVG Version: 6.00 Build 0)  -->
<svg version="1.1" id="Layer_1" xmlns="http://www.w3.org/2000/svg" xmlns:xlink="http://www.w3.org/1999/xlink" x="0px" y="0px"
	 viewBox="0 0 7776 4644" style="enable-background:new 0 0 7776 4644;" xml:space="preserve">
<style type="text/css">
	.st0{fill:#FDB73E;}
	.st1{fill:none;stroke:#FDB73E;stroke-width:20;stroke-miterlimit:10;}
	.st2{fill:#FDB73E;stroke:#FDB73E;stroke-width:20;stroke-miterlimit:10;}
	.st3{fill:#FDB73E;stroke:#FDB73E;stroke-miterlimit:10;}
</style>
<g>
	<polygon class="st0" points="486.7,2986.5 647.3,2986.5 567,3200.6 	"/>
	<path class="st0" d="M646.6,2987L567,3199.2L487.4,2987H646.6 M648,2986H486l81,216L648,2986L648,2986z"/>
</g>
<line class="st1" x1="567" y1="3132" x2="567" y2="3564"/>
<g>
	<path class="st1" d="M6966.6,4419.7c298.5,0,540-241.5,540-540"/>
</g>
<g>
	<polygon class="st0" points="646.5,2827.2 860.6,2907.5 646.5,2987.8 	"/>
	<path class="st0" d="M647,2827.9l212.2,79.6L647,2987V2827.9 M646,2826.5v162l216-81L646,2826.5L646,2826.5z"/>
</g>
<line class="st1" x1="792" y1="2907.5" x2="1689" y2="2905"/>
<g>
	<polygon class="st0" points="486.9,2827.7 567.2,2613.6 647.4,2827.7 	"/>
	<path class="st0" d="M567.2,2615l79.6,212.2H487.6L567.2,2615 M567.2,2612.2l-81,216h162L567.2,2612.2L567.2,2612.2z"/>
</g>
<polyline class="st1" points="567.2,2682.2 567.2,2250.2 567,1116 "/>
<g>
	<path class="st1" d="M1107.3,576c-298.5,0-540,241.5-540,540"/>
</g>
<g>
	<path class="st1" d="M1489,734c-97.7-97.6-232.6-157.8-381.7-157.8"/>
</g>
<polyline class="st1" points="2596.4,1841.6 2291,1536.1 1488.9,734.3 "/>
<g>
	<polygon class="st0" points="2785.2,2144.6 2898.7,2031.1 2993.3,2239.2 	"/>
	<path class="st0" d="M2898.6,2031.9l93.8,206.3l-206.3-93.8L2898.6,2031.9 M2898.9,2030.2l-114.6,114.6l210,95.5L2898.9,2030.2
		L2898.9,2030.2z"/>
</g>
<line class="st2" x1="2945.4" y1="2191.3" x2="3250.9" y2="2496.8"/>
<g>
	<polygon class="st0" points="2785.5,1920.1 2993.7,1825.5 2899.1,2033.7 	"/>
	<path class="st0" d="M2992.7,1826.5l-93.8,206.3l-112.5-112.5L2992.7,1826.5 M2994.7,1824.5l-210,95.5l114.6,114.6L2994.7,1824.5
		L2994.7,1824.5z"/>
</g>
<line class="st1" x1="2945.8" y1="1873.4" x2="3251.2" y2="1568"/>
<g>
	<g>
		<polygon class="st0" points="2579.5,1825.2 2787.7,1919.8 2674.1,2033.3 		"/>
		<path class="st0" d="M2580.5,1826.2l206.3,93.8l-112.5,112.5L2580.5,1826.2 M2578.5,1824.2l95.5,210l114.6-114.6L2578.5,1824.2
			L2578.5,1824.2z"/>
	</g>
</g>
<g>
	<polygon class="st0" points="2673.9,2031.1 2787.5,2144.6 2579.3,2239.2 	"/>
	<path class="st0" d="M2674.1,2031.9l112.5,112.5l-206.3,93.8L2674.1,2031.9 M2673.8,2030.2l-95.5,210l210-95.5L2673.8,2030.2
		L2673.8,2030.2z"/>
</g>
<line class="st2" x1="2627.2" y1="2191.3" x2="2071" y2="2747"/>
<g>
	<path class="st1" d="M1689.1,2905.3c138-0.1,276.1-52.8,381.5-158.3"/>
</g>
<g>
	<polygon class="st0" points="3328.7,4024.2 3409,3810.1 3489.3,4024.2 	"/>
	<path class="st0" d="M3409,3811.6l79.6,212.2h-159.1L3409,3811.6 M3409,3808.7l-81,216h162L3409,3808.7L3409,3808.7z"/>
</g>
<path class="st1" d="M3250.6,2496.8c105.4,105.4,158.2,243.5,158.3,381.5l0.1,568.4v432"/>
<g>
	<polygon class="st0" points="3488.8,4023.5 3702.9,4103.8 3488.8,4184.1 	"/>
	<path class="st0" d="M3489.3,4024.3l212.2,79.6l-212.2,79.6V4024.3 M3488.3,4022.8v162l216-81L3488.3,4022.8L3488.3,4022.8z"/>
</g>
<line class="st2" x1="3634.3" y1="4103.8" x2="4066.3" y2="4103.8"/>
<g>
	<polygon class="st0" points="3115.7,4103.8 3329.8,4023.5 3329.8,4184.1 	"/>
	<path class="st0" d="M3329.3,4024.3v159.1l-212.2-79.6L3329.3,4024.3 M3330.3,4022.8l-216,81l216,81V4022.8L3330.3,4022.8z"/>
</g>
<g>
	<path class="st1" d="M3184.3,4103.8h-432L2374,4104H1107.5c-298.5,0-540-241.5-540-540"/>
</g>
<g>
	<path class="st1" d="M4016.6,1567.6c-211.1-211.1-552.6-211.1-763.7,0"/>
</g>
<g>
	<path class="st1" d="M7506.5,3880.1c0-298.5-241.5-540-540-540"/>
</g>
<g>
	<path class="st1" d="M6585.1,4261.6c97.7,97.6,232.6,157.8,381.7,157.8"/>
</g>
<g>
	<path class="st1" d="M6426.6,2799.6c0,298.5,241.5,540,540,540"/>
</g>
<g>
	<polygon class="st0" points="5031.4,4025.6 5111.7,3811.5 5192,4025.6 	"/>
	<path class="st0" d="M5111.7,3812.9l79.6,212.2h-159.1L5111.7,3812.9 M5111.7,3810.1l-81,216h162L5111.7,3810.1L5111.7,3810.1z"/>
</g>
<polyline class="st2" points="5111.7,3880.1 5111.7,3448.1 5112.7,2800.7 "/>
<g>
	<polygon class="st0" points="5191.5,4024.9 5405.6,4105.2 5191.5,4185.4 	"/>
	<path class="st0" d="M5192,4025.6l212.2,79.6l-212.2,79.6V4025.6 M5191,4024.2v162l216-81L5191,4024.2L5191,4024.2z"/>
</g>
<path class="st1" d="M6584.9,4261.5c-97.7-97.6-232.6-157.8-381.7-157.8l-209.2,1.4l-619-0.2"/>
<g>
	<polygon class="st0" points="4818.5,4105.2 5032.5,4024.9 5032.5,4185.4 	"/>
	<path class="st0" d="M5032,4025.6v159.1l-212.2-79.6L5032,4025.6 M5033,4024.2l-216,81l216,81V4024.2L5033,4024.2z"/>
</g>
<g>
	<polyline class="st1" points="4887,4105.2 4455,4105.2 4044.3,4104.8 	"/>
	<polyline class="st0" points="4887,4105.2 4455,4105.2 4044.3,4104.8 	"/>
</g>
<g>
	<polygon class="st0" points="4856.8,618.1 5017.4,617.9 4937.3,832.1 	"/>
	<path class="st0" d="M5016.6,618.4l-79.3,212.2l-79.8-212.1L5016.6,618.4 M5018.1,617.4l-162,0.2l81.2,215.9L5018.1,617.4
		L5018.1,617.4z"/>
</g>
<line class="st1" x1="4937.7" y1="1195.5" x2="4937.2" y2="763.5"/>
<g>
	<path class="st1" d="M4397.6,1725.5c298.5,0,540-241.5,540-540"/>
</g>
<g>
	<path class="st1" d="M4016.2,1567.4c97.7,97.6,232.6,157.8,381.7,157.8"/>
</g>
<g>
	<polygon class="st0" points="5016.8,458.5 5230.8,538.8 5016.8,619.1 	"/>
	<path class="st0" d="M5017.3,459.2l212.2,79.6l-212.2,79.6V459.2 M5016.3,457.8v162l216-81L5016.3,457.8L5016.3,457.8z"/>
</g>
<path class="st1" d="M7308.2,1078.9c0-298.5-241.5-540-540-540l-1173.9-0.1h-432"/>
<g>
	<polygon class="st0" points="2110.1,454.9 2324.1,535.2 2110.1,615.5 	"/>
	<path class="st0" d="M2110.6,455.7l212.2,79.6l-212.2,79.6V455.7 M2109.6,454.2v162l216-81L2109.6,454.2L2109.6,454.2z"/>
</g>
<path class="st1" d="M2253.6,535.2h432c50.1-0.1,100.3-0.2,150.4-0.2c14.7,0,64.8,0,72,0c126.5,0.6,240.9,84.1,351,101
	c192.9,29.6,231.6-167.2,460-148c105.6,8.9,123.6,53.1,258,55c43.6,0.6,94.5-3.3,228-4c32.2-0.2,58.7-0.1,76,0"/>
<g>
	<polygon class="st0" points="4644.1,539.2 4858.2,458.9 4858.2,619.5 	"/>
	<path class="st0" d="M4857.7,459.6v159.1l-212.2-79.6L4857.7,459.6 M4858.7,458.2l-216,81l216,81V458.2L4858.7,458.2z"/>
</g>
<line class="st1" x1="4280.7" y1="539.2" x2="4712.7" y2="539.2"/>
<g>
	<polygon class="st0" points="4819.1,2143.7 5033.2,2063.4 5033.2,2224 	"/>
	<path class="st0" d="M5032.7,2064.2v159.1l-212.2-79.6L5032.7,2064.2 M5033.7,2062.7l-216,81l216,81V2062.7L5033.7,2062.7z"/>
</g>
<line class="st1" x1="4455.7" y1="2143.7" x2="4887.7" y2="2143.7"/>
<g>
	<polygon class="st0" points="5032.4,2223.2 5192.9,2223.2 5112.7,2437.3 	"/>
	<path class="st0" d="M5192.2,2223.7l-79.6,212.2l-79.6-212.2H5192.2 M5193.7,2222.7h-162l81,216L5193.7,2222.7L5193.7,2222.7z"/>
</g>
<line class="st1" x1="5112.7" y1="2800.7" x2="5112.7" y2="2368.7"/>
<g>
	<polygon class="st0" points="5192.2,2063 5406.3,2143.3 5192.2,2223.6 	"/>
	<path class="st0" d="M5192.7,2063.7l212.2,79.6l-212.2,79.6V2063.7 M5191.7,2062.3v162l216-81L5191.7,2062.3L5191.7,2062.3z"/>
</g>
<line class="st1" x1="5769.7" y1="2143.3" x2="5337.7" y2="2143.3"/>
<g>
	<polygon class="st0" points="6346.8,2222.6 6507.3,2222.6 6427,2436.6 	"/>
	<path class="st0" d="M6506.6,2223.1l-79.6,212.2l-79.6-212.2H6506.6 M6508,2222.1h-162l81,216L6508,2222.1L6508,2222.1z"/>
</g>
<line class="st1" x1="6427" y1="2800.1" x2="6427" y2="2368.1"/>
<g>
	<polygon class="st0" points="6133.5,2143.1 6347.5,2062.8 6347.5,2223.3 	"/>
	<path class="st0" d="M6347,2063.5v159.1l-212.2-79.6L6347,2063.5 M6348,2062.1l-216,81l216,81V2062.1L6348,2062.1z"/>
</g>
<line class="st1" x1="5770" y1="2143.1" x2="6202" y2="2143.1"/>
<polyline class="st3" points="3627.2,2653.8 3837.2,2558.4 3741.7,2768.4 "/>
<line class="st1" x1="3786.3" y1="2609.3" x2="4091.7" y2="2303.8"/>
<g>
	<path class="st1" d="M4473,2145.2c-138,0.1-276.1,52.8-381.5,158.3"/>
</g>
<g>
	<polygon class="st0" points="5031.3,2066.1 5111.5,1852 5191.8,2066.1 	"/>
	<path class="st0" d="M5111.5,1853.4l79.6,212.2H5032L5111.5,1853.4 M5111.5,1850.6l-81,216h162L5111.5,1850.6L5111.5,1850.6z"/>
</g>
<line class="st1" x1="5111.5" y1="1488.6" x2="5111.5" y2="1920.6"/>
<g>
	<path class="st1" d="M5651.1,949c-298.5,0-540,241.5-540,540"/>
</g>
<g>
	<path class="st1" d="M6768.2,1618.9c298.5,0,540-241.5,540-540"/>
</g>
<g>
	<path class="st1" d="M6768.5,1619.3c-149.1,0-284-60.3-381.7-157.8l-354.4-355.1c-97.7-97.6-232.6-157.8-381.7-157.8"/>
</g>
<g>
	<rect x="4856.5" y="458.5" class="st0" width="162" height="162"/>
	<path class="st0" d="M5018,459v161h-161V459H5018 M5019,458h-163v163h163V458L5019,458z"/>
</g>
<g>
	<rect x="486.5" y="2826.5" class="st0" width="162" height="162"/>
	<path class="st0" d="M648,2827v161H487v-161H648 M649,2826H486v163h163V2826L649,2826z"/>
</g>
<g>
	<rect x="5030.5" y="2064.5" class="st0" width="162" height="162"/>
	<path class="st0" d="M5192,2065v161h-161v-161H5192 M5193,2064h-163v163h163V2064L5193,2064z"/>
</g>
<g>
	<rect x="3328.5" y="4023.5" class="st0" width="162" height="162"/>
	<path class="st0" d="M3490,4024v161h-161v-161H3490 M3491,4023h-163v163h163V4023L3491,4023z"/>
</g>
<g>
	<rect x="5030.5" y="4023.5" class="st0" width="162" height="162"/>
	<path class="st0" d="M5192,4024v161h-161v-161H5192 M5193,4023h-163v163h163V4023L5193,4023z"/>
</g>
<g>
	<rect x="6345.5" y="2062.5" class="st0" width="162" height="162"/>
	<path class="st0" d="M6507,2063v161h-161v-161H6507 M6508,2062h-163v163h163V2062L6508,2062z"/>
</g>
<g>
	
		<rect x="2705.2" y="1951.1" transform="matrix(0.7071 -0.7071 0.7071 0.7071 -620.887 2565.3198)" class="st0" width="162" height="162"/>
	<path class="st0" d="M2786.2,1918.3l113.8,113.8L2786.2,2146l-113.8-113.8L2786.2,1918.3 M2786.2,1916.9l-115.3,115.3l115.3,115.3
		l115.3-115.3L2786.2,1916.9L2786.2,1916.9z"/>
</g>
</svg>
