<svg width="232" height="40" viewBox="0 0 232 40" fill="none" xmlns="http://www.w3.org/2000/svg">
<path d="M2.888 31.248C2.03467 31.248 1.39467 31.0133 0.968 30.544C0.541333 30.0747 0.328 29.5947 0.328 29.104C0.328 28.528 0.434667 28.0907 0.648 27.792C0.861334 27.4933 1.27733 27.2693 1.896 27.12C2.70667 26.9493 3.54933 26.736 4.424 26.48C5.32 26.224 6.17333 25.9573 6.984 25.68C7.816 25.3813 8.54133 25.0827 9.16 24.784C9.77867 24.464 10.2267 24.1653 10.504 23.888C10.1627 23.696 9.61867 23.472 8.872 23.216C8.12533 22.9387 7.29333 22.6187 6.376 22.256C5.48 21.872 4.616 21.424 3.784 20.912C2.952 20.4 2.26933 19.8027 1.736 19.12C1.20267 18.4373 0.936 17.6587 0.936 16.784C0.936 15.568 1.24533 14.4267 1.864 13.36C2.48267 12.2933 3.304 11.3013 4.328 10.384C5.352 9.46667 6.46133 8.624 7.656 7.856C8.872 7.088 10.0773 6.39467 11.272 5.776C12.488 5.136 13.576 4.57066 14.536 4.08C14.8987 3.86666 15.24 3.728 15.56 3.664C15.9013 3.57867 16.2107 3.536 16.488 3.536C17.448 3.536 18.1093 3.77067 18.472 4.24C18.8347 4.70933 19.016 5.18933 19.016 5.68C19.016 6.02133 18.856 6.42667 18.536 6.896C18.216 7.344 17.704 7.76 17 8.144C16.3173 8.528 15.4107 8.80533 14.28 8.976C14.088 8.99733 13.9173 9.01867 13.768 9.04C12.9147 9.46667 11.9973 9.97867 11.016 10.576C10.0347 11.1733 9.10667 11.8027 8.232 12.464C7.37867 13.104 6.67467 13.744 6.12 14.384C5.56533 15.024 5.288 15.6 5.288 16.112C5.288 16.688 5.52267 17.2107 5.992 17.68C6.46133 18.128 7.05867 18.544 7.784 18.928C8.53067 19.2907 9.30933 19.6427 10.12 19.984C10.952 20.3253 11.7307 20.6773 12.456 21.04C13.2027 21.3813 13.8107 21.7653 14.28 22.192C14.7493 22.6187 14.984 23.0987 14.984 23.632C14.984 24.3573 14.7387 25.0507 14.248 25.712C13.7573 26.3733 13.1173 26.992 12.328 27.568C11.5387 28.1227 10.6747 28.624 9.736 29.072C8.79733 29.52 7.86933 29.904 6.952 30.224C6.056 30.5653 5.24533 30.8213 4.52 30.992C3.79467 31.1627 3.25067 31.248 2.888 31.248ZM22.4725 32.496C21.4912 32.496 20.7872 32.2187 20.3605 31.664C19.9338 31.1093 19.7205 30.2987 19.7205 29.232C19.7205 28.2507 19.9018 26.9707 20.2645 25.392C20.6485 23.792 21.1498 22.0107 21.7685 20.048C22.4085 18.064 23.1232 16.0267 23.9125 13.936C24.7018 11.824 25.5232 9.75467 26.3765 7.728C27.2298 5.68 28.0618 3.80267 28.8725 2.096C29.2565 1.34933 29.6618 0.837332 30.0885 0.559999C30.5152 0.282666 30.9845 0.143999 31.4965 0.143999C31.9872 0.143999 32.4032 0.282666 32.7445 0.559999C33.0858 0.815999 33.2565 1.232 33.2565 1.808C33.2565 1.936 33.0858 2.42666 32.7445 3.28C32.4032 4.112 31.9552 5.2 31.4005 6.544C30.8458 7.86667 30.2378 9.36 29.5765 11.024C28.9152 12.6667 28.2538 14.384 27.5925 16.176C26.9312 17.9467 26.3338 19.696 25.8005 21.424C25.2672 23.152 24.8405 24.752 24.5205 26.224C25.2672 25.2213 26.0672 24.112 26.9205 22.896C27.7952 21.6587 28.6805 20.432 29.5765 19.216C30.4938 17.9787 31.3898 16.848 32.2645 15.824C33.1605 14.8 33.9925 13.9787 34.7605 13.36C35.5285 12.7413 36.2005 12.432 36.7765 12.432C37.8432 12.432 38.6965 12.7307 39.3365 13.328C39.9978 13.904 40.3285 14.9067 40.3285 16.336C40.3285 16.9973 40.2005 17.7973 39.9445 18.736C39.6885 19.6533 39.3792 20.624 39.0165 21.648C38.6752 22.6507 38.3765 23.6213 38.1205 24.56C37.8645 25.4987 37.7365 26.32 37.7365 27.024C37.7365 27.408 37.9178 27.6 38.2805 27.6C39.3258 27.6 40.3818 27.376 41.4485 26.928C42.5365 26.48 43.5712 25.9253 44.5525 25.264C45.5552 24.5813 46.4618 23.9093 47.2725 23.248C48.1045 22.5653 48.7765 22 49.2885 21.552C49.6512 21.2107 49.9818 20.9867 50.2805 20.88C50.5792 20.752 50.8565 20.688 51.1125 20.688C51.9872 20.688 52.4245 21.1253 52.4245 22C52.4245 22.1707 52.3925 22.384 52.3285 22.64C52.2645 22.8747 52.0618 23.1733 51.7205 23.536C51.3792 23.8987 50.8672 24.4107 50.1845 25.072C49.5018 25.7333 48.7018 26.4373 47.7845 27.184C46.8885 27.9307 45.9072 28.6453 44.8405 29.328C43.7952 29.9893 42.7178 30.5333 41.6085 30.96C40.4992 31.3867 39.4218 31.6 38.3765 31.6C36.7978 31.6 35.5818 31.152 34.7285 30.256C33.8752 29.3813 33.4485 28.1867 33.4485 26.672C33.4485 25.6267 33.6618 24.3147 34.0885 22.736C34.5152 21.136 34.9952 19.504 35.5285 17.84C34.7818 18.5653 34.0032 19.4293 33.1925 20.432C32.3818 21.4133 31.5605 22.4587 30.7285 23.568C29.8965 24.656 29.0752 25.7333 28.2645 26.8C27.4752 27.8453 26.7178 28.8053 25.9925 29.68C25.2672 30.5333 24.6058 31.216 24.0085 31.728C23.4112 32.24 22.8992 32.496 22.4725 32.496ZM51.402 31.216C50.7193 31.216 50.1007 31.024 49.546 30.64C48.9913 30.2773 48.554 29.7973 48.234 29.2C47.914 28.5813 47.754 27.92 47.754 27.216C47.754 25.8933 48.042 24.6027 48.618 23.344C49.2153 22.0853 49.994 20.8907 50.954 19.76C51.914 18.6293 52.9593 17.5947 54.09 16.656C55.242 15.696 56.3833 14.8747 57.514 14.192C58.666 13.5093 59.7113 12.976 60.65 12.592C61.61 12.208 62.3567 12.016 62.89 12.016C63.5087 12.016 64.01 12.1547 64.394 12.432C64.7993 12.688 65.002 13.0933 65.002 13.648C65.002 13.8187 64.9593 13.9573 64.874 14.064C65.1513 14.128 65.3753 14.288 65.546 14.544C65.7167 14.8 65.802 15.184 65.802 15.696C65.802 15.9093 65.7487 16.464 65.642 17.36C65.5353 18.256 65.418 19.344 65.29 20.624C65.1833 21.904 65.13 23.2373 65.13 24.624C65.13 24.8373 65.162 25.0293 65.226 25.2C65.29 25.3493 65.4287 25.424 65.642 25.424C66.4953 25.424 67.3593 25.2533 68.234 24.912C69.13 24.5493 69.994 24.112 70.826 23.6C71.6793 23.0667 72.4473 22.544 73.13 22.032C73.834 21.4987 74.4207 21.0613 74.89 20.72C75.3807 20.3573 75.7007 20.176 75.85 20.176C76.5753 20.176 76.938 20.5387 76.938 21.264C76.938 21.456 76.7033 21.8613 76.234 22.48C75.786 23.0773 75.1673 23.7707 74.378 24.56C73.5887 25.328 72.7033 26.096 71.722 26.864C70.762 27.6107 69.7593 28.2293 68.714 28.72C67.69 29.2107 66.698 29.456 65.738 29.456C64.5647 29.456 63.6687 29.1787 63.05 28.624C62.4527 28.0693 62.026 27.3227 61.77 26.384C61.5353 25.424 61.4073 24.3467 61.386 23.152C60.298 24.7093 59.1673 26.096 57.994 27.312C56.842 28.5067 55.7007 29.456 54.57 30.16C53.4393 30.864 52.3833 31.216 51.402 31.216ZM62.73 15.184C60.6393 16.1867 58.762 17.3387 57.098 18.64C55.434 19.92 54.1113 21.264 53.13 22.672C52.17 24.08 51.69 25.4347 51.69 26.736C51.69 27.0987 51.8607 27.28 52.202 27.28C52.6073 27.28 53.1407 27.0453 53.802 26.576C54.4847 26.1067 55.2207 25.488 56.01 24.72C56.7993 23.9307 57.5887 23.056 58.378 22.096C59.1673 21.1147 59.9033 20.112 60.586 19.088C61.2687 18.064 61.8127 17.0827 62.218 16.144C62.3673 15.8027 62.538 15.4827 62.73 15.184ZM87.5983 12.88C88.7716 10.0853 89.8063 7.20533 90.7023 4.24C90.8729 3.64266 91.1183 3.184 91.4383 2.864C91.7796 2.544 92.2489 2.384 92.8463 2.384C93.3369 2.384 93.7103 2.53333 93.9663 2.832C94.2223 3.10933 94.3503 3.49333 94.3503 3.984C94.3503 4.38933 94.1796 5.11467 93.8383 6.16C93.4969 7.184 93.0809 8.48533 92.5903 10.064C92.0996 11.6427 91.6089 13.4667 91.1183 15.536C90.6276 17.6053 90.2116 19.8773 89.8703 22.352C89.5289 24.8267 89.3583 27.472 89.3583 30.288C89.3583 31.056 89.2089 31.6853 88.9103 32.176C88.6329 32.688 88.1423 32.944 87.4383 32.944C86.6703 32.944 86.1049 32.6773 85.7423 32.144C85.4009 31.6107 85.2303 30.928 85.2303 30.096C85.2303 28.4533 85.2836 27.088 85.3903 26C85.5183 24.8907 85.6463 23.9413 85.7743 23.152C84.7289 24.944 83.6196 26.4907 82.4463 27.792C81.2943 29.072 80.1849 30.0533 79.1183 30.736C78.0516 31.44 77.1343 31.792 76.3663 31.792C75.1076 31.792 74.0836 31.44 73.2943 30.736C72.5049 30.032 72.1103 28.9653 72.1103 27.536C72.1103 26.4267 72.3769 25.2853 72.9103 24.112C73.4436 22.9173 74.1476 21.744 75.0223 20.592C75.8969 19.44 76.8569 18.3627 77.9023 17.36C78.9689 16.336 80.0356 15.44 81.1023 14.672C82.1689 13.8827 83.1609 13.264 84.0783 12.816C84.9956 12.368 85.7423 12.144 86.3183 12.144C86.9583 12.144 87.3849 12.3893 87.5983 12.88ZM86.8623 14.608C86.7343 14.6933 86.5956 14.7787 86.4463 14.864C86.3183 14.928 86.1903 15.0027 86.0623 15.088C85.2516 15.6 84.3876 16.2187 83.4703 16.944C82.5529 17.648 81.6463 18.4373 80.7503 19.312C79.8543 20.1653 79.0329 21.0613 78.2863 22C77.5609 22.9173 76.9743 23.8347 76.5263 24.752C76.0996 25.648 75.8863 26.512 75.8863 27.344C75.8863 27.4933 75.9503 27.6 76.0783 27.664C76.2063 27.728 76.3236 27.76 76.4303 27.76C77.1769 27.76 77.9769 27.4293 78.8303 26.768C79.7049 26.1067 80.5903 25.1893 81.4863 24.016C82.4036 22.8213 83.3103 21.424 84.2063 19.824C85.1236 18.224 86.0089 16.4853 86.8623 14.608ZM97.808 30.48C97.2107 30.48 96.6773 30.2773 96.208 29.872C95.76 29.4667 95.536 28.8053 95.536 27.888C95.536 27.3973 95.6 26.704 95.728 25.808C95.8773 24.912 96.0693 23.9413 96.304 22.896C96.5387 21.8293 96.7947 20.7733 97.072 19.728C97.3707 18.6827 97.6587 17.7547 97.936 16.944C98.2133 16.112 98.4587 15.4933 98.672 15.088C98.9493 14.5973 99.2053 14.2987 99.44 14.192C99.696 14.064 99.9413 14 100.176 14C100.603 14 100.997 14.128 101.36 14.384C101.744 14.64 101.936 15.2053 101.936 16.08C101.936 16.4213 101.872 16.976 101.744 17.744C101.616 18.4907 101.456 19.3653 101.264 20.368C101.072 21.3707 100.859 22.4053 100.624 23.472C100.411 24.5387 100.197 25.552 99.984 26.512C99.792 27.4507 99.632 28.24 99.504 28.88C99.3973 29.4133 99.1733 29.808 98.832 30.064C98.512 30.3413 98.1707 30.48 97.808 30.48ZM101.488 10.832C100.784 10.832 100.133 10.6293 99.536 10.224C98.9387 9.79733 98.64 9.14667 98.64 8.272C98.64 7.54667 98.8213 6.96 99.184 6.512C99.5467 6.064 99.9733 5.744 100.464 5.552C100.976 5.33867 101.424 5.232 101.808 5.232C102.192 5.232 102.619 5.31733 103.088 5.488C103.557 5.63733 103.963 5.92533 104.304 6.352C104.667 6.75733 104.848 7.344 104.848 8.112C104.848 8.624 104.667 9.09333 104.304 9.52C103.941 9.92533 103.493 10.2453 102.96 10.48C102.448 10.7147 101.957 10.832 101.488 10.832Z" fill="white"/>
<path d="M122.612 32.112C122.164 32.112 121.748 32.0053 121.364 31.792C120.98 31.5787 120.671 31.2053 120.436 30.672C120.223 30.1387 120.159 29.392 120.244 28.432C119.497 25.9147 118.815 23.408 118.196 20.912C117.599 18.416 117.033 15.8453 116.5 13.2C115.732 14.9493 115.039 16.7413 114.42 18.576C113.801 20.3893 113.247 22.1067 112.756 23.728C112.265 25.328 111.817 26.672 111.412 27.76C111.092 28.72 110.772 29.4347 110.452 29.904C110.132 30.352 109.812 30.64 109.492 30.768C109.193 30.9173 108.895 30.992 108.596 30.992C107.871 30.992 107.316 30.8213 106.932 30.48C106.548 30.1387 106.356 29.52 106.356 28.624C106.356 28.1547 106.484 27.44 106.74 26.48C106.996 25.4987 107.337 24.3787 107.764 23.12C108.212 21.84 108.724 20.5067 109.3 19.12C109.876 17.712 110.484 16.3467 111.124 15.024C111.764 13.7013 112.404 12.5067 113.044 11.44C113.684 10.352 114.303 9.488 114.9 8.848C115.497 8.208 116.031 7.888 116.5 7.888C116.905 7.888 117.279 7.93067 117.62 8.016C117.961 8.08 118.292 8.272 118.612 8.592C118.932 8.89067 119.263 9.392 119.604 10.096C119.881 10.6293 120.159 11.3973 120.436 12.4C120.713 13.3813 120.98 14.512 121.236 15.792C121.492 17.0507 121.748 18.3733 122.004 19.76C122.281 21.1467 122.559 22.5013 122.836 23.824C123.647 20.1333 124.297 16.8907 124.788 14.096C125.3 11.28 125.673 9.072 125.908 7.472C126.143 5.872 126.271 5.02933 126.292 4.944C126.441 4.32533 126.601 3.89867 126.772 3.664C126.943 3.408 127.135 3.25867 127.348 3.216C127.561 3.152 127.807 3.12 128.084 3.12C128.105 3.12 128.116 3.12 128.116 3.12C128.671 3.12 129.215 3.344 129.748 3.792C130.303 4.24 130.58 4.848 130.58 5.616C130.58 5.872 130.527 6.448 130.42 7.344C130.313 8.21867 130.153 9.328 129.94 10.672C129.748 11.9947 129.492 13.4667 129.172 15.088C128.852 16.688 128.479 18.3627 128.052 20.112C127.647 21.84 127.188 23.5573 126.676 25.264C126.164 26.9707 125.599 28.5707 124.98 30.064C124.639 30.9173 124.233 31.472 123.764 31.728C123.316 31.984 122.932 32.112 122.612 32.112ZM136.183 31.216C135.501 31.216 134.882 31.024 134.327 30.64C133.773 30.2773 133.335 29.7973 133.015 29.2C132.695 28.5813 132.535 27.92 132.535 27.216C132.535 25.8933 132.823 24.6027 133.399 23.344C133.997 22.0853 134.775 20.8907 135.735 19.76C136.695 18.6293 137.741 17.5947 138.871 16.656C140.023 15.696 141.165 14.8747 142.295 14.192C143.447 13.5093 144.493 12.976 145.431 12.592C146.391 12.208 147.138 12.016 147.671 12.016C148.29 12.016 148.791 12.1547 149.175 12.432C149.581 12.688 149.783 13.0933 149.783 13.648C149.783 13.8187 149.741 13.9573 149.655 14.064C149.933 14.128 150.157 14.288 150.327 14.544C150.498 14.8 150.583 15.184 150.583 15.696C150.583 15.9093 150.53 16.464 150.423 17.36C150.317 18.256 150.199 19.344 150.071 20.624C149.965 21.904 149.911 23.2373 149.911 24.624C149.911 24.8373 149.943 25.0293 150.007 25.2C150.071 25.3493 150.21 25.424 150.423 25.424C151.277 25.424 152.141 25.2533 153.015 24.912C153.911 24.5493 154.775 24.112 155.607 23.6C156.461 23.0667 157.229 22.544 157.911 22.032C158.615 21.4987 159.202 21.0613 159.671 20.72C160.162 20.3573 160.482 20.176 160.631 20.176C161.357 20.176 161.719 20.5387 161.719 21.264C161.719 21.456 161.485 21.8613 161.015 22.48C160.567 23.0773 159.949 23.7707 159.159 24.56C158.37 25.328 157.485 26.096 156.503 26.864C155.543 27.6107 154.541 28.2293 153.495 28.72C152.471 29.2107 151.479 29.456 150.519 29.456C149.346 29.456 148.45 29.1787 147.831 28.624C147.234 28.0693 146.807 27.3227 146.551 26.384C146.317 25.424 146.189 24.3467 146.167 23.152C145.079 24.7093 143.949 26.096 142.775 27.312C141.623 28.5067 140.482 29.456 139.351 30.16C138.221 30.864 137.165 31.216 136.183 31.216ZM147.511 15.184C145.421 16.1867 143.543 17.3387 141.879 18.64C140.215 19.92 138.893 21.264 137.911 22.672C136.951 24.08 136.471 25.4347 136.471 26.736C136.471 27.0987 136.642 27.28 136.983 27.28C137.389 27.28 137.922 27.0453 138.583 26.576C139.266 26.1067 140.002 25.488 140.791 24.72C141.581 23.9307 142.37 23.056 143.159 22.096C143.949 21.1147 144.685 20.112 145.367 19.088C146.05 18.064 146.594 17.0827 146.999 16.144C147.149 15.8027 147.319 15.4827 147.511 15.184ZM161.347 39.216C159.747 39.216 158.531 39.0987 157.699 38.864C156.888 38.6293 156.334 38.32 156.035 37.936C155.736 37.5733 155.587 37.2 155.587 36.816C155.587 36.2827 155.758 35.8453 156.099 35.504C156.462 35.1627 156.931 34.992 157.507 34.992C157.891 34.992 158.446 35.0453 159.171 35.152C159.896 35.2587 160.622 35.312 161.347 35.312C163.48 35.312 165.24 34.8 166.627 33.776C168.014 32.7733 169.102 31.248 169.891 29.2C170.68 27.1307 171.224 24.528 171.523 21.392C170.051 23.8027 168.419 25.7333 166.627 27.184C164.856 28.6347 163.011 29.36 161.091 29.36C158.83 29.36 157.699 28.2507 157.699 26.032C157.699 24.9653 157.987 23.8453 158.563 22.672C159.139 21.4987 159.907 20.336 160.867 19.184C161.827 18.032 162.883 16.944 164.035 15.92C165.187 14.8747 166.339 13.9573 167.491 13.168C168.664 12.3787 169.752 11.76 170.755 11.312C171.758 10.8427 172.568 10.608 173.187 10.608C173.678 10.608 174.104 10.6933 174.467 10.864C174.851 11.0347 175.15 11.376 175.363 11.888C175.576 12.3787 175.683 13.104 175.683 14.064C175.683 16.7307 175.587 19.312 175.395 21.808C175.203 24.2827 174.83 26.576 174.275 28.688C173.72 30.8 172.91 32.6453 171.843 34.224C170.798 35.8027 169.422 37.0293 167.715 37.904C166.008 38.7787 163.886 39.216 161.347 39.216ZM161.795 25.392C161.795 25.5413 161.859 25.616 161.987 25.616C162.414 25.616 162.99 25.392 163.715 24.944C164.44 24.4747 165.219 23.856 166.051 23.088C166.904 22.2987 167.736 21.424 168.547 20.464C169.358 19.4827 170.072 18.4693 170.691 17.424C171.331 16.3787 171.79 15.3653 172.067 14.384C170.958 15.024 169.806 15.7707 168.611 16.624C167.438 17.456 166.328 18.352 165.283 19.312C164.259 20.272 163.416 21.2747 162.755 22.32C162.115 23.344 161.795 24.368 161.795 25.392ZM193.039 31.44C192.549 31.44 192.101 31.2373 191.695 30.832C191.311 30.448 191.119 29.7973 191.119 28.88C191.119 28.1973 191.173 27.248 191.279 26.032C191.407 24.7947 191.642 23.2053 191.983 21.264C191.237 22.8 190.458 24.1653 189.647 25.36C188.837 26.5547 188.037 27.4933 187.247 28.176C186.479 28.8373 185.743 29.168 185.039 29.168C183.909 29.168 183.013 28.8267 182.351 28.144C181.69 27.44 181.359 26.128 181.359 24.208C181.359 23.2907 181.434 22.256 181.583 21.104C181.754 19.952 181.967 18.8 182.223 17.648C182.479 16.496 182.735 15.472 182.991 14.576C183.269 13.6587 183.514 12.976 183.727 12.528C183.898 12.144 184.111 11.8453 184.367 11.632C184.645 11.4187 184.997 11.312 185.423 11.312C186.106 11.312 186.629 11.536 186.991 11.984C187.354 12.432 187.535 12.8907 187.535 13.36C187.535 13.7227 187.45 14.2453 187.279 14.928C187.13 15.6107 186.938 16.368 186.703 17.2C186.49 18.032 186.266 18.8853 186.031 19.76C185.797 20.6347 185.594 21.456 185.423 22.224C185.274 22.992 185.199 23.6427 185.199 24.176C185.199 24.8373 185.455 25.168 185.967 25.168C186.266 25.168 186.65 24.88 187.119 24.304C187.61 23.728 188.122 22.96 188.655 22C189.21 21.0187 189.765 19.952 190.319 18.8C190.895 17.6267 191.418 16.4427 191.887 15.248C192.378 14.032 192.794 12.912 193.135 11.888C193.349 11.248 193.637 10.8 193.999 10.544C194.362 10.288 194.778 10.16 195.247 10.16C195.973 10.16 196.527 10.3627 196.911 10.768C197.317 11.1733 197.519 11.7493 197.519 12.496C197.519 12.8373 197.466 13.4133 197.359 14.224C197.253 15.0347 197.114 15.984 196.943 17.072C196.794 18.16 196.613 19.312 196.399 20.528C196.186 21.744 195.973 22.9387 195.759 24.112C195.567 25.2853 195.375 26.3627 195.183 27.344C194.991 28.304 194.831 29.072 194.703 29.648C194.49 30.5013 194.234 31.0133 193.935 31.184C193.637 31.3547 193.338 31.44 193.039 31.44ZM203.277 30.48C202.679 30.48 202.146 30.2773 201.677 29.872C201.229 29.4667 201.005 28.8053 201.005 27.888C201.005 27.3973 201.069 26.704 201.197 25.808C201.346 24.912 201.538 23.9413 201.773 22.896C202.007 21.8293 202.263 20.7733 202.541 19.728C202.839 18.6827 203.127 17.7547 203.405 16.944C203.682 16.112 203.927 15.4933 204.141 15.088C204.418 14.5973 204.674 14.2987 204.909 14.192C205.165 14.064 205.41 14 205.645 14C206.071 14 206.466 14.128 206.829 14.384C207.213 14.64 207.405 15.2053 207.405 16.08C207.405 16.4213 207.341 16.976 207.213 17.744C207.085 18.4907 206.925 19.3653 206.733 20.368C206.541 21.3707 206.327 22.4053 206.093 23.472C205.879 24.5387 205.666 25.552 205.453 26.512C205.261 27.4507 205.101 28.24 204.973 28.88C204.866 29.4133 204.642 29.808 204.301 30.064C203.981 30.3413 203.639 30.48 203.277 30.48ZM206.957 10.832C206.253 10.832 205.602 10.6293 205.005 10.224C204.407 9.79733 204.109 9.14667 204.109 8.272C204.109 7.54667 204.29 6.96 204.653 6.512C205.015 6.064 205.442 5.744 205.933 5.552C206.445 5.33867 206.893 5.232 207.277 5.232C207.661 5.232 208.087 5.31733 208.557 5.488C209.026 5.63733 209.431 5.92533 209.773 6.352C210.135 6.75733 210.317 7.344 210.317 8.112C210.317 8.624 210.135 9.09333 209.773 9.52C209.41 9.92533 208.962 10.2453 208.429 10.48C207.917 10.7147 207.426 10.832 206.957 10.832ZM215.504 30.992C214.224 30.992 213.338 30.736 212.848 30.224C212.378 29.7333 212.144 29.0507 212.144 28.176C212.144 24.464 212.837 20.592 214.224 16.56C215.632 12.5067 217.605 8.44267 220.144 4.368C220.57 3.664 220.922 3.248 221.2 3.12C221.477 2.992 221.786 2.928 222.128 2.928C222.618 2.928 223.045 3.09867 223.408 3.44C223.792 3.78133 223.984 4.22933 223.984 4.784C223.984 4.95467 223.802 5.424 223.44 6.192C223.077 6.96 222.597 7.94133 222 9.136C221.424 10.3307 220.794 11.6853 220.112 13.2C219.429 14.6933 218.757 16.272 218.095 17.936C217.455 19.6 216.901 21.2747 216.432 22.96C217.157 22.0427 217.978 21.104 218.896 20.144C219.834 19.1627 220.805 18.2667 221.808 17.456C222.81 16.624 223.781 15.9627 224.72 15.472C225.658 14.96 226.501 14.704 227.248 14.704C227.952 14.704 228.602 14.8747 229.2 15.216C229.818 15.5573 230.32 16.0907 230.704 16.816C231.088 17.5413 231.28 18.48 231.28 19.632C231.28 20.8907 230.917 22.1813 230.192 23.504C229.488 24.8267 228.453 26.0533 227.088 27.184C225.744 28.3147 224.09 29.232 222.128 29.936C220.186 30.64 217.978 30.992 215.504 30.992ZM216.848 27.344C218.49 27.216 219.973 26.864 221.296 26.288C222.64 25.712 223.792 24.9973 224.752 24.144C225.712 23.2907 226.448 22.3947 226.96 21.456C227.472 20.496 227.728 19.5893 227.728 18.736C227.728 18.544 227.674 18.448 227.568 18.448C227.12 18.448 226.554 18.6507 225.872 19.056C225.189 19.44 224.442 19.9627 223.632 20.624C222.821 21.2853 222 22.0107 221.168 22.8C220.336 23.5893 219.546 24.3787 218.8 25.168C218.053 25.9573 217.402 26.6827 216.848 27.344Z" fill="#FCB43C"/>
</svg>
