<?xml version="1.0" encoding="utf-8"?>
<!-- Generator: Adobe Illustrator 24.0.2, SVG Export Plug-In . SVG Version: 6.00 Build 0)  -->
<svg version="1.1" id="Layer_1" xmlns="http://www.w3.org/2000/svg" xmlns:xlink="http://www.w3.org/1999/xlink" x="0px" y="0px"
	 viewBox="0 0 24 24" style="enable-background:new 0 0 24 24;" xml:space="preserve">
<style type="text/css">
	.st0{fill:#FFFFFF;}
	.st1{fill:#FDB73E;}
	.st2{fill:none;stroke:#000000;stroke-width:0.3;}
</style>
<title>Twitter icon</title>
<path d="M36.9,21.7"/>
<g>
	<g>
		<g>
			<path class="st0" d="M21.4,23.7H2.7c-1.3,0-2.4-1.1-2.4-2.4V2.6c0-1.3,1.1-2.4,2.4-2.4h18.7c1.3,0,2.4,1.1,2.4,2.4v18.7
				C23.8,22.7,22.7,23.7,21.4,23.7z"/>
		</g>
	</g>
	<circle class="st1" cx="5.6" cy="5.3" r="2.5"/>
	<path class="st1" d="M7.1,21.1h-3c-0.3,0-0.5-0.2-0.5-0.5V9.3c0-0.3,0.2-0.5,0.5-0.5h3c0.3,0,0.5,0.2,0.5,0.5v11.4
		C7.6,20.9,7.3,21.1,7.1,21.1z"/>
	<path class="st1" d="M20.8,21.1h-3c-0.2,0-0.4-0.2-0.4-0.4v-7.1c0-0.2,0.2-0.4,0.4-0.4h3c0.2,0,0.4,0.2,0.4,0.4v7.1
		C21.2,20.9,21,21.1,20.8,21.1z"/>
	<path class="st1" d="M12.7,21.1h-3c-0.3,0-0.5-0.2-0.5-0.5V9.3c0-0.3,0.2-0.5,0.5-0.5h3c0.3,0,0.5,0.2,0.5,0.5v11.3
		C13.2,20.9,13,21.1,12.7,21.1z"/>
	<path class="st1" d="M13.2,14.2c0-0.6,0.3-2.2,2.2-2.2s1.9,2.3,1.9,2.3V19l3.9,0.7v-5.9c0-5.2-3.8-5.1-3.8-5.1h-1.2
		c-2,0-3.1,1.6-3.1,1.6l0,0l-3.9-0.1v8.1l3.9,0.4V14.2z"/>
</g>
<g>
	<line class="st2" x1="-90.2" y1="-155.6" x2="-90.2" y2="-119.6"/>
	<line class="st2" x1="-144.2" y1="-101.6" x2="-108.2" y2="-101.6"/>
	<line class="st2" x1="-144.2" y1="123.4" x2="-108.2" y2="123.4"/>
	<line class="st2" x1="-90.2" y1="177.4" x2="-90.2" y2="141.4"/>
	<line class="st2" x1="134.8" y1="-155.6" x2="134.8" y2="-119.6"/>
	<line class="st2" x1="188.8" y1="-101.6" x2="152.8" y2="-101.6"/>
	<line class="st2" x1="188.8" y1="123.4" x2="152.8" y2="123.4"/>
	<line class="st2" x1="134.8" y1="177.4" x2="134.8" y2="141.4"/>
</g>
</svg>
