<?xml version="1.0" encoding="utf-8"?>
<!-- Generator: Adobe Illustrator 24.0.2, SVG Export Plug-In . SVG Version: 6.00 Build 0)  -->
<svg version="1.1" id="Layer_1" xmlns="http://www.w3.org/2000/svg" xmlns:xlink="http://www.w3.org/1999/xlink" x="0px" y="0px"
	 viewBox="0 0 496 496" style="enable-background:new 0 0 496 496;" xml:space="preserve">
<style type="text/css">
	.st0{opacity:0.357;fill:#FDB73E;}
	.st1{opacity:0.837;fill:#FDB73E;}
	.st2{opacity:0.277;fill:#FDB73E;}
	.st3{opacity:0.757;fill:#FDB73E;}
	.st4{opacity:0.197;fill:#FDB73E;}
	.st5{opacity:0.677;fill:#FDB73E;}
	.st6{opacity:0.117;fill:#FDB73E;}
	.st7{opacity:0.597;fill:#FDB73E;}
	.st8{fill:#FDB73E;}
	.st9{opacity:0.517;fill:#FDB73E;}
	.st10{opacity:0.917;fill:#FDB73E;}
	.st11{opacity:0.437;fill:#FDB73E;}
</style>
<path class="st0" d="M248,92c-13.6,0-24-10.4-24-24V24c0-13.6,10.4-24,24-24s24,10.4,24,24v44C272,80.8,261.6,92,248,92z"/>
<path class="st1" d="M248,496c-13.6,0-24-10.4-24-24v-44c0-13.6,10.4-24,24-24s24,10.4,24,24v44C272,485.6,261.6,496,248,496z"/>
<path class="st2" d="M157.6,116c-8,0-16-4-20.8-12l-21.6-37.6c-6.4-11.2-2.4-26.4,8.8-32.8s26.4-2.4,32.8,8.8L178.4,80
	c6.4,11.2,2.4,26.4-8.8,32.8C166.4,114.4,161.6,116,157.6,116z"/>
<path class="st3" d="M360,465.6c-8,0-16-4-20.8-12L317.6,416c-6.4-11.2-2.4-26.4,8.8-32.8c11.2-6.4,26.4-2.4,32.8,8.8l21.6,37.6
	c6.4,11.2,2.4,26.4-8.8,32.8C368,464.8,364,465.6,360,465.6z"/>
<path class="st4" d="M92,181.6c-4,0-8-0.8-12-3.2l-37.6-21.6c-11.2-6.4-15.2-21.6-8.8-32.8s21.6-15.2,32.8-8.8l37.6,21.6
	c11.2,6.4,15.2,21.6,8.8,32.8C108,177.6,100,181.6,92,181.6z"/>
<path class="st5" d="M442.4,384c-4,0-8-0.8-12-3.2L392,359.2c-11.2-6.4-15.2-21.6-8.8-32.8c6.4-11.2,21.6-15.2,32.8-8.8l37.6,21.6
	c11.2,6.4,15.2,21.6,8.8,32.8C458.4,380,450.4,384,442.4,384z"/>
<path class="st6" d="M68,272H24c-13.6,0-24-10.4-24-24s10.4-24,24-24h44c13.6,0,24,10.4,24,24S80.8,272,68,272z"/>
<path class="st7" d="M472,272h-44c-13.6,0-24-10.4-24-24s10.4-24,24-24h44c13.6,0,24,10.4,24,24S485.6,272,472,272z"/>
<path class="st8" d="M53.6,384c-8,0-16-4-20.8-12c-6.4-11.2-2.4-26.4,8.8-32.8l37.6-21.6c11.2-6.4,26.4-2.4,32.8,8.8
	c6.4,11.2,2.4,26.4-8.8,32.8l-37.6,21.6C62.4,383.2,58.4,384,53.6,384z"/>
<path class="st9" d="M404,181.6c-8,0-16-4-20.8-12c-6.4-11.2-2.4-26.4,8.8-32.8l37.6-21.6c11.2-6.4,26.4-2.4,32.8,8.8
	s2.4,26.4-8.8,32.8L416,178.4C412,180.8,408,181.6,404,181.6z"/>
<path class="st10" d="M138,465.6c-4,0-8-0.8-12-3.2c-11.2-6.4-15.2-21.6-8.8-32.8l21.6-37.6c6.4-11.2,21.6-15.2,32.8-8.8
	c11.2,6.4,15.2,21.6,8.8,32.8l-21.6,37.6C154,461.6,146,465.6,138,465.6z"/>
<path class="st11" d="M338.4,116c-4,0-8-0.8-12-3.2c-11.2-6.4-15.2-21.6-8.8-32.8l21.6-37.6c6.4-11.2,21.6-15.2,32.8-8.8
	c11.2,6.4,15.2,21.6,8.8,32.8L359.2,104C354.4,111.2,346.4,116,338.4,116z"/>
</svg>
