<?xml version="1.0" encoding="utf-8"?>
<!-- Generator: Adobe Illustrator 24.0.2, SVG Export Plug-In . SVG Version: 6.00 Build 0)  -->
<svg version="1.1" id="Layer_1" transform="matrix(.69 0 0 .69 15.5 15.5)"
	 xmlns="http://www.w3.org/2000/svg" xmlns:xlink="http://www.w3.org/1999/xlink" x="0px" y="0px" viewBox="0 0 100 100"
	 style="enable-background:new 0 0 100 100;" xml:space="preserve">
<style type="text/css">
	.st0{fill:#FFFFFF;stroke:#FDB73E;stroke-miterlimit:10;}
	.st1{fill:none;stroke:#FDB73E;stroke-miterlimit:10;}
	.st2{fill:#FFFFFF;stroke:#FDB73E;stroke-linecap:round;stroke-miterlimit:10;}
	.st3{fill:none;stroke:#FDB73E;stroke-linecap:round;stroke-linejoin:round;stroke-miterlimit:10;}
</style>
<circle class="st0" cx="51.4" cy="50" r="41.7"/>
<g>
	<path class="st0" d="M54.8,51H8c-1,0-1.9-0.9-1.9-1.9v-30c0-1,0.9-1.9,1.9-1.9h46.8c1,0,1.9,0.9,1.9,1.9v30
		C56.8,50.1,55.9,51,54.8,51z"/>
	<path class="st0" d="M23.6,60c0,0,3.9-2.7,4-9h7.6c0.1,6.4,4,9,4,9"/>
	<ellipse transform="matrix(0.5914 -0.8064 0.8064 0.5914 -12.0512 37.9845)" class="st1" cx="31.5" cy="30.9" rx="5.2" ry="12.1"/>
	<ellipse transform="matrix(0.8064 -0.5914 0.5914 0.8064 -12.1832 24.58)" class="st1" cx="31.4" cy="30.9" rx="12.1" ry="5.2"/>
	<line class="st0" x1="6.1" y1="44.6" x2="56.8" y2="44.6"/>
	<line class="st2" x1="30.1" y1="47.7" x2="32.7" y2="47.7"/>
	<path class="st0" d="M45.1,64.1H17.7c-0.6,0-1.2-0.6-1.2-1.2v-1.6c0-0.6,0.6-1.2,1.2-1.2h27.4c0.6,0,1.2,0.6,1.2,1.2v1.6
		C46.3,63.6,45.7,64.1,45.1,64.1z"/>
</g>
<g>
	<polyline class="st3" points="55.4,75.3 61.1,78.9 55.4,82.5 	"/>
	<polyline class="st3" points="44.6,75.3 38.9,78.9 44.6,82.5 	"/>
	<line class="st3" x1="52.3" y1="73.1" x2="47.7" y2="84.3"/>
</g>
<g>
	<polyline class="st1" points="90.1,33.7 79.8,47.7 69.6,31.1 	"/>
	<polyline class="st1" points="76.6,62 79.8,47.7 93.5,52 	"/>
	<line class="st1" x1="63.8" y1="45.2" x2="79.8" y2="47.7"/>
	<circle class="st0" cx="79.8" cy="47.7" r="5.1"/>
	<circle class="st0" cx="69.6" cy="31.1" r="2.5"/>
	<circle class="st0" cx="90.1" cy="33.7" r="2.5"/>
	<circle class="st0" cx="93.5" cy="52" r="2.5"/>
	<circle class="st0" cx="76.6" cy="62" r="2.5"/>
	<circle class="st0" cx="63.8" cy="45.2" r="2.5"/>
</g>
</svg>
