<?xml version="1.0" encoding="utf-8"?>
<!-- Generator: Adobe Illustrator 24.0.2, SVG Export Plug-In . SVG Version: 6.00 Build 0)  -->
<svg version="1.1" id="Layer_1" transform="matrix(.69 0 0 .69 15.5 15.5)"
	 xmlns="http://www.w3.org/2000/svg" xmlns:xlink="http://www.w3.org/1999/xlink" x="0px" y="0px" viewBox="0 0 100 100"
	 style="enable-background:new 0 0 100 100;" xml:space="preserve">
<style type="text/css">
	.st0{fill:#FFFFFF;stroke:#FDB73E;stroke-miterlimit:10;}
	.st1{fill:#FFFFFF;stroke:#FDB73E;stroke-linecap:round;stroke-linejoin:round;stroke-miterlimit:10;}
	.st2{fill:#FFFFFF;stroke:#FDB73E;stroke-width:0.5;stroke-linecap:round;stroke-linejoin:round;stroke-miterlimit:10;}
	.st3{fill:none;stroke:#FDB73E;stroke-linecap:round;stroke-linejoin:round;stroke-miterlimit:10;}
</style>
<circle class="st0" cx="50" cy="50" r="41.7"/>
<g>
	<path class="st1" d="M29.8,42.4c-0.5,1.2-1.9,3.9-0.2,4.9c0.8,0.5,1.6,0.3,1.9,0.3c1.1-0.1,1.5-0.7,1.8-0.5
		c0.4,0.3,0.1,1.6-0.5,2.5c-0.6,1-1.4,1.5-1.9,1.8c-0.9,0.6-1.5,0.5-2.2,1.2c-0.2,0.2-0.8,0.8-1.1,1.7c-0.3,1.1,0.1,1.8,0.4,3.1
		c0.1,0.3,0.7,2.5,0.2,4.8c-0.2,0.8-0.6,2.5-2,4.1c-1.2,1.4-2.6,2.1-3.4,2.4c-2.1,0.9-3.9,0.7-4.9,0.7c-1.9-0.2-3.2-0.8-5-1.6
		c-2.1-1-3.8-1.8-5.2-3.5c-1.2-1.4-1.6-2.9-1.8-3.5c-0.2-0.6-0.4-1.5-0.3-2.8c0.1-1.6,0.7-2.8,1.2-3.7C7,53.7,7.4,53,8.2,52.2
		c0.8-0.9,1.6-1.3,2.3-1.7c1.5-0.9,3-1.3,3.2-1.4c1.2-0.3,1.5-0.3,2.2-0.7c0.2-0.2,1-0.7,1.4-1.6c0.3-0.8-0.1-1,0-2.3
		c0-0.5,0.1-1.5,0.6-2.4c0.7-1.2,1.8-1.8,2.2-2c1.7-0.9,3.4-0.6,4.3-0.5c0.9,0.1,1.6,0.4,2.1,0.6L40.8,17l-0.6-2.1l5.1-8.9
		c0,0,3.9,0.9,6.3,2.7l-5.3,8.7l-2.7,0.8L29.8,42.4"/>
	<line class="st1" x1="15.1" y1="58" x2="19.6" y2="60.5"/>
	<polygon class="st2" points="16.1,54.9 21.7,58.1 23,55.8 17.4,52.5 	"/>
	<polygon class="st2" points="20.2,47.6 25.7,50.8 27,48.5 21.4,45.3 	"/>
</g>
<g>
	<rect x="50" y="58.7" class="st1" width="13.4" height="10.2"/>
	<rect x="65.6" y="58.7" class="st1" width="13.4" height="10.2"/>
	<circle class="st1" cx="64.5" cy="78.2" r="12.4"/>
	<line class="st1" x1="82.5" y1="52.1" x2="82.5" y2="84.6"/>
	<polyline class="st3" points="88.8,84.9 82.5,80.6 76.5,84.9 	"/>
	<line class="st1" x1="46.3" y1="45.6" x2="46.3" y2="84.6"/>
	<ellipse transform="matrix(0.3815 -0.9244 0.9244 0.3815 -12.0876 69.9862)" class="st1" cx="46.3" cy="44" rx="2.1" ry="10.1"/>
	<ellipse transform="matrix(0.9824 -0.1867 0.1867 0.9824 -8.0367 16.2207)" class="st1" cx="82.1" cy="50.8" rx="9.4" ry="1.9"/>
	<polyline class="st3" points="40.3,84.9 46.3,80.6 52,84.9 	"/>
	<line class="st3" x1="79.1" y1="60.5" x2="65.6" y2="60.5"/>
	<line class="st3" x1="63.5" y1="60.5" x2="50.4" y2="60.5"/>
	<line class="st2" x1="74" y1="62" x2="77.8" y2="62"/>
	<line class="st2" x1="58.4" y1="61.7" x2="62.2" y2="61.7"/>
	<path class="st2" d="M64.5,67.4c0,0,9.8,0.6,10.9,10.9"/>
</g>
<g>
	<ellipse transform="matrix(0.9612 -0.2759 0.2759 0.9612 -7.2988 17.7659)" class="st1" cx="59.5" cy="34.8" rx="3.5" ry="2.5"/>
	<ellipse transform="matrix(0.9612 -0.2759 0.2759 0.9612 -6.3162 20.9922)" class="st1" cx="71.4" cy="32.9" rx="3.5" ry="2.5"/>
	<polyline class="st3" points="62.9,33.8 62.9,20.1 75.2,17 74.8,32 	"/>
	<polygon class="st1" points="62.9,20.1 62.9,18.1 75.2,14.7 75.2,17 	"/>
</g>
</svg>
