<?xml version="1.0" encoding="utf-8"?>
<!-- Generator: Adobe Illustrator 24.0.2, SVG Export Plug-In . SVG Version: 6.00 Build 0)  -->
<svg version="1.1" id="Layer_1" transform="matrix(.69 0 0 .69 15.5 15.5)"
	 xmlns="http://www.w3.org/2000/svg" xmlns:xlink="http://www.w3.org/1999/xlink" x="0px" y="0px" viewBox="0 0 100 100"
	 style="enable-background:new 0 0 100 100;" xml:space="preserve">
<style type="text/css">
	.st0{fill:#FFFFFF;stroke:#FDB73E;stroke-miterlimit:10;}
	.st1{fill:#FFFFFF;stroke:#FDB73E;stroke-linejoin:round;stroke-miterlimit:10;}
</style>
<circle class="st0" cx="51.3" cy="50.9" r="41.7"/>
<path class="st0" d="M38,59h-26c-3.1,0-5.7-2.5-5.7-5.7V32.7c0-3.1,2.5-5.7,5.7-5.7h26c3.1,0,5.7,2.5,5.7,5.7v20.6
	C43.7,56.5,41.2,59,38,59z"/>
<path class="st0" d="M46.7,49.7h-3V36.3h3c0.8,0,1.3,0.6,1.3,1.3v10.7C48,49.1,47.4,49.7,46.7,49.7z"/>
<path class="st0" d="M3.5,36.3h3v13.4h-3c-0.8,0-1.3-0.6-1.3-1.3V37.6C2.1,36.9,2.7,36.3,3.5,36.3z"/>
<line class="st0" x1="25" y1="27.1" x2="25" y2="20.9"/>
<circle class="st0" cx="25" cy="17.3" r="3.5"/>
<path class="st0" d="M34,53.1H16.1c-1,0-1.8-0.8-1.8-1.8v-3.1c0-1,0.8-1.8,1.8-1.8H34c1,0,1.8,0.8,1.8,1.8v3.1
	C35.8,52.3,34.9,53.1,34,53.1z"/>
<circle class="st0" cx="17.9" cy="36.7" r="3.5"/>
<circle class="st0" cx="32.2" cy="36.7" r="3.5"/>
<line class="st0" x1="25" y1="46.8" x2="25" y2="53.1"/>
<line class="st0" x1="30.8" y1="46.4" x2="30.8" y2="52.7"/>
<line class="st0" x1="19.5" y1="46.8" x2="19.5" y2="53.1"/>
<g>
	<path class="st0" d="M74.8,12.5l1,2.3c0.9,0.2,1.2,0.3,2,0.5l1.9-1.7c1,0.5,1.1,0.5,2.1,1l-0.1,2.5c0.7,0.5,0.9,0.8,1.6,1.3
		l2.4-0.7c0.7,0.9,0.8,1,1.5,1.8L86,21.8c0.4,0.8,0.5,1.1,0.9,1.9l2.5,0.4c0.3,1.1,0.3,1.2,0.5,2.3l-2,1.5c0,0.9,0,1.2,0,2.1l2,1.5
		c-0.3,1.1-0.3,1.2-0.5,2.3L87,34.2c-0.4,0.8-0.5,1.1-0.9,1.9l1.2,2.2c-0.7,0.9-0.8,1-1.5,1.8l-2.4-0.7c-0.7,0.5-0.9,0.8-1.6,1.3
		l0.1,2.5c-1,0.5-1.1,0.5-2.1,1l-1.9-1.7c-0.9,0.2-1.2,0.3-2,0.5l-1,2.3c-1.1,0-1.2,0-2.4,0l-1-2.3c-0.9-0.2-1.2-0.3-2-0.5l-1.9,1.7
		c-1-0.5-1.1-0.5-2.1-1l0.1-2.5c-0.7-0.5-0.9-0.8-1.6-1.3l-2.4,0.7c-0.7-0.9-0.8-1-1.5-1.8l1.2-2.2c-0.4-0.8-0.5-1.1-0.9-1.9
		l-2.5-0.4c-0.3-1.1-0.3-1.2-0.5-2.3l2-1.5c0-0.9,0-1.2,0-2.1l-2-1.5c0.3-1.1,0.3-1.2,0.5-2.3l2.5-0.4c0.4-0.8,0.5-1.1,0.9-1.9
		l-1.2-2.2c0.7-0.9,0.8-1,1.5-1.8l2.4,0.7c0.7-0.5,0.9-0.8,1.6-1.3l-0.1-2.5c1-0.5,1.1-0.5,2.1-1l1.9,1.7c0.9-0.2,1.2-0.3,2-0.5
		l1-2.3C73.6,12.5,73.7,12.5,74.8,12.5z"/>
	<circle class="st0" cx="73.7" cy="29" r="3.3"/>
</g>
<g>
	<path class="st0" d="M86.4,43.8l0.7,1.7c1,0.2,1.4,0.3,2.4,0.5l1.3-1.3c1.3,0.7,1.2,0.7,2.5,1.4l-0.4,1.8c0.7,0.8,1,1,1.7,1.8
		l1.8-0.3c0.6,1.3,0.6,1.2,1.2,2.6l-1.4,1.2c0.1,1,0.2,1.4,0.3,2.4l1.6,0.8c-0.3,1.5-0.3,1.3-0.6,2.8l-1.8,0.2
		c-0.5,0.9-0.7,1.2-1.2,2.1l0.8,1.6c-1.1,1-1,0.9-2.1,1.9l-1.6-0.9c-0.9,0.4-1.3,0.6-2.2,1L89,67c-1.5,0.2-1.4,0.2-2.8,0.3l-0.7-1.7
		c-1-0.2-1.4-0.3-2.4-0.5l-1.3,1.3c-1.3-0.7-1.2-0.7-2.5-1.4l0.4-1.8c-0.7-0.8-1-1-1.7-1.8l-1.8,0.3c-0.6-1.3-0.6-1.2-1.2-2.6
		l1.4-1.2c-0.1-1-0.2-1.4-0.3-2.4l-1.6-0.8c0.3-1.5,0.3-1.3,0.6-2.8l1.8-0.2c0.5-0.9,0.7-1.2,1.2-2.1l-0.8-1.6c1.1-1,1-0.9,2.1-1.9
		l1.6,0.9c0.9-0.4,1.3-0.6,2.2-1l0.3-1.8C85,43.9,84.9,44,86.4,43.8z"/>
	<circle class="st0" cx="86.3" cy="55.5" r="2.2"/>
</g>
<g>
	<g>
		<ellipse transform="matrix(0.9413 -0.3375 0.3375 0.9413 -25.08 10.3741)" class="st0" cx="17.3" cy="77.3" rx="1.2" ry="1.5"/>
		<ellipse transform="matrix(0.9413 -0.3375 0.3375 0.9413 -23.699 12.8064)" class="st0" cx="25" cy="74.6" rx="8.2" ry="1.4"/>
		<ellipse transform="matrix(0.9413 -0.3375 0.3375 0.9413 -26.461 7.9417)" class="st0" cx="9.6" cy="80.1" rx="8.2" ry="1.4"/>
		<path class="st0" d="M19.9,83.4l-0.8,0.3c-0.4,0.1-0.8-0.1-0.9-0.4l-1.7-4.9c-0.1-0.4,0.1-0.8,0.4-0.9l0.8-0.3
			c0.4-0.1,0.8,0.1,0.9,0.4l1.7,4.9C20.5,82.9,20.3,83.3,19.9,83.4z"/>
	</g>
	<ellipse transform="matrix(0.9413 -0.3375 0.3375 0.9413 -23.2231 17.413)" class="st0" cx="38.5" cy="75.5" rx="11.4" ry="2.9"/>
	<path class="st1" d="M61,73.8c0,0-15.7,7.8-14.5,11L39,87.5c-1.2-3.3-18.2,0.7-18.2,0.7L61,73.8z"/>
	<g>
		<ellipse transform="matrix(0.9413 -0.3375 0.3375 0.9413 -18.0585 22.714)" class="st0" cx="56.3" cy="63.3" rx="1.2" ry="1.5"/>
		<ellipse transform="matrix(0.9413 -0.3375 0.3375 0.9413 -16.6775 25.1463)" class="st0" cx="64" cy="60.5" rx="8.2" ry="1.4"/>
		<ellipse transform="matrix(0.9413 -0.3375 0.3375 0.9413 -19.4394 20.2816)" class="st0" cx="48.6" cy="66.1" rx="8.2" ry="1.4"/>
		<path class="st0" d="M58.9,69.4l-0.8,0.3c-0.4,0.1-0.8-0.1-0.9-0.4l-1.7-4.9c-0.1-0.4,0.1-0.8,0.4-0.9l0.8-0.3
			c0.4-0.1,0.8,0.1,0.9,0.4l1.7,4.9C59.5,68.8,59.3,69.3,58.9,69.4z"/>
	</g>
	<path class="st0" d="M61.5,73.6L20.2,88.4c-0.9,0.3-2-0.2-2.3-1.1l-0.8-2.3c-0.3-0.9,0.2-2,1.1-2.3L59.4,68c0.9-0.3,2,0.2,2.3,1.1
		l0.8,2.3C62.9,72.3,62.4,73.3,61.5,73.6z"/>
	<g>
		<rect x="39.2" y="86" transform="matrix(0.9413 -0.3375 0.3375 0.9413 -27.3107 19.8878)" class="st1" width="8.6" height="4.9"/>
		<ellipse transform="matrix(0.9413 -0.3375 0.3375 0.9413 -27.3107 19.8878)" class="st1" cx="43.5" cy="88.5" rx="0.4" ry="0.5"/>
	</g>
</g>
</svg>
