<?xml version="1.0" encoding="utf-8"?>
<!-- Generator: Adobe Illustrator 24.0.2, SVG Export Plug-In . SVG Version: 6.00 Build 0)  -->
<svg version="1.1" id="Layer_1" transform="matrix(.69 0 0 .69 15.5 15.5)"
	 xmlns="http://www.w3.org/2000/svg" xmlns:xlink="http://www.w3.org/1999/xlink" x="0px" y="0px" viewBox="0 0 100 100"
	 style="enable-background:new 0 0 100 100;" xml:space="preserve">
<style type="text/css">
	.st0{fill:#FFFFFF;stroke:#FDB73E;stroke-miterlimit:10;}
	.st1{fill:none;stroke:#FDB73E;stroke-width:0.5;stroke-linecap:round;stroke-linejoin:round;stroke-miterlimit:10;}
	.st2{fill:none;stroke:#FDB73E;stroke-linecap:round;stroke-linejoin:round;stroke-miterlimit:10;}
	.st3{fill:#FFFFFF;stroke:#FFFFFF;stroke-width:5;stroke-miterlimit:10;}
	.st4{fill:#FFFFFF;stroke:#FDB73E;stroke-linecap:round;stroke-miterlimit:10;}
	.st5{fill:#FFFFFF;stroke:#FDB73E;stroke-linecap:round;stroke-linejoin:round;stroke-miterlimit:10;}
	.st6{fill:#FFFFFF;stroke:#FDB73E;stroke-width:0.5;stroke-linecap:round;stroke-linejoin:round;stroke-miterlimit:10;}
</style>
<circle class="st0" cx="50.6" cy="49.5" r="41.7"/>
<path class="st0" d="M47.3,23.5L11.7,59.1c-0.3,0.3-0.9,0.3-1.2,0l-2.8-2.8c-0.3-0.3-0.3-0.9,0-1.2l35.6-35.6c0.3-0.3,0.9-0.3,1.2,0
	l2.8,2.8C47.7,22.6,47.7,23.2,47.3,23.5z"/>
<line class="st1" x1="10.4" y1="52.4" x2="12.4" y2="54.4"/>
<line class="st1" x1="15.4" y1="47.3" x2="17.4" y2="49.4"/>
<line class="st1" x1="20.4" y1="42.3" x2="22.4" y2="44.3"/>
<line class="st2" x1="25.4" y1="37.3" x2="27.5" y2="39.3"/>
<line class="st1" x1="35.5" y1="27.2" x2="37.5" y2="29.3"/>
<line class="st1" x1="30.5" y1="32.3" x2="32.5" y2="34.3"/>
<line class="st1" x1="12" y1="50.7" x2="13.2" y2="51.9"/>
<line class="st1" x1="17.1" y1="45.7" x2="18.3" y2="46.9"/>
<line class="st2" x1="27.1" y1="35.6" x2="28.3" y2="36.8"/>
<line class="st1" x1="32.2" y1="30.6" x2="33.4" y2="31.8"/>
<line class="st1" x1="13.7" y1="49" x2="14.9" y2="50.2"/>
<line class="st1" x1="18.7" y1="44" x2="19.9" y2="45.2"/>
<line class="st2" x1="23.8" y1="39" x2="25" y2="40.2"/>
<line class="st1" x1="33.8" y1="28.9" x2="35" y2="30.1"/>
<line class="st1" x1="37.2" y1="25.5" x2="38.4" y2="26.7"/>
<line class="st1" x1="8.7" y1="54.1" x2="9.9" y2="55.3"/>
<line class="st1" x1="40.5" y1="22.2" x2="42.6" y2="24.2"/>
<line class="st1" x1="38.9" y1="23.9" x2="40.1" y2="25.1"/>
<line class="st1" x1="42.2" y1="20.5" x2="43.4" y2="21.7"/>
<path class="st3" d="M39.4,54.4l-22-21.9c-0.3-0.3-0.3-0.8,0-1.2l1.8-1.8c0.3-0.3,0.8-0.3,1.2,0l21.9,21.9L39.4,54.4z"/>
<path class="st0" d="M38.3,54.4L7.8,24c-0.4-0.4-0.4-1.1,0-1.6l2.5-2.5c0.4-0.4,1.1-0.4,1.6,0l30.4,30.4L38.3,54.4z"/>
<polyline class="st2" points="38.6,54.7 47.2,59.3 42.7,50.7 "/>
<line class="st2" x1="14.8" y1="22.8" x2="10.7" y2="26.8"/>
<line class="st1" x1="15.2" y1="27.2" x2="40.3" y2="52.4"/>
<line class="st2" x1="45.3" y1="55.8" x2="43.7" y2="57.4"/>
<g>
	<path class="st0" d="M93.9,43.4H58.6c-0.8,0-1.5-0.7-1.5-1.5V19.4c0-0.8,0.7-1.5,1.5-1.5h35.3c0.8,0,1.5,0.7,1.5,1.5V42
		C95.4,42.7,94.7,43.4,93.9,43.4z"/>
	<path class="st0" d="M70.4,50.2c0,0,3-2,3-6.8h5.7c0.1,4.8,3,6.8,3,6.8"/>
	<line class="st0" x1="57.1" y1="38.6" x2="95.4" y2="38.6"/>
	<line class="st4" x1="75.3" y1="40.9" x2="77.2" y2="40.9"/>
	<path class="st0" d="M86.6,53.3H65.9c-0.5,0-0.9-0.4-0.9-0.9v-1.2c0-0.5,0.4-0.9,0.9-0.9h20.6c0.5,0,0.9,0.4,0.9,0.9v1.2
		C87.5,52.8,87,53.3,86.6,53.3z"/>
	<rect x="71.1" y="27.3" transform="matrix(0.3272 -0.9449 0.9449 0.3272 21.2951 90.0289)" class="st1" width="5.6" height="5.6"/>
	<polygon class="st1" points="76.9,24.2 72.2,26.5 77.4,28.3 82.1,26 	"/>
	<polygon class="st1" points="82.1,26 80.3,31.3 75.6,33.6 77.4,28.3 	"/>
</g>
<g>
	<path class="st5" d="M67.9,63.5c-2.5,1.8-11.6-0.4-11.6-0.4s-2.9,6.4-7.8,10l4.2,5.8c5-3.6,12-4.2,12-4.2S65.5,65.3,67.9,63.5
		l-8.7,6.2"/>
	<circle class="st0" cx="59.2" cy="69.8" r="0.4"/>
	<rect x="36.1" y="77.1" transform="matrix(0.812 -0.5837 0.5837 0.812 -38.7574 40.9034)" class="st0" width="16" height="7.1"/>
	<rect x="45.2" y="75.1" transform="matrix(0.5837 0.812 -0.812 0.5837 82.6683 -9.3943)" class="st5" width="10.5" height="1.6"/>
	<line class="st6" x1="50.1" y1="78.9" x2="40.3" y2="85.9"/>
	<line class="st6" x1="44.9" y1="80.5" x2="39.3" y2="84.5"/>
</g>
</svg>
