<?xml version="1.0" encoding="utf-8"?>
<!-- Generator: Adobe Illustrator 24.0.2, SVG Export Plug-In . SVG Version: 6.00 Build 0)  -->
<svg version="1.1" id="Layer_1" transform="matrix(.69 0 0 .69 15.5 15.5)"
	 xmlns="http://www.w3.org/2000/svg" xmlns:xlink="http://www.w3.org/1999/xlink" x="0px" y="0px" viewBox="0 0 100 100"
	 style="enable-background:new 0 0 100 100;" xml:space="preserve">
<style type="text/css">
	.st0{fill:#FFFFFF;stroke:#FDB73E;stroke-miterlimit:10;}
	.st1{fill:#FFFFFF;stroke:#FDB73E;stroke-linecap:round;stroke-linejoin:round;stroke-miterlimit:10;}
	.st2{fill:#FFFFFF;stroke:#FDB73E;stroke-width:0.25;stroke-linecap:round;stroke-linejoin:round;stroke-miterlimit:10;}
</style>
<circle class="st0" cx="50" cy="50" r="41.7"/>
<g>
	
		<rect x="27.7" y="8.2" transform="matrix(0.5584 0.8296 -0.8296 0.5584 36.2955 -18.4367)" class="st1" width="15.5" height="33.4"/>
	<path class="st1" d="M62.1,6.9c1.5,7.4-8.5,15.1-8.5,15.1L45,9.1C45,9.1,55.8,2.7,62.1,6.9"/>
	<path class="st1" d="M39.1,31.8c0,0-5,11.3-7.5,13.1l-3.7-5.5L39.1,31.8z"/>
	<path class="st1" d="M30.4,18.9c0,0-12.4,0.4-15,2.1l3.7,5.5L30.4,18.9z"/>
	<rect x="29.5" y="21.7" transform="matrix(0.5584 0.8296 -0.8296 0.5584 36.9809 -11.7795)" class="st1" width="0" height="14.2"/>
	<polygon class="st1" points="18.7,29.9 9.4,36.1 13.3,36.6 3.6,43.2 9.9,42.1 8,46.5 13.9,42.6 12.4,46.7 24.5,38.6 	"/>
</g>
<g>
	<polygon class="st1" points="51.7,95.4 60.3,97.8 67,90.4 58.4,88 	"/>
	<polygon class="st1" points="42.2,59.1 50.7,61.5 67,90.4 58.4,88 	"/>
	<polygon class="st1" points="35.5,66.5 44,68.9 60.3,97.8 51.7,95.4 	"/>
	<polygon class="st1" points="44,68.9 50.7,61.5 67,90.4 60.3,97.8 	"/>
	<polygon class="st1" points="35.5,66.5 44,68.9 50.7,61.5 42.2,59.1 	"/>
	<polygon class="st1" points="42.2,59.1 62.3,36.9 70.8,39.3 50.7,61.5 	"/>
	<polygon class="st1" points="50.7,61.5 44,68.9 69.8,76.1 76.5,68.7 	"/>
	<polygon class="st1" points="15.4,88.7 35.5,66.5 44,68.9 23.9,91.1 	"/>
	<polygon class="st1" points="16.4,51.9 9.7,59.3 35.5,66.5 42.2,59.1 	"/>
	<polygon class="st2" points="46.1,68.3 48.1,68.9 50.2,67.9 53.5,64.4 53.5,63.2 51.3,62.5 	"/>
	<polygon class="st2" points="49.1,69.2 51.2,69.8 53.3,68.8 56.5,65.3 56.6,64.1 54.3,63.4 	"/>
	<polygon class="st2" points="52.2,70 54.3,70.6 56.4,69.7 59.6,66.1 59.7,64.9 57.4,64.3 	"/>
	<polygon class="st2" points="55.2,70.9 57.3,71.4 59.4,70.5 62.6,66.9 62.7,65.7 60.4,65.1 	"/>
	<polygon class="st2" points="60.2,72.1 62.3,72.7 64.3,71.8 67.6,68.2 67.6,67 65.4,66.4 	"/>
	<polygon class="st2" points="63.3,73 65.3,73.6 67.4,72.6 70.7,69.1 70.7,67.9 68.5,67.2 	"/>
	<polygon class="st2" points="66.3,73.8 68.4,74.4 70.4,73.5 73.7,69.9 73.7,68.7 71.5,68.1 	"/>
	<polygon class="st2" points="40.3,59.6 38.2,59 36.1,60 32.9,63.5 32.8,64.7 35.1,65.4 	"/>
	<polygon class="st2" points="37.2,58.7 35.2,58.2 33.1,59.1 29.9,62.6 29.8,63.9 32,64.5 	"/>
	<polygon class="st2" points="34.1,57.9 32.1,57.3 30,58.2 26.8,61.8 26.7,63 28.9,63.6 	"/>
	<polygon class="st2" points="31.1,57 29.1,56.5 27,57.4 23.7,61 23.7,62.2 25.9,62.8 	"/>
	<polygon class="st2" points="26.2,55.8 24.1,55.2 22,56.1 18.8,59.7 18.7,60.9 21,61.5 	"/>
	<polygon class="st2" points="23.1,54.9 21,54.3 18.9,55.3 15.7,58.8 15.6,60 17.9,60.7 	"/>
	<polygon class="st2" points="20.1,54.1 18,53.5 15.9,54.4 12.7,58 12.6,59.2 14.8,59.8 	"/>
	<polygon class="st2" points="51.1,59.9 52.9,58 52.2,56.8 47.8,55.6 46,56 44.2,58 	"/>
	<polygon class="st2" points="53.6,57.2 55.3,55.3 54.6,54.1 50.2,52.9 48.5,53.3 46.6,55.3 	"/>
	<polygon class="st2" points="55.9,54.5 57.6,52.6 56.9,51.4 52.5,50.1 50.8,50.5 48.9,52.5 	"/>
	<polygon class="st2" points="62.1,48.1 63.8,46.2 63.1,45 58.7,43.7 56.9,44.1 55.1,46.1 	"/>
	<polygon class="st2" points="64.6,45.4 66.3,43.5 65.6,42.3 61.2,41 59.4,41.4 57.6,43.4 	"/>
	<polygon class="st2" points="66.9,42.6 68.6,40.7 67.9,39.5 63.5,38.3 61.7,38.6 59.9,40.6 	"/>
	<polygon class="st2" points="58.4,51.8 60.1,49.9 59.4,48.7 55.1,47.5 53.3,47.9 51.5,49.9 	"/>
	<polygon class="st2" points="35.4,67.7 33.7,69.6 34.4,70.8 38.8,72 40.6,71.6 42.4,69.6 	"/>
	<polygon class="st2" points="33,70.4 31.2,72.3 32,73.5 36.3,74.7 38.1,74.3 39.9,72.3 	"/>
	<polygon class="st2" points="30.7,73.1 29,75 29.7,76.2 34,77.5 35.8,77.1 37.6,75.1 	"/>
	<polygon class="st2" points="24.5,79.5 22.8,81.4 23.5,82.6 27.8,83.9 29.6,83.5 31.5,81.5 	"/>
	<polygon class="st2" points="22,82.2 20.3,84.1 21,85.3 25.4,86.6 27.2,86.2 29,84.2 	"/>
	<polygon class="st2" points="19.7,85 18,86.9 18.7,88.1 23.1,89.3 24.9,88.9 26.7,86.9 	"/>
	<polygon class="st2" points="28.2,75.8 26.4,77.7 27.1,78.9 31.5,80.1 33.3,79.7 35.1,77.7 	"/>
	<line class="st1" x1="62.2" y1="81.9" x2="55.5" y2="89.3"/>
	<ellipse transform="matrix(0.5139 -0.8579 0.8579 0.5139 -47.1848 96.3637)" class="st2" cx="61.4" cy="89.8" rx="1.1" ry="0.9"/>
</g>
<path class="st1" d="M82.1,31.4c0,0,0,4.5-4.5,4.5c0,0,4.5,0,4.5,4.5c0,0,0-4.5,4.5-4.5C86.6,35.9,82.1,35.9,82.1,31.4z"/>
<path class="st1" d="M77.6,41c0,0,0,2.9-2.9,2.9c0,0,2.9,0,2.9,2.9c0,0,0-2.9,2.9-2.9C80.5,43.9,77.6,43.9,77.6,41z"/>
<path class="st1" d="M88.1,42.4c0,0,0,6.8-6.8,6.8c0,0,6.8,0,6.8,6.8c0,0,0-6.8,6.8-6.8C94.9,49.2,88.1,49.2,88.1,42.4z"/>
</svg>
