<?xml version="1.0" encoding="utf-8"?>
<!-- Generator: Adobe Illustrator 24.0.2, SVG Export Plug-In . SVG Version: 6.00 Build 0)  -->
<svg version="1.1" id="Layer_1" xmlns="http://www.w3.org/2000/svg" xmlns:xlink="http://www.w3.org/1999/xlink" x="0px" y="0px"
	 viewBox="0 0 902 384" style="enable-background:new 0 0 902 384;" xml:space="preserve">
<style type="text/css">
	.st0{fill:#FDB73E;}
	.st1{fill:none;stroke:#FDB73E;stroke-width:20;stroke-miterlimit:10;}
	.st2{fill:none;stroke:#FDB73E;stroke-width:5;stroke-miterlimit:10;}
	.st3{font-family:'MyriadPro-Regular';}
	.st4{font-size:50px;}
	.st5{fill:none;stroke:#FDB73E;stroke-width:2;stroke-linecap:round;stroke-miterlimit:10;}
	.st6{fill:none;stroke:#FDB73E;stroke-width:2;stroke-linecap:round;stroke-miterlimit:10;stroke-dasharray:11.2,11.2;}
	.st7{fill:none;stroke:#FDB73E;stroke-width:2;stroke-linecap:round;stroke-miterlimit:10;stroke-dasharray:15,15;}
	.st8{fill:none;stroke:#FDB73E;stroke-width:2;stroke-linecap:round;stroke-miterlimit:10;stroke-dasharray:11.5678,11.5678;}
	.st9{fill:none;stroke:#FDB73E;stroke-width:2;stroke-linecap:round;stroke-miterlimit:10;stroke-dasharray:11.0909,11.0909;}
	.st10{fill:none;stroke:#FDB73E;stroke-width:2;stroke-linecap:round;stroke-miterlimit:10;stroke-dasharray:12;}
</style>
<g>
	<polygon class="st0" points="439.2,237.5 653.2,157.2 653.2,317.8 	"/>
	<path class="st0" d="M652.8,158v159.1l-212.2-79.6L652.8,158 M653.8,156.5l-216,81l216,81V156.5L653.8,156.5z"/>
</g>
<line class="st1" x1="75.8" y1="237.5" x2="507.8" y2="237.5"/>
<g>
	<line class="st0" x1="76" y1="112.4" x2="462.5" y2="112.4"/>
	<g>
		<line class="st2" x1="93.9" y1="112.4" x2="444.5" y2="112.4"/>
		<g>
			<polygon class="st0" points="97.6,124.8 76,112.4 97.6,99.9 			"/>
		</g>
		<g>
			<polygon class="st0" points="440.9,124.8 462.5,112.4 440.9,99.9 			"/>
		</g>
	</g>
</g>
<text transform="matrix(1 0 0 1 226.3839 88.4674)" class="st0 st3 st4">5 cm</text>
<g>
	<line class="st0" x1="695" y1="156.9" x2="695" y2="318.9"/>
	<g>
		<line class="st2" x1="695" y1="174.8" x2="695" y2="300.9"/>
		<g>
			<polygon class="st0" points="682.5,178.4 695,156.9 707.4,178.4 			"/>
		</g>
		<g>
			<polygon class="st0" points="682.5,297.3 695,318.9 707.4,297.3 			"/>
		</g>
	</g>
</g>
<text transform="matrix(1 0 0 1 710.8594 246.7759)" class="st0 st3 st4">2.2 cm</text>
<g>
	<line class="st0" x1="462.5" y1="112.5" x2="652.9" y2="110.2"/>
	<g>
		<line class="st2" x1="480.4" y1="112.3" x2="634.9" y2="110.4"/>
		<g>
			<polygon class="st0" points="484.2,124.7 462.5,112.5 483.9,99.8 			"/>
		</g>
		<g>
			<polygon class="st0" points="631.4,122.9 652.9,110.2 631.1,98 			"/>
		</g>
	</g>
</g>
<text transform="matrix(0.9999 -1.198485e-02 1.198485e-02 0.9999 497.3385 88.6064)" class="st0 st3 st4">3 cm</text>
<g>
	<g>
		<line class="st5" x1="654" y1="89" x2="654" y2="95"/>
		<line class="st6" x1="654" y1="106.2" x2="654" y2="145.4"/>
		<polyline class="st5" points="654,151 654,157 660,157 		"/>
		<line class="st7" x1="675" y1="157" x2="697.5" y2="157"/>
		<line class="st5" x1="705" y1="157" x2="711" y2="157"/>
	</g>
</g>
<g>
	<g>
		<line class="st5" x1="462.5" y1="228.2" x2="462.4" y2="222.2"/>
		<line class="st8" x1="462.4" y1="210.7" x2="462" y2="100.8"/>
		<line class="st5" x1="462" y1="95" x2="462" y2="89"/>
	</g>
</g>
<g>
	<g>
		<line class="st5" x1="76" y1="223" x2="76" y2="217"/>
		<line class="st9" x1="76" y1="205.9" x2="76" y2="100.5"/>
		<line class="st5" x1="76" y1="95" x2="76" y2="89"/>
	</g>
</g>
<line class="st10" x1="654" y1="319" x2="711" y2="319"/>
</svg>
