<svg width="32" height="32" viewBox="0 0 32 32" fill="none" xmlns="http://www.w3.org/2000/svg">
<rect width="32" height="32" rx="5" fill="#FCB43C"/>
<path d="M10.1548 13.6378C10.098 13.0649 9.85417 12.6198 9.4233 12.3026C8.99242 11.9853 8.40767 11.8267 7.66903 11.8267C7.16714 11.8267 6.74337 11.8977 6.39773 12.0398C6.05208 12.1771 5.78693 12.3688 5.60227 12.6151C5.42235 12.8613 5.33239 13.1406 5.33239 13.4531C5.32292 13.7135 5.37737 13.9408 5.49574 14.1349C5.61884 14.3291 5.78693 14.4972 6 14.6392C6.21307 14.7765 6.45928 14.8973 6.73864 15.0014C7.01799 15.1009 7.31629 15.1861 7.63352 15.2571L8.94034 15.5696C9.57481 15.7116 10.1572 15.901 10.6875 16.1378C11.2178 16.3745 11.6771 16.6657 12.0653 17.0114C12.4536 17.357 12.7543 17.7642 12.9673 18.233C13.1851 18.7017 13.2964 19.2391 13.3011 19.8452C13.2964 20.7353 13.0691 21.5071 12.6193 22.1605C12.1742 22.8092 11.5303 23.3134 10.6875 23.6733C9.84943 24.0284 8.83854 24.206 7.65483 24.206C6.48059 24.206 5.45786 24.026 4.58665 23.6662C3.72017 23.3063 3.04309 22.7737 2.5554 22.0682C2.07244 21.358 1.81913 20.4796 1.79545 19.4332H4.77131C4.80445 19.9209 4.94413 20.3281 5.19034 20.6548C5.44129 20.9768 5.77509 21.2206 6.19176 21.3864C6.61316 21.5473 7.08902 21.6278 7.61932 21.6278C8.14015 21.6278 8.59233 21.5521 8.97585 21.4006C9.36411 21.2491 9.66477 21.0384 9.87784 20.7685C10.0909 20.4986 10.1974 20.1884 10.1974 19.8381C10.1974 19.5114 10.1004 19.2367 9.90625 19.0142C9.71686 18.7917 9.4375 18.6023 9.06818 18.446C8.7036 18.2898 8.25616 18.1477 7.72585 18.0199L6.14205 17.6222C4.91572 17.3239 3.94744 16.8575 3.23722 16.223C2.52699 15.5885 2.17424 14.7339 2.17898 13.6591C2.17424 12.7784 2.40862 12.009 2.8821 11.3509C3.36032 10.6927 4.0161 10.179 4.84943 9.80966C5.68277 9.44034 6.62973 9.25568 7.69034 9.25568C8.76989 9.25568 9.71212 9.44034 10.517 9.80966C11.3267 10.179 11.9564 10.6927 12.4062 11.3509C12.8561 12.009 13.0881 12.7713 13.1023 13.6378H10.1548ZM27.5359 9.45455V24H24.8796L18.5515 14.8452H18.445V24H15.3697V9.45455H18.0685L24.3469 18.6023H24.4748V9.45455H27.5359Z" fill="#4C8BF5"/>
</svg>
