<?xml version="1.0" encoding="utf-8"?>
<!-- Generator: Adobe Illustrator 24.0.2, SVG Export Plug-In . SVG Version: 6.00 Build 0)  -->
<svg version="1.1" id="Layer_1" xmlns="http://www.w3.org/2000/svg" xmlns:xlink="http://www.w3.org/1999/xlink" x="0px" y="0px"
	 viewBox="0 0 32 32" style="enable-background:new 0 0 32 32;" xml:space="preserve">
<style type="text/css">
	.st0{fill:#FDB73E;}
</style>
<title>Group</title>
<path class="st0" d="M25.8,0H6.2C2.8,0,0,2.8,0,6.2v19.6C0,29.2,2.8,32,6.2,32h19.6c3.4,0,6.2-2.8,6.2-6.2V6.2C32,2.8,29.2,0,25.8,0
	z M14.6,12H10v11.6H6.9v-0.1V12H2.4V9.4h12.2V12z M25.9,23.5l-4-6.3l-2.3,2.1v4.2h-3V9.4h3.1v6.4l6-6.4h3.8l-5.4,5.7l5.5,8.4H25.9z"
	/>
</svg>
