<?xml version="1.0" encoding="utf-8"?>
<!-- Generator: Adobe Illustrator 24.0.2, SVG Export Plug-In . SVG Version: 6.00 Build 0)  -->
<svg version="1.1" xmlns="http://www.w3.org/2000/svg" xmlns:xlink="http://www.w3.org/1999/xlink" x="0px" y="0px"
	 viewBox="0 0 1543 525" style="enable-background:new 0 0 1543 525;" xml:space="preserve">
<style type="text/css">
	.st0{fill:#FDB73E;stroke:#FDB73E;stroke-linecap:round;stroke-linejoin:round;stroke-miterlimit:10;}
	.st1{fill:none;stroke:#FDB73E;stroke-linecap:round;stroke-linejoin:round;stroke-miterlimit:10;}
	.st2{stroke:#FDB73E;stroke-linecap:round;stroke-linejoin:round;stroke-miterlimit:10;}
	.st3{fill:none;stroke:#FDB73E;stroke-linecap:round;stroke-linejoin:round;}
	.st4{fill:#FDB73E;}
	.st5{font-family:'ArialMT';}
	.st6{font-size:11px;}
	.st7{font-size:9.7789px;}
</style>
<g id="Layer_1">
	<circle class="st0" cx="1211.9" cy="79.5" r="1.9"/>
	<circle class="st0" cx="1283.4" cy="267.2" r="1.9"/>
	<circle class="st0" cx="1211.8" cy="321.5" r="1.9"/>
	<circle class="st0" cx="1283.8" cy="465.5" r="1.9"/>
	<circle class="st0" cx="1211.8" cy="465.5" r="1.9"/>
	<circle class="st0" cx="1085.8" cy="465.5" r="1.9"/>
	<circle class="st0" cx="1084.9" cy="366.2" r="1.9"/>
	<circle class="st0" cx="1084.9" cy="267.2" r="1.9"/>
	<circle class="st0" cx="915.1" cy="465.8" r="1.9"/>
	<circle class="st0" cx="842.1" cy="465.8" r="1.9"/>
	<circle class="st0" cx="752.3" cy="465.5" r="1.9"/>
	<circle class="st0" cx="680.3" cy="465.5" r="1.9"/>
	<circle class="st0" cx="607.3" cy="465.5" r="1.9"/>
	<circle class="st0" cx="842.6" cy="321.7" r="1.9"/>
	<circle class="st0" cx="986.6" cy="267.7" r="1.9"/>
	<circle class="st0" cx="914.6" cy="267.7" r="1.9"/>
	<circle class="st0" cx="842.6" cy="267.7" r="1.9"/>
	<circle class="st0" cx="842.6" cy="231.7" r="1.9"/>
	<circle class="st0" cx="914.6" cy="231.7" r="1.9"/>
	<circle class="st0" cx="914.6" cy="185.7" r="1.9"/>
	<circle class="st0" cx="914.6" cy="159.7" r="1.9"/>
	<circle class="st0" cx="914.6" cy="78.7" r="1.9"/>
	<circle class="st0" cx="680.1" cy="78.4" r="1.9"/>
	<circle class="st0" cx="734.1" cy="78.4" r="1.9"/>
	<circle class="st0" cx="680.1" cy="159.4" r="1.9"/>
	<circle class="st0" cx="680.4" cy="186.6" r="1.9"/>
	<circle class="st0" cx="679.9" cy="231.7" r="1.9"/>
	<circle class="st0" cx="679.9" cy="267.7" r="1.9"/>
	<circle class="st0" cx="607.9" cy="231.7" r="1.9"/>
	<circle class="st0" cx="606.9" cy="267.7" r="1.9"/>
	<circle class="st0" cx="606.9" cy="321.7" r="1.9"/>
	<circle class="st0" cx="274.7" cy="465" r="1.9"/>
	<circle class="st0" cx="445.3" cy="465" r="1.9"/>
	<circle class="st0" cx="347.3" cy="465" r="1.9"/>
	<polyline class="st1" points="1283.5,196.5 1283.5,79.5 130.5,77.5 130.5,97 136,99.8 125,105.2 136,110.8 125,116.2 136,121.8 
		125,127.2 130.5,130 130.5,194.5 	"/>
	<polyline class="st1" points="666,316 679.7,306 680.4,140.6 675,137.8 685.7,132.3 675,126.9 685.7,121.4 675,115.9 685.7,110.4 
		680.4,107.7 680.2,78.5 	"/>
	<polyline class="st1" points="1085.5,412.5 1085,337.4 1079.5,334.7 1090.5,329.2 1079.5,323.7 1090.5,318.2 1079.5,312.7 
		1090.5,307.2 1085,304.4 1085.2,229.7 1079.7,226.9 1090.7,221.4 1079.7,215.9 1090.7,210.4 1079.7,204.9 1090.7,199.4 
		1085.2,196.7 1085.5,159.5 1022.5,159.5 1022.5,186.5 	"/>
	<polyline class="st1" points="231,321.5 184,321.5 181.2,327 175.7,316 170.2,327 164.7,316 159.2,327 153.7,316 151,321.5 
		58.5,321.5 	"/>
	<polyline class="st1" points="399.5,267.5 445.5,267.5 446,305 451.5,307.8 440.5,313.3 451.5,318.8 440.5,324.3 451.5,329.8 
		440.5,335.3 446,338 446,376.4 451.5,379.2 440.5,384.7 451.5,390.2 440.5,395.7 451.5,401.2 440.5,406.7 446,409.4 445.7,465.5 	
		"/>
	<polyline class="st1" points="607,267.5 628.5,267.5 631.2,262 636.7,273 642.2,262 647.7,273 653.2,262 658.7,273 661.5,267.5 
		726.5,267.5 	"/>
	<polyline class="st1" points="986.5,267.5 986.5,304.6 992,307.3 981,312.8 992,318.3 981,323.8 992,329.3 981,334.8 986.5,337.6 
		986.5,366.5 1084.5,366.5 	"/>
	<g>
		<line class="st1" x1="230.5" y1="310" x2="230.5" y2="333"/>
		<line class="st1" x1="237.5" y1="310" x2="237.5" y2="333"/>
	</g>
	<g>
		<line class="st1" x1="302.5" y1="211" x2="302.5" y2="234"/>
		<line class="st1" x1="309.5" y1="211" x2="309.5" y2="234"/>
	</g>
	<g>
		<line class="st1" x1="392.5" y1="256" x2="392.5" y2="279"/>
		<line class="st1" x1="399.5" y1="256" x2="399.5" y2="279"/>
	</g>
	<g>
		<line class="st1" x1="500.5" y1="310" x2="500.5" y2="333"/>
		<line class="st1" x1="507.5" y1="310" x2="507.5" y2="333"/>
	</g>
	<g>
		<line class="st1" x1="644.5" y1="220" x2="644.5" y2="243"/>
		<line class="st1" x1="651.5" y1="220" x2="651.5" y2="243"/>
	</g>
	<g>
		<line class="st1" x1="726.5" y1="256" x2="726.5" y2="279"/>
		<line class="st1" x1="733.5" y1="256" x2="733.5" y2="279"/>
	</g>
	<g>
		<line class="st1" x1="878.5" y1="220" x2="878.5" y2="243"/>
		<line class="st1" x1="885.5" y1="220" x2="885.5" y2="243"/>
	</g>
	<g>
		<line class="st1" x1="1031.5" y1="256" x2="1031.5" y2="279"/>
		<line class="st1" x1="1038.5" y1="256" x2="1038.5" y2="279"/>
	</g>
	<g>
		<line class="st1" x1="1149.5" y1="310" x2="1149.5" y2="333"/>
		<line class="st1" x1="1156.5" y1="310" x2="1156.5" y2="333"/>
	</g>
	<g>
		<line class="st1" x1="1338.5" y1="256" x2="1338.5" y2="279"/>
		<line class="st1" x1="1345.5" y1="256" x2="1345.5" y2="279"/>
	</g>
	<g>
		<line class="st1" x1="596" y1="212.5" x2="619" y2="212.5"/>
		<line class="st1" x1="596" y1="205.5" x2="619" y2="205.5"/>
	</g>
	<g>
		<line class="st1" x1="831" y1="212.5" x2="854" y2="212.5"/>
		<line class="st1" x1="831" y1="205.5" x2="854" y2="205.5"/>
	</g>
	<g>
		<line class="st1" x1="1074" y1="419.5" x2="1097" y2="419.5"/>
		<line class="st1" x1="1074" y1="412.5" x2="1097" y2="412.5"/>
	</g>
	<line class="st1" x1="174" y1="115.5" x2="195" y2="115.5"/>
	<path class="st1" d="M174,126c0,0,9.5-8.5,21,0"/>
	<g>
		<polygon class="st0" points="636.5,167 636.5,151 650.5,159.5 		"/>
		<line class="st0" x1="650.5" y1="152" x2="650.5" y2="168"/>
	</g>
	<g>
		<polygon class="st0" points="650.2,178.5 650.2,194.5 636.2,186 		"/>
		<line class="st0" x1="636.2" y1="193.5" x2="636.2" y2="177.5"/>
	</g>
	<g>
		<polygon class="st0" points="872.2,166.7 872.2,150.7 886.2,159.2 		"/>
		<line class="st0" x1="886.2" y1="151.7" x2="886.2" y2="167.7"/>
	</g>
	<g>
		<polygon class="st0" points="885.9,178.2 885.9,194.2 871.9,185.7 		"/>
		<line class="st0" x1="871.9" y1="193.2" x2="871.9" y2="177.2"/>
	</g>
	<g>
		<polygon class="st0" points="227.7,129.2 211.7,129.2 220.2,115.2 		"/>
		<line class="st0" x1="212.7" y1="115.2" x2="228.7" y2="115.2"/>
	</g>
	<g>
		<polygon class="st0" points="123.2,153.4 139.2,153.4 130.7,167.4 		"/>
		<line class="st0" x1="138.2" y1="167.4" x2="122.2" y2="167.4"/>
	</g>
	<circle class="st1" cx="130.5" cy="158.5" r="18"/>
	<circle class="st1" cx="670.3" cy="321.3" r="22.5"/>
	<line class="st1" x1="665.8" y1="305.8" x2="665.8" y2="335.8"/>
	<path class="st1" d="M665.8,316.6"/>
	<polygon class="st0" points="672.5,333.5 676.5,327.5 680.5,334.5 	"/>
	<polyline class="st1" points="665.8,325 680.5,334.5 680,376.4 685.5,379.2 674.5,384.7 685.5,390.2 674.5,395.7 685.5,401.2 
		674.5,406.7 680,409.4 680.5,465.5 	"/>
	<line class="st2" x1="175.5" y1="100" x2="175.5" y2="111"/>
	<line class="st2" x1="170" y1="105.5" x2="181" y2="105.5"/>
	<line class="st2" x1="184.5" y1="77.6" x2="184.5" y2="115.2"/>
	<polyline class="st1" points="184.5,122.2 184.5,158.5 220.5,158.5 220.5,77.7 	"/>
	<line class="st1" x1="309.5" y1="222.5" x2="346.5" y2="222.5"/>
	<polyline class="st1" points="302.5,222.5 274.5,222.5 275,376.4 280.5,379.2 269.5,384.7 280.5,390.2 269.5,395.7 280.5,401.2 
		269.5,406.7 275,409.4 274.6,465.5 	"/>
	<polyline class="st1" points="1345.5,267.5 1409.5,267.5 1410,304.4 1415.5,307.2 1404.5,312.7 1415.5,318.2 1404.5,323.7 
		1415.5,329.2 1404.5,334.7 1410,337.4 1410.5,465.5 111.5,465.5 112,409.4 106.5,406.7 117.5,401.2 106.5,395.7 117.5,390.2 
		106.5,384.7 117.5,379.2 112,376.4 112.4,321.5 	"/>
	<polyline class="st1" points="274.6,267.5 294.5,267.5 297.2,262 302.7,273 308.2,262 313.7,273 319.2,262 324.7,273 327.5,267.5 
		392.5,267.5 	"/>
	<line class="st1" x1="237.5" y1="320.8" x2="333.5" y2="321.1"/>
	<path class="st1" d="M230.5,320.8"/>
	<line class="st1" x1="202.5" y1="158.5" x2="202.5" y2="177.5"/>
	<path class="st1" d="M677.5,292.5"/>
	<line class="st1" x1="724.5" y1="59.5" x2="743.5" y2="59.5"/>
	<line class="st1" x1="734" y1="78.5" x2="734" y2="59.5"/>
	<path class="st1" d="M743.5,131.5"/>
	<polyline class="st1" points="900.3,317.3 914,307.3 914.7,141.9 909.3,139.1 920.1,133.6 909.3,128.1 920.1,122.7 909.3,117.2 
		920.1,111.7 914.7,108.9 914.6,79.7 	"/>
	<circle class="st1" cx="904.7" cy="322.6" r="22.5"/>
	<line class="st1" x1="900.2" y1="307.1" x2="900.2" y2="337.1"/>
	<polygon class="st0" points="906.8,334.8 910.8,328.8 914.8,335.8 	"/>
	<polyline class="st1" points="900.2,326.3 914.8,335.8 914.3,377.7 919.8,380.5 908.8,386 919.8,391.5 908.8,397 919.8,402.5 
		908.8,408 914.3,410.7 914.8,466.8 	"/>
	<path class="st1" d="M911.8,293.8"/>
	<polyline class="st1" points="333.3,315.3 347,305.3 347.7,139.9 342.3,137.1 353.1,131.6 342.3,126.1 353.1,120.7 342.3,115.2 
		353.1,109.7 347.7,106.9 347.5,78.5 	"/>
	<circle class="st1" cx="337.7" cy="322.6" r="22.5"/>
	<line class="st1" x1="333.2" y1="307.1" x2="333.2" y2="337.1"/>
	<polygon class="st0" points="339.8,334.8 343.8,328.8 347.8,335.8 	"/>
	<polyline class="st1" points="333.2,326.3 347.8,335.8 347.3,377.7 352.8,380.5 341.8,386 352.8,391.5 341.8,397 352.8,402.5 
		341.8,408 347.3,410.7 347.8,466.8 	"/>
	<path class="st1" d="M344.8,293.8"/>
	<polyline class="st1" points="680.3,159 607.5,159.5 607.5,205.5 	"/>
	<line class="st1" x1="680.2" y1="186.2" x2="607.5" y2="186.2"/>
	<line class="st1" x1="680" y1="231.5" x2="651.5" y2="231.5"/>
	<polyline class="st1" points="607.5,212.5 607,376.4 612.5,379.2 601.5,384.7 612.5,390.2 601.5,395.7 612.5,401.2 601.5,406.7 
		607,409.4 607,465.5 	"/>
	<line class="st1" x1="643.9" y1="231.5" x2="607.5" y2="231.5"/>
	<polyline class="st1" points="733.5,267.5 780.5,267.5 783.2,262 788.7,273 794.2,262 799.7,273 805.2,262 810.7,273 813.5,267.5 
		862.5,267.5 865.2,262 870.7,273 876.2,262 881.7,273 887.2,262 892.7,273 895.5,267.5 986.5,267.5 1031.5,267.5 	"/>
	<polyline class="st1" points="842.2,212.5 842.2,321.3 842.2,376.7 847.7,379.4 836.7,384.9 847.7,390.4 836.7,395.9 847.7,401.4 
		836.7,406.9 842.2,409.7 842.5,465.5 	"/>
	<line class="st1" x1="900.2" y1="322.1" x2="842.5" y2="321.5"/>
	<line class="st1" x1="842.2" y1="231.5" x2="878.5" y2="231.5"/>
	<line class="st1" x1="885.9" y1="231.5" x2="914.3" y2="231.5"/>
	<polyline class="st1" points="842.2,205.5 842.5,158.5 914.6,159 	"/>
	<line class="st1" x1="914.5" y1="186.2" x2="842.2" y2="186.2"/>
	<line class="st1" x1="1038.5" y1="267.5" x2="1084.5" y2="267.5"/>
	<line class="st1" x1="1085.5" y1="419.5" x2="1085.5" y2="465.5"/>
	<polyline class="st1" points="1212,79.4 1212,196.4 1217.5,199.2 1206.5,204.7 1217.5,210.2 1206.5,215.7 1217.5,221.2 
		1206.5,226.7 1212,229.4 1212,376.4 1217.5,379.2 1206.5,384.7 1217.5,390.2 1206.5,395.7 1217.5,401.2 1206.5,406.7 1212,409.4 
		1212,465.5 	"/>
	<polyline class="st1" points="507.5,321 547.5,321.5 550.2,316 555.7,327 561.2,316 566.7,327 572.2,316 577.7,327 580.5,321.5 
		665.7,321.5 	"/>
	<g>
		<g>
			<line class="st3" x1="500.5" y1="321.1" x2="458.6" y2="320.6"/>
			<g>
				<polygon class="st4" points="460,318.6 452.5,320.5 460,322.6 				"/>
			</g>
		</g>
	</g>
	<g>
		<g>
			<line class="st3" x1="1149.5" y1="321.5" x2="1098.6" y2="320.9"/>
			<g>
				<polygon class="st4" points="1100,319 1092.5,320.9 1100,323 				"/>
			</g>
		</g>
	</g>
	<polyline class="st1" points="1269.7,315.7 1283.3,305.7 1284,229.4 1278.5,226.7 1289.5,221.2 1278.5,215.7 1289.5,210.2 
		1278.5,204.7 1289.5,199.2 1284,196.4 	"/>
	<circle class="st1" cx="1274" cy="321" r="22.5"/>
	<line class="st1" x1="1269.5" y1="305.5" x2="1269.5" y2="335.5"/>
	<path class="st1" d="M1269.5,316.2"/>
	<polygon class="st0" points="1276.1,333.2 1280.1,327.2 1284.1,334.2 	"/>
	<polyline class="st1" points="1269.5,324.7 1284.2,334.2 1284,376.4 1289.5,379.2 1278.5,384.7 1289.5,390.2 1278.5,395.7 
		1289.5,401.2 1278.5,406.7 1284,409.4 1284.1,465.5 	"/>
	<line class="st1" x1="1269.5" y1="321.5" x2="1156.5" y2="321.5"/>
	<line class="st1" x1="1338.5" y1="267.5" x2="1283.7" y2="267.5"/>
	<g>
		<g>
			<line class="st3" x1="1472.5" y1="321.5" x2="1421.6" y2="320.9"/>
			<g>
				<polygon class="st4" points="1423,319 1415.5,320.9 1423,323 				"/>
			</g>
		</g>
	</g>
	<g>
		<g>
			<line class="st3" x1="150.5" y1="159.5" x2="157.8" y2="166.2"/>
			<g>
				<polygon class="st4" points="154.8,168 161.5,169.5 159.4,162.9 				"/>
			</g>
		</g>
	</g>
	<g>
		<g>
			<line class="st3" x1="148.8" y1="169.5" x2="156.2" y2="176.2"/>
			<g>
				<polygon class="st4" points="153.1,178.1 159.8,179.5 157.7,173 				"/>
			</g>
		</g>
	</g>
	<g>
		<g>
			<line class="st3" x1="131.5" y1="198.5" x2="139.3" y2="218.8"/>
			<g>
				<polygon class="st4" points="136.9,218.2 141.5,224.5 140.7,216.8 				"/>
			</g>
		</g>
	</g>
	<line class="st1" x1="130.5" y1="230.5" x2="130.5" y2="249.5"/>
	<line class="st1" x1="120.5" y1="249.5" x2="140.5" y2="249.5"/>
	<line class="st1" x1="136.5" y1="255.5" x2="123.5" y2="255.5"/>
	<line class="st1" x1="133.5" y1="260.5" x2="127.5" y2="260.5"/>
	<circle class="st1" cx="130.5" cy="228.5" r="2"/>
	<circle class="st1" cx="130.5" cy="196.5" r="2"/>
	<line class="st1" x1="192.5" y1="177.5" x2="212.5" y2="177.5"/>
	<line class="st1" x1="208.5" y1="183.5" x2="195.5" y2="183.5"/>
	<line class="st1" x1="205.5" y1="188.5" x2="199.5" y2="188.5"/>
	<line class="st1" x1="1012.5" y1="186.5" x2="1032.5" y2="186.5"/>
	<line class="st1" x1="1028.5" y1="192.5" x2="1015.5" y2="192.5"/>
	<line class="st1" x1="1025.5" y1="197.5" x2="1019.5" y2="197.5"/>
	<polyline class="st1" points="742.5,484.5 752,484.5 762.5,484.5 	"/>
	<line class="st1" x1="758.5" y1="490.5" x2="745.5" y2="490.5"/>
	<line class="st1" x1="755.5" y1="495.5" x2="749.5" y2="495.5"/>
	<line class="st1" x1="752.5" y1="465.5" x2="752.6" y2="484.5"/>
	<circle class="st0" cx="347" cy="77.9" r="1.9"/>
	<circle class="st0" cx="220.6" cy="77.1" r="1.9"/>
	<circle class="st0" cx="274.5" cy="320.9" r="1.9"/>
	<circle class="st0" cx="346.5" cy="267.9" r="1.9"/>
	<circle class="st0" cx="202.5" cy="159" r="1.9"/>
	<circle class="st0" cx="274.5" cy="268" r="1.9"/>
	<circle class="st0" cx="346.5" cy="222.9" r="1.9"/>
	<circle class="st0" cx="184.4" cy="77.6" r="1.9"/>
	<circle class="st1" cx="54.3" cy="321.3" r="4.2"/>
	<circle class="st1" cx="1476.5" cy="321.3" r="3.8"/>
	<circle class="st0" cx="112.9" cy="322" r="1.9"/>
</g>
<g id="Layer_2">
	<text transform="matrix(1 0 0 1 153.8733 109.6368)" class="st4 st5 st6">C4</text>
	<text transform="matrix(1 0 0 1 228.3502 109.5685)" class="st4 st5 st6">D5</text>
	<text transform="matrix(1 0 0 1 322.35 115.5685)" class="st4 st5 st6">R6</text>
	<text transform="matrix(1 0 0 1 315.35 206.5685)" class="st4 st5 st6">C2</text>
	<text transform="matrix(1 0 0 1 406.1209 251.4785)" class="st4 st5 st6">C3</text>
	<text transform="matrix(1 0 0 1 243.1212 306.4785)" class="st4 st5 st6">C1</text>
	<text transform="matrix(1 0 0 1 324.1212 260.4785)" class="st4 st5 st6">R4</text>
	<text transform="matrix(1 0 0 1 1234.1602 308.836)" class="st4 st5 st6">Q4</text>
	<text transform="matrix(1 0 0 1 865.0928 309.1995)" class="st4 st5 st6">Q3</text>
	<text transform="matrix(1 0 0 1 1155.4076 304.8359)" class="st4 st5 st6">C13</text>
	<text transform="matrix(1 0 0 1 1048.408 407.8361)" class="st4 st5 st6">C12</text>
	<text transform="matrix(1 0 0 1 1483.5789 330.3812)" class="st4 st5 st6">OUT</text>
	<text transform="matrix(1 0 0 1 1349.7166 329.3811)" class="st4 st5 st6">VOLUME</text>
	<text transform="matrix(1 0 0 1 1344.717 251.381)" class="st4 st5 st6">C14</text>
	<text transform="matrix(1 0 0 1 1255.717 199.3811)" class="st4 st5 st6">R23</text>
	<text transform="matrix(1 0 0 1 1252.9075 380.8356)" class="st4 st5 st6">R22</text>
	<text transform="matrix(1 0 0 1 1179.9077 380.8359)" class="st4 st5 st6">R21</text>
	<text transform="matrix(1 0 0 1 887.3992 381.199)" class="st4 st5 st6">R16</text>
	<text transform="matrix(1 0 0 1 814.3993 381.1993)" class="st4 st5 st6">R14</text>
	<text transform="matrix(1 0 0 1 1039.1775 251.7372)" class="st4 st5 st6">C11</text>
	<text transform="matrix(1 0 0 1 1183.408 198.836)" class="st4 st5 st6">R20</text>
	<text transform="matrix(1 0 0 1 1056.1779 200.7376)" class="st4 st5 st6">R19</text>
	<text transform="matrix(1 0 0 1 1038.3153 329.7375)" class="st4 st5 st6">TONE</text>
	<text transform="matrix(1 0 0 1 958.1775 308.7372)" class="st4 st5 st6">R18</text>
	<text transform="matrix(1 0 0 1 887.3993 261.1993)" class="st4 st5 st6">R15</text>
	<text transform="matrix(1 0 0 1 892.3989 216.1992)" class="st4 st5 st6">C9</text>
	<text transform="matrix(1 0 0 1 887.1428 109.8307)" class="st4 st5 st6">R17</text>
	<text transform="matrix(1 0 0 1 805.3315 260.5151)" class="st4 st5 st6">R13</text>
	<text transform="matrix(1 0 0 1 737.2729 251.5153)" class="st4 st5 st6">C8</text>
	<text transform="matrix(1 0 0 1 805.421 199.1343)" class="st4 st5 st6">C10</text>
	<text transform="matrix(1 0 0 1 850.9302 182.6446)" class="st4 st5 st6">42</text>
	<text transform="matrix(1 0 0 1 850.93 155.6444)" class="st4 st5 st6">D3</text>
	<text transform="matrix(1 0 0 1 630.683 308.9591)" class="st4 st5 st6">Q2</text>
	<text transform="matrix(1 0 0 1 297.1212 308.4785)" class="st4 st5 st6">Q1</text>
	<text transform="matrix(1 0 0 1 180.1579 314.9495)" class="st4 st5 st6">R2</text>
	<text transform="matrix(1 0 0 1 32.7704 329.8588)" class="st4 st5 st6">IN</text>
	<text transform="matrix(1 0 0 1 89.8611 380.5095)" class="st4 st5 st6">R1</text>
	<text transform="matrix(1 0 0 1 251.8611 380.5095)" class="st4 st5 st6">R3</text>
	<text transform="matrix(1.1249 0 0 1 323.8611 379.4619)" class="st4 st5 st7">R5</text>
	<text transform="matrix(1 0 0 1 100.8611 109.5095)" class="st4 st5 st6">R24</text>
	<text transform="matrix(1 0 0 1 91.8611 186.5095)" class="st4 st5 st6">LED</text>
	<text transform="matrix(1 0 0 1 137.8611 208.5095)" class="st4 st5 st6">SW</text>
	<text transform="matrix(1 0 0 1 385.5167 329.7878)" class="st4 st5 st6">SUSTAIN</text>
	<text transform="matrix(1 0 0 1 422.5167 380.7878)" class="st4 st5 st6">R7</text>
	<text transform="matrix(1 0 0 1 652.9895 380.9587)" class="st4 st5 st6">R11</text>
	<text transform="matrix(1 0 0 1 585.9896 380.959)" class="st4 st5 st6">R9</text>
	<text transform="matrix(1 0 0 1 652.9896 260.959)" class="st4 st5 st6">R10</text>
	<text transform="matrix(1 0 0 1 576.9892 314.9588)" class="st4 st5 st6">R8</text>
	<text transform="matrix(1 0 0 1 514.5167 304.7878)" class="st4 st5 st6">C5</text>
	<text transform="matrix(1 0 0 1 657.9893 215.9588)" class="st4 st5 st6">C6</text>
	<text transform="matrix(1 0 0 1 723.6747 53.5905)" class="st4 st5 st6">+9V</text>
	<text transform="matrix(1 0 0 1 652.7332 109.5904)" class="st4 st5 st6">R12</text>
	<text transform="matrix(1 0 0 1 577.0114 198.894)" class="st4 st5 st6">C7</text>
	<text transform="matrix(1 0 0 1 616.5205 182.4042)" class="st4 st5 st6">D2</text>
	<text transform="matrix(1 0 0 1 616.5203 155.4041)" class="st4 st5 st6">D1</text>
</g>
</svg>
