<?xml version="1.0" encoding="utf-8"?>
<!-- Generator: Adobe Illustrator 24.0.2, SVG Export Plug-In . SVG Version: 6.00 Build 0)  -->
<svg version="1.1" id="Layer_1" xmlns="http://www.w3.org/2000/svg" xmlns:xlink="http://www.w3.org/1999/xlink" x="0px" y="0px"
	 viewBox="0 0 509 763" style="enable-background:new 0 0 509 763;" xml:space="preserve">
<style type="text/css">
	.st0{fill:none;stroke:#FDB73E;stroke-width:3;stroke-linecap:round;stroke-linejoin:round;stroke-miterlimit:10;}
	.st1{fill:#FDB73E;}
	.st2{opacity:0.4;fill:#FDB73E;}
	.st3{fill:none;stroke:#FDB73E;stroke-width:4;stroke-linecap:round;stroke-linejoin:round;stroke-miterlimit:10;}
	.st4{opacity:0.8;fill:#FDB73E;}
	.st5{fill:none;stroke:#FF6961;stroke-width:3;stroke-linecap:round;stroke-linejoin:round;}
	.st6{fill:#FF6961;}
	.st7{opacity:0.5;}
	.st8{fill:none;stroke:#FF6961;stroke-width:3;stroke-linecap:round;stroke-linejoin:round;stroke-dasharray:12.2162,12.2162;}
	.st9{fill:none;stroke:#FF6961;stroke-width:3;stroke-linecap:round;stroke-linejoin:round;stroke-dasharray:14.0449,14.0449;}
	.st10{fill:none;stroke:#FDB73E;stroke-width:3;stroke-miterlimit:10;}
	.st11{font-family:'ArialMT';}
	.st12{font-size:23px;}
</style>
<g>
	<rect x="148.5" y="675.5" class="st0" width="61" height="61"/>
	<path class="st1" d="M216,731h-6v-30h6c0.5,0,1,0.4,1,1v28C217,730.6,216.6,731,216,731z"/>
	<path class="st1" d="M141,731h6v-30h-6c-0.5,0-1,0.4-1,1v28C140,730.6,140.4,731,141,731z"/>
	<rect x="148.5" y="675.5" class="st2" width="61" height="61"/>
</g>
<g>
	
		<rect x="53.7" y="269.3" transform="matrix(0.9703 -0.2419 0.2419 0.9703 -88.0485 56.0745)" class="st3" width="261.2" height="234.6"/>
	
		<rect x="53.9" y="268.3" transform="matrix(0.9703 -0.2419 0.2419 0.9703 -87.8072 56.0734)" class="st4" width="261.2" height="234.6"/>
</g>
<g>
	<line class="st0" x1="149.9" y1="38.7" x2="210" y2="98"/>
	<line class="st0" x1="149.9" y1="98" x2="210" y2="38.7"/>
</g>
<g>
	<g>
		<line class="st5" x1="179.5" y1="705.5" x2="179.5" y2="588.6"/>
		<g>
			<polygon class="st6" points="190,591.6 179.5,573.5 169,591.6 			"/>
		</g>
	</g>
</g>
<g>
	<g>
		<polyline class="st5" points="359.5,532.5 418.5,518.5 389.1,397.1 		"/>
		<g>
			<polygon class="st6" points="400,397.7 385.5,382.5 379.6,402.6 			"/>
		</g>
	</g>
</g>
<g>
	<rect x="299.1" y="509" transform="matrix(0.2404 0.9707 -0.9707 0.2404 774.0217 89.8225)" class="st0" width="61" height="61"/>
	<path class="st1" d="M314.3,581.4l-1.4-5.8l29.1-7.2l1.4,5.8c0.1,0.5-0.2,1.1-0.7,1.2l-27.2,6.7
		C314.9,582.3,314.4,581.9,314.3,581.4z"/>
	<path class="st1" d="M296.2,508.6l1.4,5.8l29.1-7.2l-1.4-5.8c-0.1-0.5-0.7-0.8-1.2-0.7l-27.2,6.7
		C296.4,507.5,296.1,508.1,296.2,508.6z"/>
	<rect x="299.1" y="509" transform="matrix(0.2404 0.9707 -0.9707 0.2404 774.0217 89.8225)" class="st2" width="61" height="61"/>
</g>
<g>
	<g>
		<line class="st5" x1="179.5" y1="573.5" x2="284.8" y2="548.9"/>
		<g>
			<polygon class="st6" points="284.2,559.8 299.5,545.5 279.5,539.4 			"/>
		</g>
	</g>
</g>
<g>
	<g>
		<line class="st5" x1="368.5" y1="322.5" x2="338" y2="196.1"/>
		<g>
			<polygon class="st6" points="348.9,196.7 334.5,181.5 328.6,201.6 			"/>
		</g>
	</g>
</g>
<g>
	<g>
		<line class="st5" x1="334.5" y1="181.5" x2="191.7" y2="78.3"/>
		<g>
			<polygon class="st6" points="200.3,71.6 179.5,69.5 188.1,88.6 			"/>
		</g>
	</g>
</g>
<g>
	
		<rect x="345.9" y="322.4" transform="matrix(0.9692 -0.2462 0.2462 0.9692 -75.2998 103.5487)" class="st0" width="61" height="61"/>
	<path class="st1" d="M418.4,368l-5.8,1.5l-7.4-29.1l5.8-1.5c0.5-0.1,1.1,0.2,1.2,0.7l6.9,27.2C419.3,367.3,419,367.8,418.4,368z"/>
	<path class="st1" d="M345.7,386.5l5.8-1.5l-7.4-29.1l-5.8,1.5c-0.5,0.1-0.8,0.7-0.7,1.2l6.9,27.2
		C344.6,386.3,345.2,386.6,345.7,386.5z"/>
	
		<rect x="345.9" y="322.4" transform="matrix(0.9692 -0.2462 0.2462 0.9692 -75.2998 103.5487)" class="st2" width="61" height="61"/>
</g>
<g class="st7">
	<g>
		<line class="st5" x1="179.5" y1="573.5" x2="179.5" y2="567.5"/>
		<line class="st8" x1="179.5" y1="555.3" x2="179.5" y2="97.2"/>
		<line class="st5" x1="179.5" y1="91.1" x2="179.5" y2="85.1"/>
		<g>
			<polygon class="st6" points="190,88.1 179.5,70 169,88.1 			"/>
		</g>
	</g>
</g>
<g class="st7">
	<g>
		<line class="st5" x1="334.5" y1="181.5" x2="328.6" y2="182.8"/>
		<line class="st9" x1="314.9" y1="185.8" x2="266.9" y2="196.4"/>
		<line class="st5" x1="260.1" y1="198" x2="254.2" y2="199.2"/>
		<g>
			<polygon class="st6" points="254.9,188.4 239.5,202.5 259.5,208.8 			"/>
		</g>
	</g>
</g>
<g>
	<circle class="st10" cx="144" cy="609" r="18.5"/>
	<text transform="matrix(1 0 0 1 137.7467 616.9459)" class="st1 st11 st12">1</text>
</g>
<g>
	<circle class="st10" cx="457" cy="499" r="18.5"/>
	<text transform="matrix(1 0 0 1 450.7467 506.9459)" class="st1 st11 st12">2</text>
</g>
<g>
	<circle class="st10" cx="376" cy="169" r="18.5"/>
	<text transform="matrix(1 0 0 1 369.7467 176.9459)" class="st1 st11 st12">3</text>
</g>
</svg>
