<svg id="Layer_1" data-name="Layer 1" xmlns="http://www.w3.org/2000/svg" viewBox="0 0 470.13 210.85"><defs><style>.cls-1,.cls-4{fill:none;stroke-miterlimit:10;}.cls-1{stroke:#fdb73e;stroke-width:3px;}.cls-2,.cls-3{fill:#fdb73e;}.cls-3{font-size:17px;}.cls-3,.cls-6{font-family:ArialMT, Arial;}.cls-4{stroke:#ff5c5c;stroke-width:2px;}.cls-5,.cls-6{fill:#ff5c5c;}.cls-6{font-size:14px;}</style></defs><title>thymio_movement</title><polyline class="cls-1" points="136.32 25.42 136.32 86.66 197.55 86.66"/><polygon class="cls-2" points="128.84 27.61 136.32 14.66 143.8 27.61 128.84 27.61"/><polygon class="cls-2" points="195.37 94.14 208.32 86.66 195.37 79.18 195.37 94.14"/><polyline class="cls-1" points="75.08 86.66 136.32 86.66 136.32 146.9"/><polygon class="cls-2" points="77.27 94.14 64.32 86.66 77.27 79.18 77.27 94.14"/><polygon class="cls-2" points="128.84 144.71 136.32 157.66 143.8 144.71 128.84 144.71"/><polyline class="cls-1" points="93.02 43.36 136.32 86.66 179.62 43.36"/><polygon class="cls-2" points="89.28 50.19 85.41 35.75 99.85 39.62 89.28 50.19"/><polygon class="cls-2" points="183.36 50.19 187.23 35.75 172.78 39.62 183.36 50.19"/><polyline class="cls-1" points="93.02 129.96 136.32 86.66 178.91 129.25"/><polygon class="cls-2" points="99.85 133.7 85.41 137.57 89.28 123.12 99.85 133.7"/><polygon class="cls-2" points="172.08 132.99 186.52 136.86 182.65 122.42 172.08 132.99"/><line class="cls-1" x1="402.32" y1="131.16" x2="402.32" y2="69.92"/><polygon class="cls-2" points="409.8 72.11 402.32 59.16 394.84 72.11 409.8 72.11"/><path class="cls-1" d="M413.19,152.32s.25-43.35-29-51.87" transform="translate(-29.18 -20.84)"/><polygon class="cls-2" points="358.3 72.84 344.32 78.16 355.91 87.61 358.3 72.84"/><path class="cls-1" d="M450.07,152.05s-.26-43.35,29-51.88" transform="translate(-29.18 -20.84)"/><polygon class="cls-2" points="448.98 87.34 460.57 77.89 446.59 72.57 448.98 87.34"/><text class="cls-3" transform="translate(147.35 14.59)">0</text><text class="cls-3" transform="translate(193.57 43.2)">1</text><text class="cls-3" transform="translate(211.57 100.2)">2</text><text class="cls-3" transform="translate(93.57 31.2)">7</text><text class="cls-3" transform="translate(53.57 79.2)">6</text><text class="cls-3" transform="translate(72.57 137.2)">5</text><text class="cls-3" transform="translate(119.57 167.2)">4</text><text class="cls-3" transform="translate(180.57 154.2)">3</text><text class="cls-3" transform="translate(337.46 72.26)">0</text><text class="cls-3" transform="translate(396.68 51.87)">1</text><text class="cls-3" transform="translate(460.68 71.87)">2</text><text class="cls-3" transform="translate(357.85 205.09)">next direction</text><text class="cls-3" transform="translate(100.16 205.33)">orientation</text><polyline class="cls-4" points="11.38 120.36 11.38 158.5 49.51 158.5"/><polygon class="cls-5" points="8.38 121.24 11.38 116.06 14.37 121.24 8.38 121.24"/><polygon class="cls-5" points="48.64 161.49 53.82 158.5 48.64 155.51 48.64 161.49"/><text class="cls-6" transform="translate(56.99 169.33)">x</text><text class="cls-6" transform="translate(0 116.27)">y</text></svg>